<svg version="1.1" id="Layer_1" xmlns="http://www.w3.org/2000/svg" x="0" y="0" viewBox="0 0 250.6 341.6" style="enable-background:new 0 0 250.6 341.6" xml:space="preserve"><style>.gkst0{fill:#e2d9d2}.gkst1{fill:#dacdc5}.gkst2{fill:#3e2723}.gkst3{fill:#e17b32}.gkst4{fill:#5757c6}.gkst5{fill:#c56c2b}.gkst6{fill:#4a4aa8}.gkst9{fill:#bdb5af}</style><g id="Layer_2_00000172426728928904011140000007760084394705698225_"><g id="OBJECTS"><path class="gkst0" d="M87.4 134.1c-7.7 19-16.5 37.6-26.4 55.6 6.2 8.8 15.4 14.1 25.7 17.2 14.7-16.4 28.1-34 40-52.6l-39.3-20.2z"/><path class="gkst1" d="M82.7 179.7c8.4.4 16.8 1.6 25 1.6 6.6-8.7 12.9-17.7 18.8-26.9l-39.1-20.2c-7.7 19-16.5 37.6-26.4 55.6 1 1.4 2 2.7 3.1 3.9 6.6-5.3 11.5-14 18.6-14z"/><path class="gkst0" d="M107.8 181.2c-8.3.1-16.6-1.1-25-1.6-7.1.1-12 8.7-18.6 13.9 6 6.5 13.9 10.7 22.5 13.3 7.3-8.2 14.4-16.7 21.1-25.6z"/><path class="gkst2" d="M12.1 281.5C9.2 287 7.5 293 7.3 299.2c0 1.3-1.1 2.2-2.3 2.2-.8 0-1.5-.4-1.9-1.1-.7-1.1-1.4-2.3-2-3.3-1.7-2.8-1-9.6.7-12.4-1.5-.3-1.7-5.7-.6-6.8 1.6-1.6 3.1-1.5 5.4-1.5 1.2 0 2.4.4 3.4 1.1 1.3.9 2.9 2.6 2.1 4.1z"/><path class="gkst3" d="m59.5 234.1 27.1-27.3-24.9-16.2-7.6 21c-1.5 4.2-4.2 7.8-7.8 10.5-1.5 1.1-3.3 2.5-5.2 4.2 4.5 6.6 11.2 8.2 18.4 7.8z"/><path class="gkst4" d="m5.7 276.5-.2.6.2 1c.6 2.4 3 3.9 5.4 3.3.1 0 .2 0 .2-.1l2.8-2.7 31.2-30.5c-6.1-2.1-11.6-5.6-16.2-10.1-10.3 11.1-18.2 24.2-23.4 38.5z"/><path class="gkst0" d="m50.8 242.7 2.5-2.4 1.5-1.5 4.8-4.7c-7.2.3-13.9-1.2-18.5-7.8-1.8 1.5-3.8 3.3-5.8 5.3l-1.2 1.2c-.8.8-1.6 1.6-2.4 2.5-.3.4-.7.7-1 1.1l-1.5 1.6c4.6 4.5 10.1 8 16.2 10.1l3.8-3.8 1.6-1.6z"/><path class="gkst5" d="M52 219c.6-1.5 1.1-3 1.7-4.5 1.2-3.1 2.4-6.2 3.4-9.4.1-.2 0-.4-.2-.5-.2-.1-.4 0-.5.2-1.3 3-2.4 6.2-3.6 9.3-.6 1.5-1.2 3-1.7 4.5-.7 1.6-1.3 3.2-1.8 4.8-.1.2.1.5.3.5.2.1.4 0 .5-.2.7-1.5 1.4-3.1 1.9-4.7z"/><path class="gkst4" d="M139.4 77c-2.9-4-27-5.7-29-8.7-6.4.8-24.4 6.9-25.6 8.8s25.6 32.3-3.6 61c-1.2 1.2-.7 3.2.5 4.4 10.1 9.4 39.8 20.6 44.2 15.6 20.9-24 25.1-65.4 13.5-81.1z"/><path class="gkst6" d="M141 130.9c1-3.2 1.8-6.4 2.6-9.6 1.4-6.3 2.3-12.8 2.6-19.3.1-1.8.1-3.7.1-5.5 0-1.8-.1-3.7-.4-5.4 0-.1-.1-.2-.2-.2s-.1.1-.1.2c-.1 1.6-.2 3.2-.1 4.8 0 1.6-.1 3.2-.1 4.8-.1 3.2-.3 6.4-.7 9.6-.7 6.5-2 13-3.9 19.2-.5 1.7-1.1 3.4-1.7 5.1s-1.4 3.4-1.9 5.2c0 .2.2.4.3.2.7-1.4 1.3-2.9 1.8-4.4.6-1.5 1.1-3.1 1.7-4.7zm-37.2 6.5c-.3-1.1-.7-2.1-1.3-3.1l-1.2-3c-.8-2.1-1.6-4.3-2.3-6.5-1.3-4.3-2.3-8.7-3-13.1 0-.2-.3-.1-.3.1.5 4.5 1.4 9 2.6 13.4.6 2.1 1.3 4.2 2.1 6.2.4 1.1.8 2.2 1.3 3.2.4 1.1.9 2.1 1.5 3 .1.1.4.1.5 0 .1 0 .1-.1.1-.2zm-6-1.9c-.3-1.4-.8-2.7-1.2-4-.4-1.4-.8-2.8-1-4.2-.5-2.8-.8-5.7-.7-8.6-.4 2.9-.3 5.9.1 8.8.2 1.5.5 2.9.9 4.3.3 1.4.8 2.7 1.6 3.9.1.2.4 0 .3-.2zm22.5 19.8c-2.6-.1-5.2-.2-7.7-.6-2.6-.4-5.1-1.1-7.6-2-4.9-1.8-9.5-4.6-13.4-8.1l-3-3c-.5-.5-.9-1.1-1.4-1.6s-1.1-1.1-1.5-1.7c-.1-.1-.3 0-.2.1.3.6.6 1.1.9 1.7s.8 1.1 1.2 1.6c.8 1.1 1.7 2.1 2.7 3 1.9 1.9 4 3.5 6.2 5 4.5 2.9 9.5 4.9 14.8 5.9 3 .6 6 .8 9 .4.2 0 .3-.2.3-.4.1-.2-.1-.3-.3-.3z"/><path d="M125.9 39.5c-.3-2.3-2.4-3.9-4.6-4.7-6.2-2.1-13 .1-16.9 5.4-3.6 5.4-3.3 12.6.8 17.7 3.6 4.2 9.3 6.1 14.8 5.9l5.9-24.3z" style="fill:#7d432f"/><path d="M125.8 40.3c-.2-2.1-2.2-3.6-4.2-4.3-5.7-1.9-12 .1-15.6 5-3.3 5-3 11.6.8 16.3 3.3 3.9 8.6 5.6 13.7 5.4l5.3-22.4z" style="fill:#5f3324"/><path class="gkst5" d="M115.5 50.8c-1.7 5.8-3.4 11.7-5.1 17.5 2.6 8.1 6.9 16.9 12.4 12.7.4-6.6 1-13 2.8-19.3l-10.1-10.9z"/><path class="gkst3" d="M126.4 39.8c3.2 4.7 7.6 11.1 8.8 16.6.8 3.7-7.4 9.9-12.9 8.6-3.3-.7-6.2-2.7-8-5.6-.2 1.7-3 2.2-4.2 1.5-1.3-.7-2-2.1-1.9-3.5.2-1.4 1.9-1.6 3.3-1.9.2-2.4-.3-4.2.2-6.2-.7-.9-1.3-1.8-1.8-2.8-.6-1.1-.4-2.4.4-3.3 3.3-3.4 7.4-5.8 12-7 1-.3 2 .1 2.5 1s1.1 1.9 1.6 2.6z"/><path class="gkst5" d="M110.8 56.7c-.4 0-.8 0-1.1.2-.4.1-.7.4-.8.8 0 .1.1.2.2.2h.1c.1-.1.3-.1.4-.2.1-.1.3-.1.4-.2.3-.1.6-.1.8-.1.3 0 .5.1.8.3l.6.6c.1.1.3.1.4 0 .1-.1.1-.2.1-.3-.5-.7-1.1-1.2-1.9-1.3z"/><path class="gkst6" d="M122.4 91.5c-.4-.9-.9-1.8-1.5-2.6-.6-.9-1.1-1.8-1.7-2.7-1.1-1.9-2.2-3.8-3.2-5.7-1.9-3.8-3.5-7.8-5.3-11.7-.1-.1-.3-.1-.3.1 1 4.2 2.6 8.3 4.6 12.1 1 1.9 2 3.8 3.1 5.6.5.9 1.1 1.8 1.7 2.7.6.9 1.2 1.8 2 2.6.3.1.7-.2.6-.4zm-.2-9.1.7-.9c.2-.3.4-.6.7-.9s.3-.6.5-.9c.1-.1-.1-.2-.2-.1-.3.3-.6.5-.8.8s-.5.6-.7.8l-.7.8c-.3.3-.5.6-.7.9-.1.2-.1.4.1.5.2.1.4.1.5-.1.2-.2.4-.5.6-.9z"/><path class="gkst0" d="M61.9 163.1c-1.8 2.5-3.1 5.4-4 8.4-.9 3-.4 6.3 1.2 9 2.9 4.4 9 5.3 14.3 4.9 12.4-1 23.8-6.8 32.1-16 3.5-4 6.5-8.8 6.7-14.2s-3.1-11-8.3-12.2c-3.8-.8-7.7.8-11.6 1.3-2.3.3-5.5 1.4-7.5.1-.9-.6-3.6-2.9-3.6-2.9-.6.3-1.2.6-1.7 1.1-4.3 3.9-8.3 8.1-11.9 12.6-2 2.5-3.9 5.2-5.7 7.9z"/><path class="gkst1" d="M96.2 143.5c-1.3.3-2.6.6-3.9.7-2.3.3-5.5 1.4-7.5.1-.9-.6-3.6-2.9-3.6-2.9-.6.3-1.2.6-1.7 1.1-1.1 1-2.1 2-3.2 3-.3 4.4-1.2 8.8-2.7 13 6.8-6 14-11.9 22.6-15z"/><path class="gkst0" d="M103.9 143c-2.5-.6-5.1 0-7.7.5-8.6 3.1-15.8 9-22.5 14.9 1.5-4.2 2.4-8.6 2.7-13-3.1 3-6.1 6.3-8.8 9.7-2 2.6-3.9 5.2-5.7 7.9-1.8 2.5-3.1 5.4-4 8.4-.9 3-.4 6.3 1.2 9 2.9 4.4 9 5.3 14.3 4.9 12.4-1 23.8-6.8 32.1-16 3.5-4 6.5-8.8 6.7-14.2s-3.1-11-8.3-12.1z"/><path class="gkst5" d="M84.5 150.4c-4.8 4-8.1 9.7-9.1 15.9-.5 2.8-.4 5.9 1.1 8.4 1.7 2.8 5.2 4.4 8.6 4.8 4.9.5 7.4-4.7 11.2-7.6s9.3-3.7 11.9-7.8c1.8-2.5 3-5.4 3.8-8.4.7-3 .1-6.2-1.8-8.8-1.2-1.4-2.8-2.4-4.6-2.7-.9-.2-1.8-.2-2.7-.2-.6-.1-1.2-.1-1.8-.1-3.8.2-7.6 1.2-11 3-2.1.8-3.9 2.1-5.6 3.5z"/><path class="gkst2" d="M58.4 201.2c-4.4 3.8-7.8 8.6-10.1 14-.5 1.1-1.7 1.6-2.8 1.1-.6-.3-1.1-.8-1.2-1.5-.3-1.2-.5-2.4-.7-3.6-.6-3.1 2.2-8.8 4.7-10.7-1.2-.8.4-5.6 1.7-6.2 1.9-.9 3.2-.3 5.2.5 1.1.4 2 1.1 2.7 2.1.9 1.2 1.6 3.3.5 4.3z"/><path class="gkst4" d="M85.7 158.5c-12.5 9.3-22.5 22.2-31.2 34.8l-.7 1.1c-.8 1.1-.8 2.6 0 3.7 1.3 1.9 3.8 2.4 5.7 1.2l.3-.2c10.2-7.6 21.3-14.3 31.9-21.5.9-.6 1.8-1.3 2.7-1.9.2-.1.3-.2.5-.4.5-.4 1-.7 1.6-1.1-1.8-6.5-5.3-12.6-10.8-15.7z"/><path class="gkst0" d="M109.1 165c-1.2-5.1-3.3-10.2-8-12.3-.8-.5-2.5-.9-3.3-1.6-4.2 2.1-8.2 4.5-12 7.4 5.6 3.1 9.1 9.2 10.8 15.7l1.5-1.2c.8-.6 6.7-4.8 11-8z"/><path class="gkst3" d="M110.1 146.8c-2.9-2.9-8.6 2.4-11.4 3.7l-1 .5c.8.6 2 1.1 2.7 1.6 4.8 2.1 7.5 7.1 8.7 12.2 1.4-1 2.9-4.2 3.4-5.1 2.8-4.7.8-9.7-2.4-12.9z"/><path class="gkst4" d="M197.5 42.9c-8.6 2.5-16.6 6.8-23.3 12.6-3.7 3.2-7.2 6.9-12 8.2-3.3.9-7 .4-10.1 1.8-2.5 1.2-4.4 3.5-7 4.1s-5.2-.5-7.9-.9c-5-.8-10.1 1-13.5 4.7 3.4 10.2 14.7 16.1 20.1 25.4 4.8-3.5 7.2-8.7 12-12.3 2.9-2.2 6.3-3.5 9.5-5.3s6.2-4.1 7.6-7.5c6.2-.9 11.7-5.6 15.8-10.4s7.6-10.1 12.4-14.2c.3-2.2-1.5-4.9-3.6-6.2z"/><path class="gkst0" d="M199.3 42.5c-.4-3.8.1-7.7 1.5-11.2.2-.5.4-.9.8-1.3s1-.4 1.4-.1c.3.4.5.8.5 1.3l.2 3.7c2-.3 3.9-1.9 5.2-3.5s2.8-3.1 4.8-3.7c.5-.1 1.1-.2 1.4.2s0 .9-.2 1.3c-1.1 2-2.5 3.8-4 5.5 2.7 1.6 4.3 4.6 4.1 7.8-3.6 3.1-8 5.1-12.7 5.6l-3-5.6z"/><path class="gkst0" d="M210.2 35.6c2.1-2.1 4.4-4 6.8-5.6.4-.3.9-.5 1.3-.5.5-.1 1 .2 1.2.6.1.5-.1 1.1-.4 1.5-2 3-4.5 5.6-7.2 7.9l-1.7-3.9z"/><path class="gkst0" d="M212.1 38.4c2.5-1.5 5.2-2.8 8-3.8.5-.2.9-.3 1.4-.2.5.1.9.4 1 .9 0 .5-.3 1-.8 1.3-2.7 2.4-5.7 4.4-8.9 5.9l-.7-4.1z"/><path class="gkst0" d="M212 41.5c2.3-.5 4.6-.8 7-.8.4 0 .8 0 1.1.2.4.2.6.5.5.9-.1.4-.5.7-.9.8-2.6 1.1-5.4 1.8-8.2 2.2l.5-3.3z"/><path class="gkst9" d="M205.7 37.7c-.3-1-.9-2.4-1.9-2.8.2.5.6.8.9 1.3.3.5.5 1 .6 1.5.3 1.1.3 2.3 0 3.3-.7 2.1-2.4 3.6-4.5 4.1-.3.1-.2.5.1.4 2.3-.5 4.1-2.2 4.8-4.4.3-1 .3-2.2 0-3.4zm4.7 4.3c-.2-.9-.5-1.8-.8-2.6-.7-1.6-1.6-3.2-2.7-4.5-.1-.1-.3 0-.2.2 1.1 1.4 1.9 3 2.5 4.7.3.8.5 1.7.7 2.5.1.4.2.8.2 1.3 0 .4.1.9.2 1.3.1.3.5.2.5-.1 0-1-.1-1.9-.4-2.8zm.2-2.7c-.2-.9-.4-1.8-.7-2.8h-.1c.1.9.2 1.8.4 2.7.1.5.2.9.2 1.4s.1.9.3 1.4c.1.2.4.2.4 0-.2-.8-.3-1.8-.5-2.7z"/><path class="gkst0" d="M195.5 43.3c2.3 1.9 4.1 4.2 5.5 6.9 2.2-.1 4.1-1.4 4.9-3.4-.8-3-2.5-5.6-5-7.4-2.3.2-4.4 1.7-5.4 3.9z"/><path class="gkst9" d="M205.4 47.6c-.7-1.6-1.6-3-2.6-4.4-.5-.7-1-1.3-1.6-1.9-.5-.6-1.2-1.2-1.9-1.6 0 0-.1 0-.1.1.5.6 1.1 1.2 1.6 1.8s1.2 1.3 1.7 2c1 1.4 1.9 2.8 2.6 4.3 0 .2.4 0 .3-.3z"/><path class="gkst4" d="M101.7 79.5c-5.2-7.3-15.4-9.1-22.7-3.9-2 1.4-3.7 3.3-4.8 5.4-8.3-.1-16.4 2-23.6 6.1-1.6 1-3.3 2.2-3.7 4-.5 2.6 2.7 9 5.1 10.3 5.2 2.8 12.6 2 18.4 1.9s8-3.2 13.8-2.5c4.4.5 10.3 1.4 14.7 1.4 2.5 0 5.3-.7 6.6-2.9.7-1.4.9-3 .7-4.5-.3-5.5-1.2-10.7-4.5-15.3z"/><path class="gkst6" d="M104.3 81c-.8-1.2-1.8-2.2-3-3-1.2-.9-2.4-1.7-3.7-2.4-1.2-.7-2.5-1.3-3.8-1.9-.7-.3-1.4-.5-2.1-.8-.5-.2-1-.3-1.4-.2h-.1c-.1 0-.2.1-.2.2v.1c.3.5 1 .6 1.6.8s1.2.5 1.8.7c1.3.6 2.6 1.3 3.8 2 1.2.7 2.3 1.5 3.4 2.3 1.1.8 2.1 1.8 3.3 2.5.1.1.3.1.3-.1.2 0 .1-.1.1-.2zM103 82c-.3-.4-.6-.7-1-1l-1.2-1c-.8-.7-1.6-1.3-2.4-1.9-.2-.1-.4.1-.3.3.7.7 1.4 1.4 2.2 2.1.4.3.7.7 1.1 1 .3.4.7.7 1.2.9.2 0 .3 0 .4-.2.1 0 0-.1 0-.2zm-30.7 8c-.8-1.3-1.9-2.5-3.2-3.4-2.7-1.9-6.1-2.4-9.2-1.6-1.8.4-3.4 1.4-4.7 2.7-.1.1 0 .2.1.2 1.6-1.2 3.4-2 5.4-2.4 1.9-.4 3.9-.2 5.8.5 1.7.7 3.3 1.8 4.5 3.3.6.7 1.1 1.5 1.5 2.4.4.9.7 1.9 1 2.8 0 .1.2.2.3.2.1 0 .2-.1.2-.2-.2-1.7-.7-3.2-1.7-4.5zm-10.8 13c-.9-.5-1.6-1.2-2.2-2.1-.5-1.1-.7-2.3-.5-3.5.2-1.1.6-2.2 1-3.2s1-2.1 1.4-3.1c0-.1-.1-.2-.2-.1-1.6 2.1-2.8 4.6-2.6 7.2.1 1.1.4 2.1.9 3.1.5.8 1.3 1.5 2.2 1.7 0 .1 0 0 0 0z"/><path class="gkst6" d="M69.9 88c-.1-.3-.2-.6-.4-.8-.3-.5-.6-1-1-1.5s-.8-.9-1.3-1.2c-.3-.2-.5-.4-.8-.5-.2-.2-.5-.3-.8-.3v.1c.2.2.4.3.7.5.2.2.5.3.7.5.9.7 1.6 1.7 2.2 2.7.1.2.2.5.4.8s.1.6.3.8c.1.1.2.1.3 0V89c0-.4-.2-.8-.3-1z"/><path class="gkst0" d="M68.1 87.6c3.4-1.4 7.3-1.1 10.4.9 3 2.1 4.5 6.3 3 9.6-.1.4-.4.8-.8 1.1-1 .7-2.5-.3-3.1-1.4s-.8-2.5-1.7-3.4c-1.6-1.6-4.4-.8-5.9.7s-2.5 3.7-3.9 5.4-4 2.8-5.9 1.6c-2.3-1.5-1.7-4.9-.6-6.9.5-.7 1-1.4 1.6-2.1.9-1.1 1.8-2.1 2.8-3 1.2-1.1 2.6-1.9 4.1-2.5z"/><path class="gkst0" d="M71.1 92.2c1.5-.3 2.8 1 3.6 2.6 4.6 8.7-.9 7.7-1.3 7.3l-2.9-3c-.7-.6-1.3-1.4-1.7-2.3-.7-1.7-.3-3.5.9-4.9"/><path class="gkst0" d="M67 95.9c1.5-.3 2.8 1 3.6 2.6 4.6 8.7-.9 7.7-1.3 7.3l-2.9-3c-.7-.6-1.3-1.4-1.7-2.2-.7-1.7-.3-3.5.9-4.9"/><path class="gkst0" d="M65.3 99.6c.9.1 1.4 1.3 1.5 2.6.5 7.1-2.5 5.3-2.6 4.9-.3-.9-.7-1.8-1-2.7-.3-.6-.4-1.3-.4-2 0-1.3.7-2.5 1.7-3.3"/><path class="gkst6" d="M85 90.4c-.5-1-1.2-1.9-2.1-2.7-.8-.9-1.7-1.7-2.6-2.4-1.8-1.4-3.8-2.5-5.9-3.2-.1 0-.1.1 0 .1 2.1.9 4 2.1 5.8 3.5.8.7 1.6 1.5 2.3 2.3.4.4.8.8 1.1 1.3s.7 1 1.1 1.4c.2 0 .4-.1.3-.3z"/><path class="gkst6" d="M83.2 89.3c-.3-.3-.6-.5-.9-.8l-.9-.8c-.1-.1-.3.1-.2.2l1 .8c.3.3.7.5 1 .8v-.2zm97.2-37.9c-1.7.6-3.2 1.4-4.6 2.5-1.4 1-2.8 2.2-4.1 3.4-2.6 2.5-4.8 5.3-6.6 8.4-1 1.8-1.8 3.6-2.4 5.5-.1.2.3.4.4.2 2.8-6.4 7.1-12 12.7-16.3 1.6-1.2 3.2-2.2 4.8-3.4.1-.1 0-.4-.2-.3zm-27.9 23.8c-1.7-1.9-3.8-3.3-6.2-4.2-2.3-1-4.9-1.6-7.4-1.7-.1 0-.1.2 0 .2 2.5.2 5 .9 7.3 1.9 1.1.5 2.1 1.1 3.1 1.7 1 .7 2 1.5 2.9 2.2.2.3.4.1.3-.1zm-3.9 6.1-2.1 9c-.4 1.5-.7 3-1 4.4-.4 1.4-.7 2.9-.8 4.4 0 .2.3.3.4.1.5-1.4.9-2.8 1.1-4.2.3-1.5.6-3.1 1-4.6.6-3 1.2-6.1 1.8-9.1 0-.1-.3-.1-.4 0z"/><path class="gkst0" d="M250.6 15.9c-.5-5.5-3.6-10.4-8.3-13.3-1.1-.7-2.3-1.3-3.6-1.7.2.2.4.3.6.5-.2-.2-.4-.4-.6-.5-3.3-1.1-6.9-1.2-10.2-.2 0 .1-.1.2-.1.2 0-.1.1-.2.1-.2-4.3 1.2-8 4.1-10.2 7.9 0 .1 0 .2.1.3 0-.1 0-.2-.1-.3-.1.1-.1.3-.2.4-1.3 2.3-2 4.9-2.2 7.5.2-.3.2-.3 0 0v1.4c.1 4.1 1.7 8 4.4 11.1l.4.4.5.5c1.9 1.8 4.2 3.2 6.7 4l.4.1c4.4 1.3 9.1.8 13.1-1.3l.4-.2.4-.2c2.6-1.6 4.8-3.8 6.3-6.5s2.3-5.9 2.2-9c-.1-.3-.1-.6-.1-.9z"/><path class="gkst2" d="M250.6 15.9c-.4-4.1-2.1-7.9-5-10.8-1-1-2.1-1.8-3.2-2.5-.1-.1-.2-.1-.4-.2-.8-.4-1.7-.7-2.6-.9l-.3-.3-.3-.3c-1.9-.6-4-.9-6-.9-1.4 0-2.8.3-4.2.6l-.1.1c-.1.4-.2.7-.2 1.1-.2.1-.3.1-.4.2-.3.1-.5.3-.8.4-.7.4-1.4.8-2.1 1.3-1 .8-1.8 1.7-2.5 2.8-.7.1-1.3.4-1.9.6-.9.4-1.7 1-2.3 1.7 0-.1 0-.2-.1-.4l-.2.6v.3c-.5.8-.9 1.7-1.2 2.6-.4 1.2-.5 2.5-.4 3.8-.2.2-.3.4-.4.6 0 0 0 .1-.1.1 0 0 0 .1-.1.1v.6s0-.1.1-.1c.2-.4.4-.7.6-1l.4.4c.8.6 1.6 1.1 2.6 1.4.2 1.2.6 2.5 1 3.6l.6 1.5c.3.8.7 1.5 1.2 2.2-.5 1.3-.7 2.8-.7 4.2h-.3c-.3 0-.7-.1-1-.3l.4.4c.2.1.4.1.6.1h.4l.6.9c1.5 1.4 3.3 2.4 5.3 2.9.1.2.1.4.2.6.1.1.3.1.4.1-.2-.2-.3-.4-.4-.6v-.1c.3 0 .5-.1.8-.1 1.1-.2 2.1-.7 3-1.4l.3-.2.3-.3.5.1c.9.2 1.9.3 2.9.2l.9-.1c1.1-.1 2.2-.3 3.3-.7.4.6 1 1.1 1.7 1.4 0 .1-.1.2-.2.3.1-.1.3-.1.4-.2 0 0 0-.1.1-.1l.3-.1c2.6-1.6 4.8-3.8 6.3-6.5.2-.7.2-1.3.1-2l.6-1.2c.4-.8.7-1.6.9-2.5.3-1.4.4-2.8.3-4.2.1.3.2.3.3.2zM235.7 2.7c1-.6 2.2-.9 3.3-1 1 .2 2 .6 2.9 1 .4.2.7.4 1 .6.3.2.7.5 1 .7.7.5 1.3 1.1 1.9 1.8.3.3.5.6.8.9.7 1.2.9 2.6.7 4 0 .1-.1.2-.1.3-1 .3-2.1.6-3.2.9l-1.6.4-.3-.3c-1.6-1.5-3.5-2.7-5.5-3.4-.1-1.1-.3-2.1-.6-3.1-.1-.4-.2-.7-.3-1.1-.1-.4-.3-.9-.5-1.3.1-.2.3-.3.5-.4zm-10.5 1.4c.6-.5 1.2-.9 1.8-1.2l.8-.4c.3-.1.6-.3.9-.4h2.2c1.4 0 2.8.4 4.1 1.1.4.8.6 1.6.9 2.4.3 1 .4 2.1.6 3.1l-.5.3c-1.7 1.1-3.3 2.3-4.7 3.8l-.2.2c-1-.3-1.9-.5-2.9-.6l-.6-.1h-.2c-1.1-.2-2.2-.3-3.3-.3-.7-1.6-1.1-3.3-1.2-5.1.5-1.1 1.4-2 2.3-2.8zm-4.1 18.1c-.1-.3-.2-.5-.3-.8-.4-1.1-.7-2.3-.9-3.5.3-.8.6-1.5 1.1-2.3.8-1.4 1.8-2.5 3-3.5 1.1.1 2.3.2 3.4.3h.2l.6.1c.9.1 1.8.3 2.7.6.8 2.2 1.7 4.5 2.6 6.6-.6 1.1-1.2 2.1-1.9 3.1l-.1.1c-.7 1-1.4 2-2.2 3h-1.5c-1.8-.1-3.6-.4-5.3-1.1-.6-.8-1.1-1.7-1.4-2.6zm21.5 5.7c-.6 1-1.4 1.9-2.4 2.7-1.2.4-2.5.7-3.7.8-.3 0-.6 0-.9.1-.7 0-1.5 0-2.2-.1-.4-.1-.7-.1-1.1-.3-.2-.3-.4-.5-.7-.8-1-1.3-1.7-2.7-2.2-4.2.7-.9 1.4-1.8 2-2.6l.3-.4c.7-1 1.3-2 1.9-3 .8 0 1.7.1 2.6 0 1.5 0 3-.1 4.5-.3.7.7 1.2 1.5 1.8 2.4l.1.2 1.2 2.4c.1.1.1.3.2.4-.4.9-.8 1.8-1.4 2.7zm7.2-7.7c-.2.6-.4 1.3-.6 1.9-.2.6-.5 1.1-.9 1.7-1.1.7-2.4 1.2-3.8 1.3h-.3c-.1-.2-.2-.4-.3-.7-.3-.8-.7-1.5-1.1-2.3-.1-.2-.3-.4-.4-.6-.4-.7-.9-1.3-1.4-1.9.6-1.3 1-2.7 1.3-4.1.2-1 .3-2 .4-3 .5-.1 1-.3 1.5-.4 1.1-.3 2.1-.6 3.2-.9l.1.1c.6.5 1.1 1 1.4 1.7.5.9.9 1.8 1.2 2.8.1 1.5 0 3-.3 4.4z"/><path d="M250.6 16.9c.1 3.1-.7 6.3-2.2 9-1.5 2.7-3.7 4.9-6.3 6.5l-.4.2-.4.2c-4 2.1-8.7 2.6-13.1 1.3l-.4-.1c-2.5-.8-4.8-2.2-6.7-4 .4.2.7.4 1.1.5 2.4 1 5 1.5 7.5 1.4.7 0 1.4-.1 2.2-.2l.8-.1c.2 0 .5-.1.7-.1 4.1-1 7.8-3.3 10.3-6.6l.2-.3c2.5-3.3 3.7-7.3 3.6-11.4 0-.6-.1-1.1-.1-1.7 0-.2-.1-.4-.1-.6-.3-1.7-.8-3.4-1.5-4.9l-.3-.6c2.9 2.9 4.7 6.7 5 10.8.1 0 .1.3.1.7z" style="fill-rule:evenodd;clip-rule:evenodd;fill:#dadada"/></g></g></svg>