<svg xmlns="http://www.w3.org/2000/svg" viewBox="0 0 250.64 341.58"><defs><style>.gkcls-2{fill:#5f3324;opacity:.17}.gkcls-3{fill:#e2d9d2}.gkcls-4{fill:#dacdc5}.gkcls-5{fill:#3e2723}.gkcls-6{fill:#e17b32}.gkcls-7{fill:#5757c6}.gkcls-8{fill:#c56c2b}.gkcls-9{fill:#4a4aa8}.gkcls-12{fill:#bdb5af}</style></defs><g style="isolation:isolate"><g id="Layer_2" data-name="Layer 2"><g id="OBJECTS"><ellipse class="gkcls-2" cx="96.85" cy="333.53" rx="90.19" ry="8.05"/><path class="gkcls-2" d="M229.46 310.31c0 2.55-8.71 4.62-19.45 4.62s-19.46-2.07-19.46-4.62 8.71-4.62 19.46-4.62 19.45 2.07 19.45 4.62Z"/><path class="gkcls-3" d="M87.38 134.07A524.55 524.55 0 0 1 61 189.69c6.18 8.83 15.43 14.07 25.65 17.19a408.24 408.24 0 0 0 40-52.6Z"/><path class="gkcls-4" d="M82.73 179.67c8.43.42 16.77 1.62 25 1.56q9.93-13.08 18.79-26.95l-39.14-20.21A524.55 524.55 0 0 1 61 189.69a39.81 39.81 0 0 0 3.14 3.89c6.54-5.2 11.48-13.84 18.59-13.91Z"/><path class="gkcls-3" d="M107.77 181.23c-8.27.06-16.61-1.14-25-1.56-7.11.07-12 8.71-18.63 13.91 6 6.52 13.89 10.67 22.51 13.3q11.06-12.39 21.12-25.65Z"/><path class="gkcls-5" d="M12.06 281.46a40.47 40.47 0 0 0-4.84 17.71A2.28 2.28 0 0 1 3 300.3c-.72-1.13-1.4-2.3-2-3.3-1.7-2.84-1-9.56.67-12.42-1.54-.33-1.66-5.71-.57-6.84 1.58-1.64 3.06-1.52 5.41-1.46a6.22 6.22 0 0 1 3.44 1.08c1.37.9 2.91 2.64 2.11 4.1Z"/><path class="gkcls-6" d="m59.52 234.14 27.09-27.26-24.91-16.2-7.62 21a22.87 22.87 0 0 1-7.78 10.47c-1.51 1.13-3.28 2.53-5.23 4.19 4.54 6.59 11.21 8.14 18.45 7.8Z"/><path class="gkcls-7" d="m5.71 276.46-.22.65.22.95a4.46 4.46 0 0 0 5.61 3.23l2.78-2.72 31.16-30.49A43.4 43.4 0 0 1 29.07 238a114.16 114.16 0 0 0-23.36 38.46Z"/><path class="gkcls-3" d="m50.79 242.68 2.46-2.39 1.51-1.49 4.76-4.66c-7.24.34-13.92-1.22-18.46-7.79-1.8 1.53-3.78 3.3-5.85 5.29L34 232.81c-.79.79-1.61 1.62-2.43 2.47-.34.35-.67.71-1 1.08l-1.5 1.64a43.4 43.4 0 0 0 16.19 10.12l3.85-3.77Z"/><path class="gkcls-8" d="M52 219c.57-1.51 1.13-3 1.69-4.52 1.17-3.11 2.42-6.21 3.43-9.37a.38.38 0 0 0-.72-.27c-1.33 3-2.44 6.19-3.63 9.29-.57 1.5-1.15 3-1.73 4.51a49 49 0 0 0-1.75 4.84.44.44 0 0 0 .82.31A48.12 48.12 0 0 0 52 219Z"/><path class="gkcls-7" d="M139.42 77c-2.94-4-27-5.72-29-8.67-6.36.79-24.45 6.88-25.55 8.84s25.62 32.34-3.59 61c-1.19 1.16-.69 3.24.53 4.38 10.11 9.45 39.8 20.63 44.17 15.58C146.8 134.07 151 92.73 139.42 77Z"/><path class="gkcls-9" d="M141 130.93q1.49-4.75 2.55-9.61A110.88 110.88 0 0 0 146.2 102c.07-1.85.11-3.69.06-5.54a28.3 28.3 0 0 0-.43-5.45.15.15 0 0 0-.3 0 45.31 45.31 0 0 0-.11 4.81c0 1.61-.06 3.22-.13 4.82-.12 3.21-.32 6.44-.66 9.63a105.18 105.18 0 0 1-3.94 19.23c-.52 1.72-1.07 3.43-1.67 5.13s-1.35 3.45-1.85 5.22c0 .19.22.36.33.16a31.07 31.07 0 0 0 1.84-4.37c.58-1.56 1.11-3.13 1.66-4.71ZM103.78 137.39a17 17 0 0 0-1.26-3.07c-.42-1-.83-2-1.22-3q-1.26-3.21-2.26-6.5a87.78 87.78 0 0 1-3-13.09c0-.2-.33-.14-.3.06a84.25 84.25 0 0 0 2.63 13.44q.91 3.15 2.06 6.23c.41 1.09.85 2.17 1.31 3.24a12.24 12.24 0 0 0 1.48 3 .34.34 0 0 0 .56-.31ZM97.85 135.5c-.26-1.35-.8-2.66-1.19-4a35.93 35.93 0 0 1-1-4.19 43.88 43.88 0 0 1-.7-8.64 33.09 33.09 0 0 0 .07 8.78 35.46 35.46 0 0 0 .92 4.33 13.28 13.28 0 0 0 1.56 3.89c.08.21.38.03.34-.17ZM120.35 155.3c-2.58-.14-5.15-.17-7.7-.56a39 39 0 0 1-7.59-2 40.8 40.8 0 0 1-13.36-8.08l-3-3c-.49-.53-.95-1.09-1.43-1.64s-1.07-1.11-1.52-1.71c-.08-.11-.27 0-.2.13.33.55.58 1.13.94 1.67s.77 1.1 1.2 1.63a33.84 33.84 0 0 0 2.67 3 39.36 39.36 0 0 0 6.24 5 41.36 41.36 0 0 0 14.78 5.85 26.71 26.71 0 0 0 9 .41.34.34 0 0 0-.03-.7Z"/><path d="M125.86 39.54c-.27-2.29-2.44-3.88-4.61-4.66a15 15 0 0 0-16.88 5.4 15 15 0 0 0 .82 17.7c3.55 4.22 9.34 6.11 14.85 5.89Z" fill="#7d432f"/><path d="M125.8 40.32c-.25-2.11-2.25-3.57-4.25-4.29A13.85 13.85 0 0 0 106 41a13.83 13.83 0 0 0 .76 16.32c3.27 3.88 8.6 5.63 13.68 5.42Z" fill="#5f3324"/><path class="gkcls-8" d="M115.53 50.84q-2.55 8.74-5.09 17.48C113 76.45 117.36 85.2 122.88 81c.43-6.59 1-13 2.84-19.32Z"/><path class="gkcls-6" d="M126.37 39.77c3.16 4.71 7.64 11.11 8.78 16.63.75 3.68-7.36 9.89-12.93 8.57a12.64 12.64 0 0 1-8-5.57c-.15 1.69-3 2.16-4.23 1.53a3.51 3.51 0 0 1-1.87-3.52c.18-1.4 1.88-1.59 3.27-1.87.22-2.44-.3-4.25.2-6.24a17.89 17.89 0 0 1-1.79-2.79 2.9 2.9 0 0 1 .39-3.31 25.85 25.85 0 0 1 12-7 2.35 2.35 0 0 1 2.54.95c.58.94 1.2 1.96 1.64 2.62Z"/><path class="gkcls-8" d="M110.78 56.7a2.2 2.2 0 0 0-1.11.17 1.38 1.38 0 0 0-.83.79.17.17 0 0 0 .21.18 2.75 2.75 0 0 0 .41-.24 3.49 3.49 0 0 1 .39-.19 2 2 0 0 1 .83-.09 1.67 1.67 0 0 1 .75.31 3 3 0 0 1 .58.64.3.3 0 0 0 .52-.27 2.07 2.07 0 0 0-1.75-1.3Z"/><path class="gkcls-9" d="M122.36 91.46a19.88 19.88 0 0 0-1.49-2.62c-.55-.92-1.12-1.83-1.67-2.74-1.11-1.88-2.17-3.8-3.15-5.74-1.93-3.82-3.51-7.8-5.33-11.66-.07-.14-.31-.1-.27.06a52.59 52.59 0 0 0 4.62 12.13q1.44 2.86 3.08 5.62c.54.92 1.09 1.84 1.69 2.72a15.36 15.36 0 0 0 2 2.6c.26.22.63-.09.52-.37ZM122.21 82.45l.66-.92c.22-.31.44-.61.65-.93s.35-.64.53-.95c.07-.12-.11-.19-.19-.11-.27.26-.57.51-.83.79s-.47.55-.71.83l-.69.84a7.4 7.4 0 0 0-.7.89.37.37 0 0 0 .59.46 7.65 7.65 0 0 0 .69-.9Z"/><path class="gkcls-3" d="M61.88 163.13a27.88 27.88 0 0 0-4 8.36 11.51 11.51 0 0 0 1.17 9c2.91 4.42 9 5.3 14.29 4.88a48.56 48.56 0 0 0 32.11-16c3.53-4 6.48-8.84 6.68-14.16s-3.07-11-8.27-12.16c-3.82-.84-7.69.8-11.57 1.28-2.35.29-5.49 1.41-7.48.09-.92-.61-3.58-2.88-3.58-2.88a7.34 7.34 0 0 0-1.72 1.06 100.52 100.52 0 0 0-11.93 12.65q-3.04 3.75-5.7 7.88Z"/><path class="gkcls-4" d="M96.21 143.53c-1.31.29-2.62.58-3.92.74-2.35.29-5.49 1.41-7.48.09-.92-.61-3.58-2.88-3.58-2.88a7.34 7.34 0 0 0-1.72 1.06q-1.62 1.44-3.17 3a47.91 47.91 0 0 1-2.67 13c6.69-6 13.93-11.94 22.54-15.01Z"/><path class="gkcls-3" d="M103.86 143c-2.53-.56-5.09 0-7.65.54-8.61 3.07-15.85 9-22.54 14.95a47.91 47.91 0 0 0 2.67-13 98.09 98.09 0 0 0-8.76 9.69q-3 3.83-5.7 7.94a27.88 27.88 0 0 0-4 8.36 11.51 11.51 0 0 0 1.17 9c2.91 4.42 9 5.3 14.29 4.88a48.56 48.56 0 0 0 32.11-16c3.53-4 6.48-8.84 6.68-14.16s-3.07-11.07-8.27-12.2Z"/><path class="gkcls-8" d="M84.46 150.38a26.75 26.75 0 0 0-9.14 15.87c-.48 2.83-.44 5.9 1.07 8.38 1.73 2.84 5.17 4.45 8.59 4.76 4.93.46 7.36-4.67 11.23-7.64s9.3-3.7 11.86-7.77a25.93 25.93 0 0 0 3.8-8.39 10.54 10.54 0 0 0-1.75-8.75 7.88 7.88 0 0 0-4.58-2.72c-.89-.17-1.82-.16-2.72-.24a16.09 16.09 0 0 0-1.84-.12 26.64 26.64 0 0 0-11 3 28 28 0 0 0-5.52 3.62Z"/><path class="gkcls-5" d="M58.38 201.2a38.11 38.11 0 0 0-10.06 14 2.15 2.15 0 0 1-4.06-.38 67.64 67.64 0 0 1-.72-3.61c-.57-3.06 2.24-8.75 4.65-10.73-1.25-.79.4-5.57 1.74-6.21 1.93-.93 3.19-.34 5.24.48a5.83 5.83 0 0 1 2.68 2.07c.92 1.32 1.7 3.39.53 4.38Z"/><path class="gkcls-7" d="M85.66 158.48c-12.47 9.32-22.51 22.16-31.16 34.78l-.74 1.09a3.32 3.32 0 0 0 0 3.7 4.21 4.21 0 0 0 5.74 1.23l.27-.18c10.23-7.64 21.3-14.27 31.9-21.54.92-.63 1.83-1.26 2.74-1.91.17-.11.34-.24.5-.36.53-.36 1-.74 1.56-1.11-1.74-6.52-5.22-12.58-10.81-15.7Z"/><path class="gkcls-3" d="M109.06 165c-1.15-5.08-3.26-10.18-8-12.31-.76-.52-2.53-.9-3.35-1.55a74.47 74.47 0 0 0-12 7.38c5.59 3.12 9.07 9.18 10.8 15.7l1.49-1.17c.93-.65 6.76-4.89 11.06-8.05Z"/><path class="gkcls-6" d="M110.12 146.84c-2.94-2.87-8.56 2.4-11.44 3.74l-1 .52c.82.65 2 1.13 2.73 1.64 4.79 2.14 7.52 7.14 8.67 12.22 1.37-1 2.86-4.22 3.42-5.14 2.84-4.82.83-9.82-2.38-12.98Z"/><path class="gkcls-7" d="M197.53 42.89a61.71 61.71 0 0 0-23.34 12.59c-3.7 3.18-7.25 6.94-12 8.17-3.32.86-7 .37-10.08 1.85-2.46 1.17-4.35 3.49-7 4.13s-5.23-.5-7.85-.93a15.31 15.31 0 0 0-13.51 4.72c3.44 10.25 14.67 16.06 20.09 25.42 4.83-3.54 7.18-8.7 12-12.28 2.91-2.16 6.34-3.5 9.52-5.26s6.24-4.11 7.63-7.46c6.23-.89 11.73-5.59 15.84-10.36s7.59-10.13 12.43-14.15c.17-2.44-1.67-5.13-3.73-6.44Z"/><path class="gkcls-3" d="M199.3 42.48a23.41 23.41 0 0 1 1.5-11.23 3.08 3.08 0 0 1 .81-1.3 1.18 1.18 0 0 1 1.42-.13 1.75 1.75 0 0 1 .48 1.34l.22 3.68c2-.35 3.85-1.94 5.25-3.46s2.84-3.14 4.81-3.73c.48-.15 1.1-.18 1.37.24s0 .91-.19 1.33a30.32 30.32 0 0 1-4 5.52 8.64 8.64 0 0 1 4.15 7.82 23.09 23.09 0 0 1-12.72 5.63Z"/><path class="gkcls-3" d="M210.18 35.56a46.15 46.15 0 0 1 6.82-5.65 3 3 0 0 1 1.34-.55 1.16 1.16 0 0 1 1.2.65 1.68 1.68 0 0 1-.43 1.48 39.08 39.08 0 0 1-7.23 7.91Z"/><path class="gkcls-3" d="M212.05 38.42a45.9 45.9 0 0 1 8-3.81 3.06 3.06 0 0 1 1.43-.21 1.17 1.17 0 0 1 1 .92 1.69 1.69 0 0 1-.78 1.33 38.64 38.64 0 0 1-8.94 5.91Z"/><path class="gkcls-3" d="M212 41.55a37 37 0 0 1 7-.85 2.34 2.34 0 0 1 1.14.21.92.92 0 0 1 .53.94c-.09.42-.53.65-.93.82a31.07 31.07 0 0 1-8.25 2.2Z"/><path class="gkcls-12" d="M205.69 37.74c-.28-1-.91-2.36-1.88-2.78.23.46.61.83.86 1.27a6.14 6.14 0 0 1 .65 1.54 6 6 0 0 1 0 3.35 6.05 6.05 0 0 1-4.54 4.08c-.28.06-.16.48.11.42a6.44 6.44 0 0 0 4.81-4.4 6.24 6.24 0 0 0-.01-3.48ZM210.45 42a17.61 17.61 0 0 0-.84-2.64 18 18 0 0 0-2.74-4.54c-.1-.12-.32 0-.22.17a18.79 18.79 0 0 1 2.53 4.66 19.42 19.42 0 0 1 .74 2.5c.09.42.17.85.24 1.28a11.39 11.39 0 0 0 .17 1.29c.08.28.46.19.49-.07a8.57 8.57 0 0 0-.37-2.65ZM210.55 39.32c-.18-.92-.4-1.85-.67-2.75h-.08c.07.92.2 1.83.35 2.74.07.47.16.93.24 1.4s.15.94.28 1.39c.06.2.39.17.37 0a23.49 23.49 0 0 0-.49-2.78Z"/><path class="gkcls-3" d="M195.53 43.27a22 22 0 0 1 5.47 6.87 5.52 5.52 0 0 0 4.92-3.44 13.32 13.32 0 0 0-5-7.4 6.84 6.84 0 0 0-5.39 3.97Z"/><path class="gkcls-12" d="M205.39 47.62a24.77 24.77 0 0 0-2.65-4.42 24.07 24.07 0 0 0-1.59-1.89 8.46 8.46 0 0 0-1.9-1.63s-.1 0-.07.07c.46.63 1.06 1.18 1.58 1.76s1.16 1.32 1.68 2a24.11 24.11 0 0 1 2.56 4.33c.14.24.51.03.39-.22Z"/><path class="gkcls-7" d="M101.73 79.53a16.28 16.28 0 0 0-27.54 1.54 46.93 46.93 0 0 0-23.63 6.09c-1.61 1-3.29 2.18-3.68 4-.54 2.59 2.74 9 5.06 10.3 5.16 2.82 12.57 2 18.44 1.92s8-3.16 13.79-2.52c4.41.49 10.27 1.44 14.71 1.39 2.51 0 5.35-.69 6.62-2.87a7.87 7.87 0 0 0 .71-4.49c-.34-5.61-1.21-10.77-4.48-15.36Z"/><path class="gkcls-9" d="M104.28 81a13.23 13.23 0 0 0-3-3 31.52 31.52 0 0 0-3.7-2.44 31.06 31.06 0 0 0-3.85-1.87c-.69-.28-1.39-.52-2.09-.75a2.55 2.55 0 0 0-1.45-.22h-.06A.19.19 0 0 0 90 73c.34.49 1 .59 1.58.79s1.21.48 1.8.74a39.45 39.45 0 0 1 3.83 2 40 40 0 0 1 3.45 2.32c1.1.83 2.12 1.79 3.28 2.51a.25.25 0 0 0 .34-.36Z"/><path class="gkcls-9" d="M103 82a5 5 0 0 0-1-1l-1.19-1c-.79-.65-1.58-1.28-2.38-1.91-.17-.13-.41.13-.26.28.73.72 1.45 1.43 2.2 2.13.36.34.73.68 1.11 1a4.85 4.85 0 0 0 1.19.93.29.29 0 0 0 .33-.43ZM72.35 90a12 12 0 0 0-3.24-3.37 11.14 11.14 0 0 0-9.25-1.56 9.08 9.08 0 0 0-4.7 2.72c-.07.08 0 .22.12.15a14.7 14.7 0 0 1 5.39-2.43 10.93 10.93 0 0 1 5.78.5 10.76 10.76 0 0 1 4.47 3.27 10.65 10.65 0 0 1 1.48 2.36c.43.9.65 1.87 1 2.8a.23.23 0 0 0 .45-.06 8.1 8.1 0 0 0-1.5-4.38ZM61.46 103a5.84 5.84 0 0 1-2.16-2.14 5.18 5.18 0 0 1-.45-3.46 18.21 18.21 0 0 1 1-3.21c.44-1 1-2.07 1.4-3.13 0-.12-.14-.17-.2-.08-1.58 2.07-2.85 4.56-2.59 7.22a6.86 6.86 0 0 0 .89 3.06 4 4 0 0 0 2.11 1.83.05.05 0 0 0 0-.09Z"/><path class="gkcls-9" d="M69.89 88a7.07 7.07 0 0 0-.39-.84 8.19 8.19 0 0 0-1-1.5 8.28 8.28 0 0 0-1.33-1.25 7.18 7.18 0 0 0-.79-.52 2.11 2.11 0 0 0-.76-.31.06.06 0 0 0 0 .1 3.53 3.53 0 0 0 .65.48c.25.17.48.35.71.54a8.59 8.59 0 0 1 2.17 2.71c.13.25.25.5.36.76s.13.62.33.79a.22.22 0 0 0 .36-.09c-.01-.29-.2-.64-.31-.87Z"/><path class="gkcls-3" d="M68.07 87.61a11.08 11.08 0 0 1 10.41.93c3 2.11 4.46 6.27 3 9.62a2.27 2.27 0 0 1-.76 1.08c-1 .73-2.5-.26-3.07-1.41s-.76-2.51-1.66-3.42c-1.56-1.58-4.36-.82-5.94.74s-2.46 3.7-3.93 5.36-4 2.81-5.88 1.59c-2.33-1.52-1.7-4.87-.62-6.95a12.5 12.5 0 0 1 1.62-2.08 25.07 25.07 0 0 1 2.81-3 14.12 14.12 0 0 1 4.02-2.46Z"/><path class="gkcls-3" d="M71.06 92.15c1.47-.34 2.81 1 3.64 2.56 4.62 8.67-.92 7.7-1.31 7.3l-2.93-3a7.55 7.55 0 0 1-1.7-2.26 4.65 4.65 0 0 1 .86-4.87"/><path class="gkcls-3" d="M67 95.91c1.47-.34 2.81 1 3.64 2.57 4.62 8.67-.92 7.7-1.32 7.3l-2.92-3a7.26 7.26 0 0 1-1.71-2.25 4.67 4.67 0 0 1 .87-4.87"/><path class="gkcls-3" d="M65.29 99.64c.94.06 1.4 1.29 1.5 2.56.54 7.09-2.47 5.26-2.6 4.89-.32-.89-.65-1.79-1-2.69a5.74 5.74 0 0 1-.44-2 4.05 4.05 0 0 1 1.72-3.26"/><path class="gkcls-9" d="M85 90.43a11.18 11.18 0 0 0-2.07-2.68 23.34 23.34 0 0 0-2.59-2.38 20.36 20.36 0 0 0-5.9-3.25c-.06 0-.11.09 0 .12a25.47 25.47 0 0 1 5.82 3.49A20.94 20.94 0 0 1 82.6 88c.38.41.75.83 1.1 1.26s.67 1 1.07 1.39c.12.08.3-.08.23-.22Z"/><path class="gkcls-9" d="M83.17 89.33a11.71 11.71 0 0 0-.92-.8l-.94-.79c-.13-.1-.3.08-.18.18l1 .79a10.22 10.22 0 0 0 1 .78.1.1 0 0 0 .04-.16ZM180.39 51.43a19.19 19.19 0 0 0-4.65 2.46 37.93 37.93 0 0 0-4.11 3.39 36.32 36.32 0 0 0-6.61 8.4 29.62 29.62 0 0 0-2.44 5.53c-.08.24.3.42.41.18a40.85 40.85 0 0 1 12.7-16.26c1.58-1.17 3.23-2.25 4.84-3.37.15-.11.06-.41-.14-.33ZM152.48 75.21a16.66 16.66 0 0 0-6.19-4.21 19.59 19.59 0 0 0-7.42-1.65c-.15 0-.14.22 0 .24a24 24 0 0 1 7.31 1.92 22.37 22.37 0 0 1 3.14 1.74c1 .68 2 1.48 2.93 2.22.19.17.36-.11.23-.26ZM148.64 81.35c-.74 3-1.44 6-2.14 9-.35 1.48-.7 3-1 4.45a19.3 19.3 0 0 0-.82 4.44c0 .19.3.29.39.1a18.94 18.94 0 0 0 1.1-4.23c.33-1.53.63-3.07 1-4.6.62-3 1.24-6.06 1.82-9.1.01-.16-.31-.24-.35-.06Z"/><path class="gkcls-3" d="M250.57 15.89a17.44 17.44 0 0 0-8.28-13.33A17.37 17.37 0 0 0 238.7.88a4.28 4.28 0 0 1 .59.53 5 5 0 0 0-.59-.53 17.51 17.51 0 0 0-10.23-.22 1.15 1.15 0 0 0-.12.25 1.15 1.15 0 0 1 .12-.25 17.49 17.49 0 0 0-10.25 7.94c0 .12 0 .23.05.34 0-.11 0-.22-.05-.34-.08.13-.15.26-.22.39a17.22 17.22 0 0 0-2.16 7.52c.18-.29.17-.29 0 0V17.94A17.35 17.35 0 0 0 220.28 29c.13.15.26.3.4.44s.31.32.48.47a17.46 17.46 0 0 0 6.66 4l.44.13a17.34 17.34 0 0 0 13.09-1.29l.41-.23.36-.2a17.68 17.68 0 0 0 6.29-6.45 17.33 17.33 0 0 0 2.22-9c-.01-.32-.03-.65-.06-.98Z"/><path class="gkcls-5" d="M250.57 15.89a17.45 17.45 0 0 0-5-10.78 17.92 17.92 0 0 0-3.25-2.55 2.26 2.26 0 0 0-.35-.17 12 12 0 0 0-2.57-.94 2.44 2.44 0 0 0-.29-.27l-.3-.26a17.22 17.22 0 0 0-6-.87 17.71 17.71 0 0 0-4.22.65.35.35 0 0 0-.07.12 2.65 2.65 0 0 0-.21 1.11 3.74 3.74 0 0 0-.45.22c-.27.12-.53.28-.79.42A14 14 0 0 0 225 3.88a13.4 13.4 0 0 0-2.51 2.77 10.07 10.07 0 0 0-1.9.62A6 6 0 0 0 218.28 9a2.14 2.14 0 0 1-.06-.35L218 9v.32a9.26 9.26 0 0 0-1.17 2.56 10.35 10.35 0 0 0-.41 3.83 4.49 4.49 0 0 0-.44.57.66.66 0 0 1-.08.13.35.35 0 0 1-.06.09v.62a.54.54 0 0 1 .05-.11 5 5 0 0 1 .65-1l.43.41a7.45 7.45 0 0 0 2.56 1.37 20.33 20.33 0 0 0 1 3.64c.17.49.38 1 .6 1.46a20 20 0 0 0 1.16 2.19 10.1 10.1 0 0 0-.67 4.21h-.3a4.53 4.53 0 0 1-1-.26l.4.44a4 4 0 0 0 .6.11 2.22 2.22 0 0 0 .37 0 3.94 3.94 0 0 0 .63.85 11.19 11.19 0 0 0 5.29 2.91 2.29 2.29 0 0 0 .24.58 4.43 4.43 0 0 0 .44.14 2.11 2.11 0 0 1-.37-.64s0 0 0-.07a6.31 6.31 0 0 0 .79-.1 7.08 7.08 0 0 0 3-1.39l.28-.24.3-.27.46.14a10.24 10.24 0 0 0 2.88.25l.91-.06a16.89 16.89 0 0 0 3.31-.68 5.11 5.11 0 0 0 1.66 1.42 2.11 2.11 0 0 1-.16.34 3.93 3.93 0 0 0 .41-.21.49.49 0 0 1 .06-.13l.29-.08a17.5 17.5 0 0 0 6.3-6.46 5.21 5.21 0 0 0 .14-2c.23-.38.44-.77.63-1.16a12.26 12.26 0 0 0 .87-2.49 13.54 13.54 0 0 0 .32-4.16 1.18 1.18 0 0 0 .2-.18ZM235.66 2.65a7.44 7.44 0 0 1 3.33-1 12.82 12.82 0 0 1 2.88 1c.35.17.68.37 1 .57a11.5 11.5 0 0 1 1 .71 16 16 0 0 1 1.94 1.79c.26.28.54.59.8.91a6.36 6.36 0 0 1 .73 4c0 .1-.05.18-.07.27-1 .33-2.09.63-3.16.94l-1.65.45c-.1-.11-.21-.21-.33-.32a15 15 0 0 0-5.53-3.36 25.5 25.5 0 0 0-.6-3.13c-.1-.38-.2-.74-.32-1.1a9.18 9.18 0 0 0-.53-1.31 2.16 2.16 0 0 1 .51-.42ZM225.21 4.1A14.71 14.71 0 0 1 227 2.85l.79-.43c.28-.14.57-.27.87-.4a15.87 15.87 0 0 1 2.18 0 9.32 9.32 0 0 1 4.09 1.1 13.16 13.16 0 0 1 .85 2.42 24.05 24.05 0 0 1 .57 3.11l-.48.27a21.86 21.86 0 0 0-4.71 3.83l-.18.18a27.78 27.78 0 0 0-2.91-.6l-.59-.09h-.21c-1.1-.16-2.22-.26-3.34-.32a13 13 0 0 1-1.16-5.1 12.8 12.8 0 0 1 2.44-2.72Zm-4.16 18.07c-.11-.26-.22-.53-.31-.79a21.26 21.26 0 0 1-.93-3.46 15.19 15.19 0 0 1 1.05-2.26 11.46 11.46 0 0 1 3-3.48c1.14.06 2.28.17 3.41.33h.16l.64.1c.93.15 1.83.34 2.73.56a125.077 125.077 0 0 0 2.64 6.64 34.93 34.93 0 0 1-1.94 3.07l-.05.07c-.69 1-1.45 2-2.23 3h-1.54a16.35 16.35 0 0 1-5.26-1.1 18.63 18.63 0 0 1-1.37-2.68Zm21.58 5.74a9.79 9.79 0 0 1-2.37 2.68 15.27 15.27 0 0 1-3.73.84c-.3 0-.62 0-.91.06a11.81 11.81 0 0 1-2.19-.11 4.63 4.63 0 0 1-1.1-.29c-.23-.27-.45-.55-.67-.83a13.46 13.46 0 0 1-2.2-4.18c.7-.88 1.36-1.75 2-2.64l.26-.37c.7-1 1.33-2 1.91-3 .84 0 1.7.06 2.56 0a42.17 42.17 0 0 0 4.51-.34 17.14 17.14 0 0 1 1.76 2.37l.15.23a18 18 0 0 1 1.17 2.37c.05.15.12.29.17.42a12.36 12.36 0 0 1-1.32 2.79Zm7.14-7.66a12.26 12.26 0 0 1-.61 1.89 12.72 12.72 0 0 1-.85 1.69 8.45 8.45 0 0 1-3.78 1.27h-.29c-.08-.23-.16-.44-.26-.66a16.43 16.43 0 0 0-1.13-2.26c-.13-.22-.27-.44-.41-.64a14.59 14.59 0 0 0-1.44-1.89 20.28 20.28 0 0 0 1.28-4.06 18.62 18.62 0 0 0 .36-3c.51-.14 1-.27 1.52-.42 1.08-.3 2.14-.61 3.19-.94a1.25 1.25 0 0 0 .12.08 5.8 5.8 0 0 1 1.44 1.7 11.46 11.46 0 0 1 1.17 2.76 14.12 14.12 0 0 1-.31 4.48Z"/><path d="M250.63 16.89a17.33 17.33 0 0 1-2.22 9 17.68 17.68 0 0 1-6.29 6.45l-.36.2-.41.23a17.34 17.34 0 0 1-13.09 1.29l-.44-.13a17.46 17.46 0 0 1-6.66-4c.37.19.74.36 1.12.51a18.2 18.2 0 0 0 7.54 1.38 19.26 19.26 0 0 0 2.16-.19l.76-.13c.23-.05.46-.09.69-.15a18.3 18.3 0 0 0 10.34-6.65l.2-.27A18.21 18.21 0 0 0 247.58 13a16 16 0 0 0-.14-1.71c0-.21-.05-.42-.08-.64a18.14 18.14 0 0 0-1.53-4.93c-.1-.21-.19-.41-.3-.62a17.39 17.39 0 0 1 5 10.78c.07.34.09.67.1 1.01Z" style="mix-blend-mode:multiply" fill="#dadada" fill-rule="evenodd"/></g></g></g></svg>