<svg xmlns="http://www.w3.org/2000/svg" viewBox="0 0 1356 395.23"><defs><style>.cls-1{fill:#0f172a}.cls-5{fill:#e5dfff}.cls-12{stroke:#fff}.cls-10,.cls-12,.cls-17,.cls-18{stroke-miterlimit:10}.cls-3{fill:#ac9fff}.cls-4{fill:#15005f}.cls-6{fill:#1e293b}.cls-7{fill:#e2e8f0}.cls-8{fill:#9ca3af}.cls-17,.cls-9{fill:#fff}.cls-10,.cls-12,.cls-18{fill:none}.cls-10{stroke:#9ca3af}.cls-12,.cls-17,.cls-18{stroke-width:0.5px}.cls-17,.cls-18{stroke:#000}.cls-19{fill:#334155}@keyframes rotate-banner{from{transform:rotate(0deg)}to{transform:rotate(360deg)}}</style></defs><g id="Layer_2" data-name="Layer 2"><g id="Layer_1-2" data-name="Layer 1"><path class="cls-1" d="M0 0h1356v395.23H0z"/><path d="M1302 169.54c-8.1-24-30.93-9.38-30.93-9.38l-.88-7c-24.12-9.89-48.2-7.17-62.49-3.9l-13.06 3.89-1 5.17c-.63-.26-17.49-7.1-25.76 2.77-3.89 3.57-4.93 8.14-4.39 12.89 0 .78-.13 12.85 16.24 29.75 1.35 1.4 2.82 2.84 4.42 4.3s3.31 3 5.16 4.48c2.64 2.17 5.55 4.4 8.76 6.66 1.28.91 2.62 1.82 4 2.74s2.81 1.85 4.29 2.78c.46.71 7.82 11.87 16.76 16.25a.2.2 0 0 0 .08 0l-.35 8.28s-.31 1 1.09 1.43a2.4 2.4 0 0 0 .64.29h.88a1.87 1.87 0 0 0 .47 0h.06c.61.06-.34 4.21-1.69 9.15-2 7.22-4.82 16.13-4.91 16.4l-4.14 3.79a.28.28 0 0 1 0 .06v.14a.44.44 0 0 1 0 .1l-.06.22c-.35 1.2-1.34 4.11-3 4.65-2.07.35-7.93.69-7.93.69a12.09 12.09 0 0 0-3.79 5.18s0 1.72-2.07 4.13a3.75 3.75 0 0 0 1.23 2.05 7.75 7.75 0 0 0 1 .87c1.07 1.1 2.37 2.06 3.61 1.91 4.6 1.79 12.8 3.31 27.42 2.93 32.57-.86 33.61-8.45 33.61-8.45s.69-.34-1.73-2.41c0 0-1.72-8.62-11-6.9 0 0-12.19-13.32-13.85-31l.75-1.1-.12-3-11 .48 12.13-.53v-8.62q2.41-1.47 4.26-2.79c8.76-6.25 8.49-10 8.49-10 56.87-30.53 48.8-59.35 48.8-59.35Z" style="stroke-width:3px;stroke-miterlimit:10;stroke:#fff;fill:#e5dfff"/><path class="cls-3" d="m1228.31 250.94 12.13-.53v-6.58h-12.76c-3.03 4.93-.51 6.62.63 7.11ZM1226 251ZM1224.58 251.1h.88a5.36 5.36 0 0 1-1.52-.25 2.4 2.4 0 0 0 .64.25ZM1215.14 280.92c-.35 1.2-1.34 4.11-3 4.65 1.67-.27 2.67-3.39 3-4.65ZM1200.62 298.49a8.13 8.13 0 0 0-1-.87 7.75 7.75 0 0 0 1 .87Z"/><path class="cls-3" d="M1236.82 252.63a13.28 13.28 0 0 1-8.45 1.23l-.69 8.1v3.51l-5.86 13.9a23.41 23.41 0 0 0-6.2 7.93l5.43 4.48c-19.74-3.1-14.26 2.3-14.26 2.3l-2.55 6.32c4.6 1.79 12.8 3.31 27.42 2.93 32.57-.86 33.61-8.45 33.61-8.45s.69-.34-1.73-2.41c0 0-1.72-8.62-11-6.9 0 0-12.19-13.32-13.85-31l.75-1.1-.12-3-11 .48a2.78 2.78 0 0 0 .47.16Zm22.23 39.15 1.38 1.55-6.2 2.93h-3.08l-4.16 1.79-8.28-.06-1.89-3.11H1247Zm-19.87-26.31-.12 2.18 7.93 17.92-3.8 3.45-5.17-1.38-2.07-5.86-1.37-24.13h1.08Z"/><path class="cls-4" d="M1167.78 161.13c-3.89 3.57-4.93 8.14-4.39 12.89V174c.41-6 2.06-10.09 4.39-12.87Z"/><path class="cls-3" d="M1202 222c-1.38-.92-2.72-1.83-4-2.74 1.25.86 2.59 1.74 4 2.74ZM1302 169.54c-8.1-24-30.93-9.38-30.93-9.38l-.88-7c-24.12-9.89-48.2-7.17-62.49-3.9-3.47 7.13 4.84 52.16 5.53 62.16s11.27 20.28 11.27 20.28l10.11 4 2.24-.82 7.06.68.82 3.41-4.26 2.79q2.41-1.47 4.26-2.79c8.76-6.25 8.49-10 8.49-10 56.85-30.61 48.78-59.43 48.78-59.43Zm-48.78 43.64c-8.62 3.79-8.27-3.45-8.27-3.45l2.76-57.91c20-.35 18.27 5.51 18.27 5.51.69 16.55-6.21 45.51-6.21 45.51-1.41 9.31-6.58 10.34-6.58 10.34Zm7.24 4.83s9.65-36.55 9.31-50.33c0 0 14.13-14.14 25.85-.69-.03.01 8.25 25.16-35.19 51.01ZM1206.26 224.73q-2.26-1.39-4.26-2.73 2.07 1.38 4.29 2.78Z"/><path class="cls-4" d="M1226.01 251.04h.01l2.29-.1-2.3.1zM1219.41 276.6c2.12-4.41 3.79-11 4.91-16.4-1.98 7.22-4.82 16.13-4.91 16.4ZM1204.24 286.26s5.86 0 7.93-.69c-2.07.35-7.93.69-7.93.69ZM1225.47 251.06a1.87 1.87 0 0 0 .47 0h-.51ZM1204.23 300.4a16.08 16.08 0 0 1-3.61-1.91c1.06 1.1 2.38 2.06 3.61 1.91ZM1206.29 224.77c.46.71 7.82 11.87 16.76 16.25-1.19-.65-9.18-5.3-16.76-16.25ZM1179.63 203.77c-.88-1.17-1.75-2.39-2.62-3.69 0 0-12.22-13.63-13.62-26.06 0 .78-.13 12.85 16.24 29.75a112.53 112.53 0 0 0 9.58 8.78 112.53 112.53 0 0 1-9.58-8.78ZM1193.54 158.36c-.63-.26-17.49-7.1-25.76 2.77a18.47 18.47 0 0 1 3.36-2.42s5.52-6.2 22.4-.35ZM1222.86 249.38s-.32 1 1.08 1.43a2.3 2.3 0 0 1-1.08-1.43Z"/><path class="cls-4" d="M1222.86 249.38a2.3 2.3 0 0 0 1.08 1.43 5.36 5.36 0 0 0 1.52.25h.51l2.3-.1c-1.14-.49-3.66-2.18-.63-7.11h12.76v-2l-17.24-.69ZM1224.33 260.19c-1.12 5.38-2.79 12-4.91 16.4l-4.14 3.79a.28.28 0 0 1 0 .06v.14a.44.44 0 0 1 0 .1l-.06.22c-.33 1.26-1.33 4.38-3 4.65-2.07.69-7.93.69-7.93.69a12.09 12.09 0 0 0-3.79 5.18s0 1.72-2.07 4.13a3.75 3.75 0 0 0 1.23 2.05 8.13 8.13 0 0 1 1 .87 16.08 16.08 0 0 0 3.61 1.91l2.55-6.32s-5.48-5.4 14.26-2.3l-5.43-4.48a23.41 23.41 0 0 1 6.2-7.93l5.86-13.9V262l.69-8.1a13.28 13.28 0 0 0 8.45-1.23l-8-1.53a2.78 2.78 0 0 1-.47-.16l-2.29.1c.54.02-.41 4.17-1.76 9.11ZM1243.88 235.59l-7.06-.68-2.24.82-10.11-4s-10.58-10.29-11.27-20.28-9-55-5.53-62.16l-13.06 3.89-1 5.17c-16.88-5.85-22.4.35-22.4.35a18.47 18.47 0 0 0-3.36 2.42c-2.33 2.78-4 6.89-4.39 12.84v.04c1.4 12.43 13.62 26.06 13.62 26.06.87 1.3 1.74 2.52 2.62 3.69a112.53 112.53 0 0 0 9.58 8.78c2.64 2.17 5.55 4.4 8.76 6.66 1.28.91 2.62 1.82 4 2.74s2.81 1.85 4.29 2.78c7.58 10.95 15.57 15.6 16.76 16.25a.2.2 0 0 0 .08 0l17.24.69 4.26-2.79Zm-73.77-68.26c7.58-14.82 22.75-2.07 22.75-2.07l1.38 1.73c-1 17.23 10 50.33 10 50.33-45.51-32.41-34.13-49.99-34.13-49.99Z"/><path class="cls-5" d="M1266 157.33s1.72-5.86-18.27-5.51l-2.76 57.91s-.35 7.24 8.27 3.45c0 0 5.17-1 6.55-10.34-.05 0 6.85-28.96 6.21-45.51Z"/><path class="cls-1" d="M1295.59 167c-11.72-13.45-25.85.69-25.85.69.34 13.78-9.31 50.33-9.31 50.33 43.44-25.87 35.16-51.02 35.16-51.02ZM1194.24 167l-1.38-1.73s-15.17-12.75-22.75 2.07c0 0-11.38 17.58 34.13 50 0-.02-11.03-33.12-10-50.34Z"/><path class="cls-5" d="m1234.58 257.65 1.37 24.13 2.07 5.86 5.17 1.38 3.8-3.45-7.93-17.92.12-2.18-3.52-7.82h-1.08zM1236.82 294.88l1.89 3.11 8.28.06 4.16-1.79h3.08l6.2-2.93-1.38-1.55-12.06 3.1h-10.17z"/><path class="cls-6" d="M25.25 155.72h167.5v32H25.25z"/><path class="cls-7" d="M193.25 155.72h32v32h-32z"/><path class="cls-8" d="M39.93 172.79a4.16 4.16 0 0 1-1.33 2.78 4.34 4.34 0 0 1-3 1 4 4 0 0 1-3.23-1.44 5.82 5.82 0 0 1-1.21-3.87v-1.09a6.44 6.44 0 0 1 .56-2.79 4.23 4.23 0 0 1 1.61-1.85 4.44 4.44 0 0 1 2.4-.64 4.09 4.09 0 0 1 2.91 1 4.22 4.22 0 0 1 1.27 2.8h-1.5a3.38 3.38 0 0 0-.85-2 2.62 2.62 0 0 0-1.83-.61 2.67 2.67 0 0 0-2.25 1.07 4.82 4.82 0 0 0-.82 3v1.1a5 5 0 0 0 .78 2.95 2.49 2.49 0 0 0 2.16 1.1 2.89 2.89 0 0 0 1.92-.57 3.19 3.19 0 0 0 .89-2ZM41.76 165.7a.83.83 0 0 1 .22-.59.79.79 0 0 1 .63-.24.82.82 0 0 1 .64.24.83.83 0 0 1 .22.59.82.82 0 0 1-.22.59.85.85 0 0 1-.64.23.78.78 0 0 1-.85-.82Zm1.56 10.7h-1.44v-8.46h1.44ZM48.43 174.44l2.09-6.5H52l-3 8.46h-1.1l-3.06-8.46h1.48ZM53.39 165.7a.88.88 0 0 1 .22-.59.8.8 0 0 1 .64-.24.83.83 0 0 1 .64.24.87.87 0 0 1 .21.59.85.85 0 0 1-.21.59.86.86 0 0 1-.64.23.83.83 0 0 1-.64-.23.86.86 0 0 1-.22-.59ZM55 176.4h-1.49v-8.46H55ZM58.84 176.4h-1.45v-12h1.45ZM72.42 176.4H65v-1l3.9-4.4a9.62 9.62 0 0 0 1.21-1.61 2.69 2.69 0 0 0 .33-1.29 2 2 0 0 0-.54-1.46 1.89 1.89 0 0 0-1.44-.57 2.23 2.23 0 0 0-1.67.62 2.32 2.32 0 0 0-.6 1.7h-1.44a3.35 3.35 0 0 1 1-2.54 3.75 3.75 0 0 1 2.7-1 3.57 3.57 0 0 1 2.51.83 2.8 2.8 0 0 1 .92 2.21c0 1.12-.71 2.46-2.14 4l-3 3.31h5.71Z"/><path class="cls-6" d="M25.25 187.22h167.5v32H25.25z"/><path class="cls-7" d="M193.25 187.22h32v32h-32z"/><path class="cls-9" d="M38 202.64h-4.93v4h5.72v1.23h-7.22v-11.35h7.14v1.23h-5.64v3.66H38ZM42 207.9h-1.44v-12H42ZM47.82 208.05a3.66 3.66 0 0 1-2.82-1.13 4.16 4.16 0 0 1-1.08-3v-.27a5.09 5.09 0 0 1 .48-2.25 3.74 3.74 0 0 1 1.34-1.54 3.33 3.33 0 0 1 1.87-.56 3.19 3.19 0 0 1 2.57 1.08 4.71 4.71 0 0 1 .91 3.11v.6h-5.7a3 3 0 0 0 .73 2 2.28 2.28 0 0 0 1.78.77 2.53 2.53 0 0 0 1.3-.31 3.31 3.31 0 0 0 .93-.83l.88.69a3.55 3.55 0 0 1-3.19 1.64Zm-.18-7.57a1.92 1.92 0 0 0-1.46.63 3.07 3.07 0 0 0-.74 1.79h4.24v-.11a2.76 2.76 0 0 0-.6-1.71 1.81 1.81 0 0 0-1.44-.6ZM56.18 206.87a2.07 2.07 0 0 0 1.35-.46 1.7 1.7 0 0 0 .65-1.18h1.36a2.56 2.56 0 0 1-.5 1.39 3.39 3.39 0 0 1-1.23 1 3.53 3.53 0 0 1-1.63.39 3.46 3.46 0 0 1-2.74-1.15 4.59 4.59 0 0 1-1-3.15v-.24a5.12 5.12 0 0 1 .45-2.2 3.44 3.44 0 0 1 1.3-1.49 3.74 3.74 0 0 1 2-.53 3.39 3.39 0 0 1 2.36.85 3 3 0 0 1 1 2.21h-1.37a2 2 0 0 0-.63-1.35 1.92 1.92 0 0 0-1.37-.52 2 2 0 0 0-1.71.79 3.68 3.68 0 0 0-.61 2.29v.27a3.63 3.63 0 0 0 .6 2.25 2 2 0 0 0 1.72.83ZM63.13 197.4v2h1.58v1.12h-1.58v5.25a1.17 1.17 0 0 0 .21.76.89.89 0 0 0 .72.26 3.22 3.22 0 0 0 .69-.1v1.17a4.35 4.35 0 0 1-1.11.15 1.78 1.78 0 0 1-1.46-.58 2.52 2.52 0 0 1-.5-1.67v-5.24h-1.54v-1.12h1.54v-2ZM70.48 200.74a4 4 0 0 0-.71-.05 1.9 1.9 0 0 0-1.93 1.21v6h-1.45v-8.46h1.41v1a2.27 2.27 0 0 1 2-1.13 1.39 1.39 0 0 1 .64.11ZM71.82 197.2a.87.87 0 0 1 .21-.59.82.82 0 0 1 .64-.24.83.83 0 0 1 .64.24.88.88 0 0 1 .22.59.78.78 0 0 1-.86.82.76.76 0 0 1-.85-.82Zm1.56 10.7h-1.45v-8.46h1.45ZM79.08 206.87a2.07 2.07 0 0 0 1.35-.46 1.65 1.65 0 0 0 .64-1.18h1.37a2.65 2.65 0 0 1-.5 1.39 3.39 3.39 0 0 1-1.23 1 3.56 3.56 0 0 1-1.63.39 3.46 3.46 0 0 1-2.74-1.15 4.59 4.59 0 0 1-1-3.15v-.24a5.12 5.12 0 0 1 .45-2.2 3.38 3.38 0 0 1 1.3-1.49 3.71 3.71 0 0 1 2-.53 3.4 3.4 0 0 1 2.37.85 3.06 3.06 0 0 1 1 2.21h-1.39a2 2 0 0 0-.62-1.35 1.93 1.93 0 0 0-1.38-.52 2 2 0 0 0-1.7.79 3.68 3.68 0 0 0-.61 2.29v.27a3.63 3.63 0 0 0 .6 2.25 2 2 0 0 0 1.72.83ZM89.28 207.9a3.19 3.19 0 0 1-.2-.89 3.23 3.23 0 0 1-2.4 1 3 3 0 0 1-2.06-.7 2.3 2.3 0 0 1-.8-1.8 2.4 2.4 0 0 1 1-2.05 4.78 4.78 0 0 1 2.82-.73h1.41v-.66a1.6 1.6 0 0 0-.46-1.21 1.8 1.8 0 0 0-1.33-.45 2.11 2.11 0 0 0-1.3.39 1.15 1.15 0 0 0-.52.95H84a2 2 0 0 1 .44-1.22 3.05 3.05 0 0 1 1.22-.94 4.12 4.12 0 0 1 1.69-.34 3.32 3.32 0 0 1 2.29.73 2.61 2.61 0 0 1 .86 2v3.89a4.7 4.7 0 0 0 .3 1.85v.13Zm-2.39-1.1a2.52 2.52 0 0 0 1.29-.36 2.08 2.08 0 0 0 .88-.91v-1.73h-1.13c-1.78 0-2.66.51-2.66 1.55a1.31 1.31 0 0 0 .45 1.06 1.72 1.72 0 0 0 1.17.39ZM94.34 207.9h-1.45v-12h1.45ZM100.84 207.9v-11.38h3.72a4.31 4.31 0 0 1 2.78.77 2.73 2.73 0 0 1 .94 2.26 2.25 2.25 0 0 1-.46 1.41 2.88 2.88 0 0 1-1.23.95 2.67 2.67 0 0 1 1.46 1 2.89 2.89 0 0 1 .53 1.73 3 3 0 0 1-1 2.4 4.08 4.08 0 0 1-2.81.88Zm1.5-6.53h2.26a2.37 2.37 0 0 0 1.58-.49 1.66 1.66 0 0 0 .59-1.34 1.6 1.6 0 0 0-.55-1.36 2.64 2.64 0 0 0-1.66-.43h-2.22Zm0 1.21v4.09h2.48a2.41 2.41 0 0 0 1.65-.54 1.91 1.91 0 0 0 .6-1.5c0-1.37-.74-2-2.23-2Z"/><path class="cls-6" d="M25.16 238.72h167.58v32H25.16z"/><path class="cls-7" d="M193.25 238.72h32v32h-32z"/><path class="cls-9" d="M31.57 259.4V248h3.71a4.32 4.32 0 0 1 2.79.77 2.75 2.75 0 0 1 .93 2.26 2.3 2.3 0 0 1-.45 1.41 2.88 2.88 0 0 1-1.23.95 2.61 2.61 0 0 1 1.45 1 2.83 2.83 0 0 1 .54 1.73 3 3 0 0 1-1 2.4 4.1 4.1 0 0 1-2.81.88Zm1.5-6.53h2.26a2.39 2.39 0 0 0 1.58-.49 1.67 1.67 0 0 0 .59-1.38 1.63 1.63 0 0 0-.55-1.36 2.67 2.67 0 0 0-1.67-.43h-2.21Zm0 1.21v4.09h2.47a2.38 2.38 0 0 0 1.65-.54 1.89 1.89 0 0 0 .61-1.5c0-1.37-.74-2-2.23-2ZM41.31 248.7a.87.87 0 0 1 .21-.59.86.86 0 0 1 1.5.59.82.82 0 0 1-.22.59 1 1 0 0 1-1.28 0 .85.85 0 0 1-.21-.59Zm1.56 10.7h-1.44v-8.46h1.44ZM44.8 255.09a4.91 4.91 0 0 1 .49-2.23 3.62 3.62 0 0 1 1.36-1.53 3.69 3.69 0 0 1 2-.54 3.58 3.58 0 0 1 2.78 1.21 4.62 4.62 0 0 1 1.07 3.18v.1a5 5 0 0 1-.48 2.22 3.59 3.59 0 0 1-1.35 1.5 3.77 3.77 0 0 1-2 .54 3.57 3.57 0 0 1-2.78-1.19 4.59 4.59 0 0 1-1.07-3.17Zm1.45.17a3.59 3.59 0 0 0 .66 2.26 2.21 2.21 0 0 0 3.49 0 4 4 0 0 0 .65-2.42 3.6 3.6 0 0 0-.66-2.25 2.18 2.18 0 0 0-3.48 0 3.88 3.88 0 0 0-.66 2.41ZM55.67 250.94v.94a3.1 3.1 0 0 1 2.5-1.09 2.42 2.42 0 0 1 2.42 1.36 3.18 3.18 0 0 1 1.1-1 3.22 3.22 0 0 1 1.59-.37c1.86 0 2.8 1 2.83 2.94v5.67h-1.4v-5.58a1.94 1.94 0 0 0-.42-1.36 1.81 1.81 0 0 0-1.39-.45 1.91 1.91 0 0 0-1.33.48 2 2 0 0 0-.62 1.3v5.61H59.5v-5.54a1.62 1.62 0 0 0-1.81-1.85 1.93 1.93 0 0 0-1.94 1.21v6.18H54.3v-8.46ZM71.84 259.55a3.67 3.67 0 0 1-2.8-1.13 4.17 4.17 0 0 1-1.08-3v-.26a5.09 5.09 0 0 1 .48-2.25 3.76 3.76 0 0 1 1.35-1.54 3.31 3.31 0 0 1 1.87-.56 3.17 3.17 0 0 1 2.56 1.08 4.71 4.71 0 0 1 .92 3.11v.6h-5.73a3 3 0 0 0 .73 2 2.28 2.28 0 0 0 1.78.77 2.47 2.47 0 0 0 1.29-.31 3.06 3.06 0 0 0 .93-.83l.89.69a3.55 3.55 0 0 1-3.19 1.63Zm-.18-7.55a2 2 0 0 0-1.47.64 3.06 3.06 0 0 0-.73 1.79h4.23v-.11a2.75 2.75 0 0 0-.59-1.71 1.85 1.85 0 0 0-1.44-.61ZM76.46 255.1a4.92 4.92 0 0 1 .92-3.13 2.9 2.9 0 0 1 2.41-1.18 2.93 2.93 0 0 1 2.35 1v-4.4h1.45v12h-1.33l-.07-.91a2.93 2.93 0 0 1-2.41 1.06 2.9 2.9 0 0 1-2.4-1.2 5 5 0 0 1-.92-3.14Zm1.44.16a3.71 3.71 0 0 0 .6 2.25 1.9 1.9 0 0 0 1.64.82 2.1 2.1 0 0 0 2-1.24v-3.88a2.11 2.11 0 0 0-2-1.2 1.92 1.92 0 0 0-1.65.82 4.11 4.11 0 0 0-.59 2.43Z"/><path class="cls-6" d="M25.16 270.22h167.58v32H25.16z"/><path class="cls-7" d="M193.25 270.22h32v32h-32z"/><path class="cls-8" d="m33.5 279.52 3.72 9.28 3.72-9.28h2v11.38h-1.5v-4.43l.14-4.78-3.74 9.21h-1.2l-3.72-9.19.15 4.76v4.43h-1.5v-11.38ZM48.82 291.05a3.67 3.67 0 0 1-2.8-1.13 4.17 4.17 0 0 1-1.08-3v-.26a5.09 5.09 0 0 1 .48-2.25 3.69 3.69 0 0 1 1.35-1.54 3.29 3.29 0 0 1 1.87-.56 3.18 3.18 0 0 1 2.56 1.08 4.71 4.71 0 0 1 .91 3.11v.6h-5.72a3 3 0 0 0 .73 2 2.26 2.26 0 0 0 1.77.77 2.5 2.5 0 0 0 1.3-.31 3.31 3.31 0 0 0 .93-.83l.88.69a3.54 3.54 0 0 1-3.18 1.63Zm-.18-7.58a1.93 1.93 0 0 0-1.47.64 3.13 3.13 0 0 0-.74 1.79h4.24v-.11a2.7 2.7 0 0 0-.6-1.71 1.81 1.81 0 0 0-1.43-.61ZM57.18 289.87a2.06 2.06 0 0 0 1.35-.47 1.65 1.65 0 0 0 .64-1.17h1.36a2.56 2.56 0 0 1-.5 1.39 3.23 3.23 0 0 1-1.23 1 3.52 3.52 0 0 1-1.62.39 3.47 3.47 0 0 1-2.75-1.15 4.59 4.59 0 0 1-1-3.15v-.24a5.12 5.12 0 0 1 .45-2.2 3.44 3.44 0 0 1 1.3-1.49 3.77 3.77 0 0 1 2-.53 3.37 3.37 0 0 1 2.36.85 3 3 0 0 1 1 2.21h-1.37a2 2 0 0 0-.62-1.35 2 2 0 0 0-1.38-.53 2 2 0 0 0-1.71.8 3.74 3.74 0 0 0-.61 2.29v.27a3.63 3.63 0 0 0 .61 2.25 2 2 0 0 0 1.72.83ZM63.6 283.47a3.08 3.08 0 0 1 2.5-1.18c1.79 0 2.69 1 2.71 3v5.59h-1.45v-5.6a1.88 1.88 0 0 0-.42-1.35 1.66 1.66 0 0 0-1.27-.44 2.12 2.12 0 0 0-1.24.38 2.64 2.64 0 0 0-.83 1v6h-1.44v-12h1.44ZM76.19 290.9a3.19 3.19 0 0 1-.19-.9 3.26 3.26 0 0 1-2.41 1 3 3 0 0 1-2-.7 2.3 2.3 0 0 1-.8-1.8 2.39 2.39 0 0 1 1-2.05 4.79 4.79 0 0 1 2.83-.73H76v-.66a1.63 1.63 0 0 0-.45-1.21 1.81 1.81 0 0 0-1.33-.45 2.11 2.11 0 0 0-1.3.39 1.16 1.16 0 0 0-.53 1H70.9a2 2 0 0 1 .45-1.23 3.13 3.13 0 0 1 1.22-.93 4.08 4.08 0 0 1 1.69-.34 3.33 3.33 0 0 1 2.29.73 2.65 2.65 0 0 1 .86 2v3.89a4.7 4.7 0 0 0 .3 1.85v.13Zm-2.4-1.1a2.46 2.46 0 0 0 1.29-.36 2.08 2.08 0 0 0 .88-.91v-1.73h-1.13c-1.77 0-2.65.51-2.65 1.55a1.31 1.31 0 0 0 .45 1.06 1.71 1.71 0 0 0 1.16.39ZM81 282.44v1.07a3.05 3.05 0 0 1 2.53-1.22c1.79 0 2.69 1 2.7 3v5.59h-1.35v-5.6a2 2 0 0 0-.42-1.35 1.68 1.68 0 0 0-1.28-.44 2.06 2.06 0 0 0-1.23.38 2.55 2.55 0 0 0-.83 1v6h-1.44v-8.46ZM88.51 280.2a.83.83 0 0 1 .22-.59.79.79 0 0 1 .63-.24.82.82 0 0 1 .64.24.83.83 0 0 1 .22.59.82.82 0 0 1-.22.59.85.85 0 0 1-.64.23.78.78 0 0 1-.85-.82Zm1.56 10.7h-1.44v-8.46h1.44ZM95.78 289.87a2.06 2.06 0 0 0 1.35-.47 1.65 1.65 0 0 0 .64-1.17h1.37a2.73 2.73 0 0 1-.5 1.39 3.39 3.39 0 0 1-1.23 1 3.59 3.59 0 0 1-1.63.39A3.48 3.48 0 0 1 93 289.9a4.59 4.59 0 0 1-1-3.15v-.24a5.12 5.12 0 0 1 .45-2.2 3.46 3.46 0 0 1 1.31-1.49 3.71 3.71 0 0 1 2-.53 3.37 3.37 0 0 1 2.36.85 3.07 3.07 0 0 1 1 2.21h-1.35a2 2 0 0 0-.62-1.35 1.93 1.93 0 0 0-1.38-.53 2 2 0 0 0-1.71.8 3.74 3.74 0 0 0-.6 2.29v.27a3.63 3.63 0 0 0 .6 2.25 2 2 0 0 0 1.72.79ZM106 290.9a3.19 3.19 0 0 1-.2-.89 3.27 3.27 0 0 1-2.41 1 3 3 0 0 1-2.05-.7 2.3 2.3 0 0 1-.8-1.8 2.39 2.39 0 0 1 1-2.05 4.79 4.79 0 0 1 2.83-.73h1.4v-.66a1.63 1.63 0 0 0-.45-1.21 1.82 1.82 0 0 0-1.34-.45 2.1 2.1 0 0 0-1.29.39 1.16 1.16 0 0 0-.53 1h-1.45a2 2 0 0 1 .45-1.23 3.13 3.13 0 0 1 1.22-.93 4.08 4.08 0 0 1 1.69-.34 3.33 3.33 0 0 1 2.29.73 2.65 2.65 0 0 1 .86 2v3.89a4.7 4.7 0 0 0 .3 1.85v.13Zm-2.4-1.1a2.52 2.52 0 0 0 1.29-.36 2.08 2.08 0 0 0 .88-.91v-1.73h-1.13c-1.77 0-2.66.51-2.66 1.55a1.32 1.32 0 0 0 .46 1.06 1.71 1.71 0 0 0 1.14.39ZM111 290.9h-1.44v-12H111Z"/><path class="cls-6" d="M25.25 321.72h167.5v32H25.25z"/><path class="cls-9" d="M33.18 342.4h-1.5V331h1.5ZM43.78 332.25h-3.66v10.15h-1.49v-10.15H35V331h8.8Z"/><path class="cls-6" d="M25.25 353.22h167.5v32H25.25z"/><path class="cls-7" d="M193.25 321.72h32v32h-32z"/><path class="cls-7" d="M193.25 353.22h32v32h-32z"/><path class="cls-6" d="M25.25 72.72h167.5v32H25.25z"/><path class="cls-7" d="M193.25 72.72h32v32h-32z"/><path class="cls-9" d="M39.93 89.79a4.16 4.16 0 0 1-1.33 2.78 4.34 4.34 0 0 1-3 1 4 4 0 0 1-3.23-1.44 5.82 5.82 0 0 1-1.21-3.87v-1.11a6.44 6.44 0 0 1 .56-2.79 4.23 4.23 0 0 1 1.61-1.85 4.44 4.44 0 0 1 2.4-.64 4.09 4.09 0 0 1 2.91 1 4.22 4.22 0 0 1 1.27 2.8h-1.5a3.38 3.38 0 0 0-.85-2 2.62 2.62 0 0 0-1.83-.61 2.67 2.67 0 0 0-2.25 1.07 4.82 4.82 0 0 0-.82 3v1.1a5 5 0 0 0 .78 3 2.49 2.49 0 0 0 2.16 1.1 2.89 2.89 0 0 0 1.92-.57 3.19 3.19 0 0 0 .89-2ZM41.76 82.7a.83.83 0 0 1 .22-.59.79.79 0 0 1 .63-.24.82.82 0 0 1 .64.24.83.83 0 0 1 .22.59.82.82 0 0 1-.22.59.85.85 0 0 1-.64.23.78.78 0 0 1-.85-.82Zm1.56 10.7h-1.44v-8.46h1.44ZM48.43 91.44l2.09-6.5H52l-3 8.46h-1.1l-3.1-8.46h1.48ZM53.39 82.7a.88.88 0 0 1 .22-.59.8.8 0 0 1 .64-.24.83.83 0 0 1 .64.24.87.87 0 0 1 .21.59.85.85 0 0 1-.21.59.86.86 0 0 1-.64.23.83.83 0 0 1-.64-.23.86.86 0 0 1-.22-.59ZM55 93.4h-1.49v-8.46H55ZM58.84 93.4h-1.45v-12h1.45ZM69.71 93.4h-1.45v-9.64l-2.91 1.07v-1.31L69.49 82h.22Z"/><path class="cls-6" d="M25.25 104.22h167.5v32H25.25z"/><path class="cls-7" d="M193.25 104.22h32v32h-32z"/><path class="cls-8" d="M38 119.64h-4.93v4h5.72v1.23h-7.22v-11.35h7.14v1.23h-5.64v3.66H38ZM42 124.9h-1.44v-12H42ZM47.82 125.05a3.66 3.66 0 0 1-2.82-1.13 4.16 4.16 0 0 1-1.08-3v-.27a5.09 5.09 0 0 1 .48-2.25 3.74 3.74 0 0 1 1.34-1.54 3.33 3.33 0 0 1 1.87-.56 3.19 3.19 0 0 1 2.57 1.08 4.71 4.71 0 0 1 .91 3.11v.6h-5.7a3 3 0 0 0 .73 2 2.28 2.28 0 0 0 1.78.77 2.53 2.53 0 0 0 1.3-.31 3.31 3.31 0 0 0 .93-.83l.88.69a3.55 3.55 0 0 1-3.19 1.64Zm-.18-7.57a1.92 1.92 0 0 0-1.46.63 3.07 3.07 0 0 0-.74 1.79h4.24v-.11a2.76 2.76 0 0 0-.6-1.71 1.81 1.81 0 0 0-1.44-.6ZM56.18 123.87a2.07 2.07 0 0 0 1.35-.46 1.7 1.7 0 0 0 .65-1.18h1.36a2.56 2.56 0 0 1-.5 1.39 3.39 3.39 0 0 1-1.23 1 3.53 3.53 0 0 1-1.63.39 3.46 3.46 0 0 1-2.74-1.15 4.59 4.59 0 0 1-1-3.15v-.24a5.12 5.12 0 0 1 .45-2.2 3.44 3.44 0 0 1 1.3-1.49 3.74 3.74 0 0 1 2-.53 3.39 3.39 0 0 1 2.36.85 3 3 0 0 1 1 2.21h-1.37a2 2 0 0 0-.63-1.35 1.92 1.92 0 0 0-1.37-.52 2 2 0 0 0-1.71.79 3.68 3.68 0 0 0-.61 2.29v.27a3.63 3.63 0 0 0 .6 2.25 2 2 0 0 0 1.72.83ZM63.13 114.4v2h1.58v1.12h-1.58v5.25a1.17 1.17 0 0 0 .21.76.89.89 0 0 0 .72.26 3.22 3.22 0 0 0 .69-.1v1.17a4.35 4.35 0 0 1-1.11.15 1.78 1.78 0 0 1-1.46-.58 2.52 2.52 0 0 1-.5-1.67v-5.24h-1.54v-1.12h1.54v-2ZM70.48 117.74a4 4 0 0 0-.71 0 1.9 1.9 0 0 0-1.93 1.21v6h-1.45v-8.46h1.41v1a2.27 2.27 0 0 1 2-1.13 1.39 1.39 0 0 1 .64.11ZM71.82 114.2a.87.87 0 0 1 .21-.59.82.82 0 0 1 .64-.24.83.83 0 0 1 .64.24.88.88 0 0 1 .22.59.78.78 0 0 1-.86.82.76.76 0 0 1-.85-.82Zm1.56 10.7h-1.45v-8.46h1.45ZM79.08 123.87a2.07 2.07 0 0 0 1.35-.46 1.65 1.65 0 0 0 .64-1.18h1.37a2.65 2.65 0 0 1-.5 1.39 3.39 3.39 0 0 1-1.23 1 3.56 3.56 0 0 1-1.63.39 3.46 3.46 0 0 1-2.74-1.15 4.59 4.59 0 0 1-1-3.15v-.24a5.12 5.12 0 0 1 .45-2.2 3.38 3.38 0 0 1 1.3-1.49 3.71 3.71 0 0 1 2-.53 3.4 3.4 0 0 1 2.37.85 3.06 3.06 0 0 1 1 2.21h-1.39a2 2 0 0 0-.62-1.35 1.93 1.93 0 0 0-1.38-.52 2 2 0 0 0-1.7.79 3.68 3.68 0 0 0-.61 2.29v.27a3.63 3.63 0 0 0 .6 2.25 2 2 0 0 0 1.72.83ZM89.28 124.9a3.19 3.19 0 0 1-.2-.89 3.23 3.23 0 0 1-2.4 1 3 3 0 0 1-2.06-.7 2.3 2.3 0 0 1-.8-1.8 2.4 2.4 0 0 1 1-2 4.78 4.78 0 0 1 2.82-.73h1.41v-.66a1.6 1.6 0 0 0-.46-1.21 1.8 1.8 0 0 0-1.33-.45 2.11 2.11 0 0 0-1.3.39 1.15 1.15 0 0 0-.52 1H84a2 2 0 0 1 .44-1.22 3.05 3.05 0 0 1 1.22-.94 4.12 4.12 0 0 1 1.69-.34 3.32 3.32 0 0 1 2.29.73 2.61 2.61 0 0 1 .86 2v3.89a4.7 4.7 0 0 0 .3 1.85v.13Zm-2.39-1.1a2.52 2.52 0 0 0 1.29-.36 2.08 2.08 0 0 0 .88-.91v-1.73h-1.13c-1.78 0-2.66.51-2.66 1.55a1.31 1.31 0 0 0 .45 1.06 1.72 1.72 0 0 0 1.17.39ZM94.34 124.9h-1.45v-12h1.45ZM107.12 121.92h-4.77l-1.07 3h-1.54l4.34-11.38h1.31l4.36 11.38h-1.54Zm-4.31-1.23h3.87l-1.94-5.32Z"/><path class="cls-7" d="M683.25 155.47h32v32h-32z"/><path class="cls-6" d="M515.25 155.47h168v32h-168z"/><path class="cls-6" d="M515.25 186.97h168v32h-168z"/><path class="cls-7" d="M683.25 186.97h32v32h-32z"/><path class="cls-6" d="M515.25 238.47h167.5v32h-167.5z"/><path class="cls-7" d="M683.25 238.47h32v32h-32z"/><path class="cls-6" d="M515.25 269.97h167.5v32h-167.5z"/><path class="cls-7" d="M683.25 269.97h32v32h-32z"/><path class="cls-10" d="M226 104.22h100v249.5H226M224.75 187.22H326M226 270.22h100"/><g style="animation:rotate-banner 20000ms infinite linear;transform-origin:center;transform-box:fill-box"><circle cx="420.75" cy="228.97" r="45.5" style="stroke:#e5e7eb;stroke-width:0.75px;stroke-miterlimit:10"/><path class="cls-9" d="m399.16 211.43-7.65-8.43 2.59-2.35a5.36 5.36 0 0 1 2.44-1.31 4.84 4.84 0 0 1 2.66.18 6 6 0 0 1 2.4 1.65l.35.39a5.88 5.88 0 0 1 1.41 2.53 4.68 4.68 0 0 1-.07 2.65 5.33 5.33 0 0 1-1.52 2.31Zm-4.64-8.59 5.11 5.62.84-.76a2.59 2.59 0 0 0 .95-2.08 4.1 4.1 0 0 0-1.18-2.4l-.41-.45a4.12 4.12 0 0 0-2.3-1.46 2.52 2.52 0 0 0-2.15.75ZM407.84 197.57a6.57 6.57 0 0 0-.76.31 1.65 1.65 0 0 0-1.1 1.54l2.51 4.93-2 1-3.83-7.53 1.9-1 .52.87a2.07 2.07 0 0 1 1.15-1.89 2.42 2.42 0 0 1 .67-.23ZM415.66 201.9a2.54 2.54 0 0 1-.4-.68 2.76 2.76 0 0 1-1.86 1.39 3 3 0 0 1-2.17-.21 2.32 2.32 0 0 1-1.22-1.57 2.4 2.4 0 0 1 .48-2.24 5 5 0 0 1 2.63-1.39l1-.24-.12-.47a1.38 1.38 0 0 0-.51-.84 1.2 1.2 0 0 0-1-.12 1.34 1.34 0 0 0-.8.48.92.92 0 0 0-.14.8l-2.19.54a2.21 2.21 0 0 1 .12-1.43 2.94 2.94 0 0 1 1-1.26 4.61 4.61 0 0 1 1.72-.78 3.65 3.65 0 0 1 2.6.18 2.71 2.71 0 0 1 1.41 1.92l.87 3.56a4 4 0 0 0 .75 1.69v.13Zm-2.19-1.08a2 2 0 0 0 .85-.44 1.47 1.47 0 0 0 .46-.73l-.34-1.41-.82.2c-1.1.27-1.59.79-1.48 1.57v.13a.87.87 0 0 0 .45.6 1.15 1.15 0 0 0 .88.08ZM426 198.76l1.62-5.25 2.17.21-3 8.21-1.88-.18-1.09-5.45-2.1 5.14-1.87-.17-1.35-8.62 2.17.2.59 5.46 2.05-5.21 1.62.16Z"/><path class="cls-12" d="m438.78 207.8 8.6-7.46 2.29 2.65a5.29 5.29 0 0 1 1.25 2.47 4.65 4.65 0 0 1-.24 2.65 5.94 5.94 0 0 1-1.71 2.36l-.39.34a5.87 5.87 0 0 1-2.56 1.36 4.68 4.68 0 0 1-2.65-.14 5.36 5.36 0 0 1-2.28-1.57Zm8.7-4.44-5.74 5 .75.85a2.53 2.53 0 0 0 2.05 1 4.1 4.1 0 0 0 2.43-1.12l.45-.4a4.13 4.13 0 0 0 1.52-2.26 2.58 2.58 0 0 0-.7-2.18ZM452.43 216.78a5.3 5.3 0 0 0-.29-.76 1.66 1.66 0 0 0-1.51-1.14l-5 2.39-1-2 7.63-3.66.92 1.92-.88.49a2.17 2.17 0 0 1 2.07 1.88ZM447.92 224.49a2.68 2.68 0 0 1 .7-.38 2.68 2.68 0 0 1-1.35-1.89 3 3 0 0 1 .26-2.16 2.3 2.3 0 0 1 1.59-1.19 2.41 2.41 0 0 1 2.23.53 5 5 0 0 1 1.33 2.66l.22 1 .47-.11a1.38 1.38 0 0 0 .85-.49 1.16 1.16 0 0 0 .14-1 1.3 1.3 0 0 0-.46-.81.92.92 0 0 0-.8-.16l-.48-2.2a2.19 2.19 0 0 1 1.42.15 2.91 2.91 0 0 1 1.24 1 4.72 4.72 0 0 1 .74 1.74 3.7 3.7 0 0 1-.23 2.59 2.75 2.75 0 0 1-2 1.37l-3.58.79a4 4 0 0 0-1.71.71h-.13Zm1.14-2.16a2 2 0 0 0 .41.86 1.53 1.53 0 0 0 .72.48l1.42-.31-.18-.83c-.24-1.1-.75-1.6-1.53-1.51h-.13a.92.92 0 0 0-.62.44 1.1 1.1 0 0 0-.09.87ZM450.82 234.94l5.22 1.74-.26 2.17-8.14-3.14.22-1.88 5.48-1-5.1-2.22.23-1.87 8.64-1.14-.25 2.16-5.47.46 5.15 2.17-.19 1.62Z"/><path class="cls-9" d="m441.51 247.48 7.26 8.76-2.7 2.23a5.33 5.33 0 0 1-2.5 1.2 4.72 4.72 0 0 1-2.64-.31 5.79 5.79 0 0 1-2.32-1.75l-.34-.4a6 6 0 0 1-1.3-2.59 4.68 4.68 0 0 1 .2-2.65 5.4 5.4 0 0 1 1.62-2.24Zm4.24 8.79-4.85-5.84-.87.72a2.54 2.54 0 0 0-1 2 4.06 4.06 0 0 0 1.07 2.46l.38.46a4.1 4.1 0 0 0 2.23 1.56 2.51 2.51 0 0 0 2.19-.65ZM432.21 260.93a5.55 5.55 0 0 0 .77-.28 1.64 1.64 0 0 0 1.17-1.48l-2.28-5 2.06-.93 3.48 7.7-1.94.88-.47-.89a2.1 2.1 0 0 1-1.24 1.83 2.51 2.51 0 0 1-.68.2ZM424.59 256.24a2.47 2.47 0 0 1 .36.71 2.72 2.72 0 0 1 1.92-1.31 3 3 0 0 1 2.13.36 2.32 2.32 0 0 1 1.15 1.62 2.4 2.4 0 0 1-.58 2.22 4.87 4.87 0 0 1-2.69 1.26l-1 .2.09.48a1.38 1.38 0 0 0 .48.86 1.15 1.15 0 0 0 1 .16 1.33 1.33 0 0 0 .83-.44.88.88 0 0 0 .17-.79l2.22-.44a2.37 2.37 0 0 1-.18 1.43 3.11 3.11 0 0 1-1.07 1.2 4.69 4.69 0 0 1-1.76.71 3.69 3.69 0 0 1-2.59-.3 2.75 2.75 0 0 1-1.32-2l-.7-3.6a4 4 0 0 0-.68-1.72v-.13Zm2.13 1.19a1.84 1.84 0 0 0-.86.39 1.43 1.43 0 0 0-.5.71l.28 1.43.82-.16c1.11-.22 1.63-.72 1.55-1.5v-.13a.88.88 0 0 0-.42-.63 1.14 1.14 0 0 0-.87-.11ZM414.11 258.91l-1.85 5.17-2.16-.3 3.32-8.07 1.87.27.84 5.49 2.33-5 1.87.26.95 8.67-2.16-.3-.34-5.48-2.28 5.1-1.62-.22Z"/><path class="cls-12" d="m401.76 249.3-8.93 7.05-2.17-2.74a5.38 5.38 0 0 1-1.13-2.53 4.64 4.64 0 0 1 .36-2.64 6 6 0 0 1 1.81-2.28l.41-.32a5.9 5.9 0 0 1 2.62-1.24 4.67 4.67 0 0 1 2.64.26 5.28 5.28 0 0 1 2.2 1.67Zm-8.89 4 6-4.72-.71-.88a2.53 2.53 0 0 0-2-1.1 4.09 4.09 0 0 0-2.48 1l-.47.37a4.14 4.14 0 0 0-1.62 2.19 2.56 2.56 0 0 0 .6 2.21ZM388.54 239.71a4.93 4.93 0 0 0 .26.77 1.65 1.65 0 0 0 1.45 1.21l5.09-2.17.88 2.08-7.78 3.31-.83-2 .9-.45a2.07 2.07 0 0 1-1.8-1.28 2.48 2.48 0 0 1-.19-.68ZM393.4 232.21a2.61 2.61 0 0 1-.71.36 2.72 2.72 0 0 1 1.26 1.94 3 3 0 0 1-.36 2.15 2.33 2.33 0 0 1-1.65 1.12 2.38 2.38 0 0 1-2.2-.64 4.85 4.85 0 0 1-1.2-2.71l-.18-1-.48.08a1.46 1.46 0 0 0-.87.45 1.19 1.19 0 0 0-.19 1 1.35 1.35 0 0 0 .43.83.91.91 0 0 0 .79.2l.38 2.22A2.32 2.32 0 0 1 387 238a3 3 0 0 1-1.19-1.1 4.69 4.69 0 0 1-.66-1.77 3.68 3.68 0 0 1 .35-2.58 2.76 2.76 0 0 1 2-1.28l3.61-.62a4.12 4.12 0 0 0 1.74-.64h.13Zm-1.24 2.11a1.89 1.89 0 0 0-.37-.87 1.5 1.5 0 0 0-.7-.51l-1.43.24.14.83c.2 1.12.68 1.64 1.47 1.58h.13a.9.9 0 0 0 .63-.41 1.14 1.14 0 0 0 .13-.86ZM391 221.65l-5.13-2 .36-2.15 8 3.51-.31 1.86-5.51.72 5 2.44-.31 1.86-8.69.75.36-2.15 5.48-.21-5.05-2.4.26-1.61Z"/></g><path class="cls-10" d="M715.51 186.97h100v83h-100M814.88 228.47h100"/><path class="cls-8" d="M34.94 16.47a7.06 7.06 0 0 1-.52 2.84A4.43 4.43 0 0 1 33 21.17l2 1.59-1 .95-2.4-1.91a5 5 0 0 1-1.19.14 4.24 4.24 0 0 1-4-2.54 6.81 6.81 0 0 1-.59-2.83v-.82a7 7 0 0 1 .57-2.9 4.48 4.48 0 0 1 6.42-1.93 4.26 4.26 0 0 1 1.6 1.91 6.93 6.93 0 0 1 .56 2.91Zm-1.5-.74a5.13 5.13 0 0 0-.8-3.1 2.67 2.67 0 0 0-2.28-1.09 2.63 2.63 0 0 0-2.23 1.09 4.91 4.91 0 0 0-.84 3v.84a5.16 5.16 0 0 0 .81 3.07 2.67 2.67 0 0 0 2.27 1.13 2.64 2.64 0 0 0 2.25-1.06 5 5 0 0 0 .82-3ZM42.25 21a3.08 3.08 0 0 1-2.48 1 2.65 2.65 0 0 1-2.06-.78 3.4 3.4 0 0 1-.71-2.39v-5.5h1.44v5.46c0 1.28.53 1.93 1.57 1.93a2.17 2.17 0 0 0 2.2-1.24v-6.15h1.45v8.46h-1.38ZM51.07 21.79a3.19 3.19 0 0 1-.2-.9 3.24 3.24 0 0 1-2.41 1.05 2.94 2.94 0 0 1-2.05-.71 2.28 2.28 0 0 1-.8-1.79 2.39 2.39 0 0 1 1-2.05 4.72 4.72 0 0 1 2.83-.73h1.4V16a1.63 1.63 0 0 0-.45-1.21 1.82 1.82 0 0 0-1.34-.45 2.1 2.1 0 0 0-1.29.39 1.16 1.16 0 0 0-.53.95h-1.45a2 2 0 0 1 .45-1.23 3.13 3.13 0 0 1 1.22-.93 4.08 4.08 0 0 1 1.69-.34 3.33 3.33 0 0 1 2.29.73 2.62 2.62 0 0 1 .86 2v3.89a4.7 4.7 0 0 0 .3 1.85v.13Zm-2.4-1.11a2.5 2.5 0 0 0 1.33-.35 2.08 2.08 0 0 0 .88-.91v-1.74h-1.17c-1.77 0-2.66.52-2.66 1.56a1.29 1.29 0 0 0 .46 1.06 1.71 1.71 0 0 0 1.16.38ZM58.64 14.63a4 4 0 0 0-.71-.06A1.91 1.91 0 0 0 56 15.79v6h-1.45v-8.46H56v1a2.25 2.25 0 0 1 2-1.13 1.39 1.39 0 0 1 .64.11ZM62.32 11.29v2h1.58v1.12h-1.58v5.29a1.17 1.17 0 0 0 .21.76.89.89 0 0 0 .72.26 3.9 3.9 0 0 0 .69-.1v1.17a4.35 4.35 0 0 1-1.11.15 1.78 1.78 0 0 1-1.46-.58 2.52 2.52 0 0 1-.5-1.67v-5.24h-1.53v-1.12h1.53v-2ZM69.09 21.94a3.66 3.66 0 0 1-2.79-1.13 4.18 4.18 0 0 1-1.08-3v-.26a5.09 5.09 0 0 1 .48-2.25 3.83 3.83 0 0 1 1.3-1.57 3.4 3.4 0 0 1 1.87-.55 3.19 3.19 0 0 1 2.57 1.08 4.71 4.71 0 0 1 .91 3.11V18h-5.69a3 3 0 0 0 .73 2 2.28 2.28 0 0 0 1.78.77 2.53 2.53 0 0 0 1.3-.31 3.31 3.31 0 0 0 .93-.83l.88.69a3.55 3.55 0 0 1-3.19 1.62Zm-.18-7.58a2 2 0 0 0-1.47.64 3.13 3.13 0 0 0-.73 1.79h4.23v-.11a2.75 2.75 0 0 0-.59-1.68 1.82 1.82 0 0 0-1.44-.64ZM78.15 14.63a4 4 0 0 0-.71-.06 1.91 1.91 0 0 0-1.93 1.22v6h-1.45v-8.46h1.41v1a2.25 2.25 0 0 1 2-1.13 1.39 1.39 0 0 1 .64.11ZM89.94 16.76h-4.78v5h-1.5V10.41h7v1.23h-5.5v3.9h4.78ZM92.29 11.09a.87.87 0 0 1 .21-.59.87.87 0 0 1 1.28 1.18.85.85 0 0 1-1.49-.59Zm1.56 10.7h-1.44v-8.46h1.44ZM97.53 13.33v1.06a3.07 3.07 0 0 1 2.53-1.21c1.78 0 2.69 1 2.7 3v5.59h-1.44v-5.6a2 2 0 0 0-.42-1.35 1.68 1.68 0 0 0-1.28-.44 2.06 2.06 0 0 0-1.23.38 2.55 2.55 0 0 0-.83 1v6h-1.4v-8.43ZM110.21 21.79a3.19 3.19 0 0 1-.2-.9 3.23 3.23 0 0 1-2.41 1.05 2.94 2.94 0 0 1-2-.71 2.28 2.28 0 0 1-.8-1.79 2.39 2.39 0 0 1 1-2.05 4.72 4.72 0 0 1 2.83-.73H110V16a1.63 1.63 0 0 0-.45-1.21 1.82 1.82 0 0 0-1.34-.45 2.1 2.1 0 0 0-1.29.39 1.16 1.16 0 0 0-.53.95h-1.45a2 2 0 0 1 .45-1.23 3.13 3.13 0 0 1 1.22-.93 4.08 4.08 0 0 1 1.69-.34 3.33 3.33 0 0 1 2.29.73 2.62 2.62 0 0 1 .86 2v3.89a4.7 4.7 0 0 0 .3 1.85v.13Zm-2.4-1.11a2.48 2.48 0 0 0 1.29-.35 2.08 2.08 0 0 0 .88-.91v-1.74h-1.13c-1.77 0-2.66.52-2.66 1.56a1.32 1.32 0 0 0 .46 1.06 1.71 1.71 0 0 0 1.16.38ZM115.27 21.79h-1.45v-12h1.45ZM122.5 19.54a1.08 1.08 0 0 0-.44-.91 4.51 4.51 0 0 0-1.54-.56 7 7 0 0 1-1.74-.56 2.56 2.56 0 0 1-1-.78 1.9 1.9 0 0 1-.3-1.08 2.21 2.21 0 0 1 .87-1.76 4 4 0 0 1 4.58 0 2.35 2.35 0 0 1 .9 1.9h-1.46a1.3 1.3 0 0 0-.5-1 2.2 2.2 0 0 0-2.5-.08 1.08 1.08 0 0 0-.45.9.87.87 0 0 0 .41.78 5 5 0 0 0 1.5.51 7.76 7.76 0 0 1 1.75.58 2.51 2.51 0 0 1 1 .81 2 2 0 0 1 .32 1.15 2.17 2.17 0 0 1-.9 1.82 3.85 3.85 0 0 1-2.35.68 4.25 4.25 0 0 1-1.8-.36 2.89 2.89 0 0 1-1.22-1 2.39 2.39 0 0 1-.44-1.4h1.44a1.53 1.53 0 0 0 .58 1.16 2.3 2.3 0 0 0 1.44.42 2.33 2.33 0 0 0 1.31-.33 1 1 0 0 0 .54-.89ZM519.92 16.72a7 7 0 0 1-2.81-1.37 2.58 2.58 0 0 1-.88-2 2.78 2.78 0 0 1 1.07-2.23 4.32 4.32 0 0 1 2.8-.88 4.72 4.72 0 0 1 2.09.46 3.46 3.46 0 0 1 1.42 1.3 3.23 3.23 0 0 1 .5 1.74h-1.51a2.08 2.08 0 0 0-.65-1.63 3.24 3.24 0 0 0-3.58-.1 1.62 1.62 0 0 0-.62 1.36 1.47 1.47 0 0 0 .59 1.18 5.84 5.84 0 0 0 2 .88 9 9 0 0 1 2.22.88 3.31 3.31 0 0 1 1.19 1.12 2.82 2.82 0 0 1 .39 1.5 2.65 2.65 0 0 1-1.08 2.22 4.63 4.63 0 0 1-2.88.83 5.3 5.3 0 0 1-2.19-.45 3.7 3.7 0 0 1-1.57-1.23 3 3 0 0 1-.55-1.77h1.51a2 2 0 0 0 .76 1.63 3.22 3.22 0 0 0 2 .6 3 3 0 0 0 1.82-.49 1.57 1.57 0 0 0 .63-1.32 1.53 1.53 0 0 0-.59-1.29 6.5 6.5 0 0 0-2.08-.94ZM529.34 21.94a3.67 3.67 0 0 1-2.8-1.13 4.18 4.18 0 0 1-1.08-3v-.26a5.09 5.09 0 0 1 .48-2.25 3.85 3.85 0 0 1 1.35-1.55 3.38 3.38 0 0 1 1.87-.55 3.17 3.17 0 0 1 2.56 1.08 4.71 4.71 0 0 1 .92 3.11V18h-5.73a3 3 0 0 0 .73 2 2.28 2.28 0 0 0 1.78.77 2.47 2.47 0 0 0 1.29-.31 3.06 3.06 0 0 0 .93-.83l.89.69a3.55 3.55 0 0 1-3.19 1.62Zm-.18-7.58a2 2 0 0 0-1.47.64 3.06 3.06 0 0 0-.73 1.79h4.23v-.11a2.75 2.75 0 0 0-.59-1.68 1.85 1.85 0 0 0-1.44-.64ZM535.67 13.33v.94a3.1 3.1 0 0 1 2.5-1.09 2.42 2.42 0 0 1 2.42 1.36 3.18 3.18 0 0 1 1.1-1 3.22 3.22 0 0 1 1.59-.37c1.86 0 2.8 1 2.83 2.94v5.67h-1.44v-5.57a1.93 1.93 0 0 0-.42-1.36 1.81 1.81 0 0 0-1.39-.45 1.91 1.91 0 0 0-1.33.48 1.94 1.94 0 0 0-.62 1.3v5.61h-1.41v-5.54a1.62 1.62 0 0 0-1.81-1.85 1.93 1.93 0 0 0-1.94 1.21v6.18h-1.45v-8.46ZM548.34 11.09a.87.87 0 0 1 .21-.59.83.83 0 0 1 .64-.25.82.82 0 0 1 .64.25.9.9 0 0 1 0 1.18.85.85 0 0 1-.64.23.76.76 0 0 1-.85-.82Zm1.56 10.7h-1.44v-8.46h1.44ZM562.68 16.76h-4.78v5h-1.5V10.41h7.05v1.23h-5.55v3.9h4.78ZM565 11.09a.87.87 0 0 1 .21-.59.82.82 0 0 1 .64-.25.83.83 0 0 1 .64.25.9.9 0 0 1 0 1.18.86.86 0 0 1-.64.23.85.85 0 0 1-.64-.23.87.87 0 0 1-.21-.59Zm1.56 10.7h-1.45v-8.46h1.45ZM570.27 13.33l.05 1.06a3.07 3.07 0 0 1 2.53-1.21c1.78 0 2.68 1 2.7 3v5.59h-1.45v-5.6a1.93 1.93 0 0 0-.41-1.35 1.7 1.7 0 0 0-1.28-.44 2.06 2.06 0 0 0-1.23.38 2.47 2.47 0 0 0-.83 1v6h-1.45v-8.43ZM583 21.79a3.19 3.19 0 0 1-.2-.9 3.24 3.24 0 0 1-2.41 1.05 2.94 2.94 0 0 1-2.05-.71 2.25 2.25 0 0 1-.8-1.79 2.39 2.39 0 0 1 1-2.05 4.72 4.72 0 0 1 2.83-.73h1.4V16a1.63 1.63 0 0 0-.45-1.21 1.82 1.82 0 0 0-1.34-.45 2.08 2.08 0 0 0-1.29.39 1.16 1.16 0 0 0-.53.95h-1.45a2 2 0 0 1 .45-1.23 3.05 3.05 0 0 1 1.22-.93 4.05 4.05 0 0 1 1.69-.34 3.33 3.33 0 0 1 2.29.73 2.62 2.62 0 0 1 .86 2v3.89a4.91 4.91 0 0 0 .29 1.85v.13Zm-2.4-1.11a2.5 2.5 0 0 0 1.29-.35 2.08 2.08 0 0 0 .88-.91v-1.74h-1.13c-1.77 0-2.66.52-2.66 1.56a1.29 1.29 0 0 0 .46 1.06 1.71 1.71 0 0 0 1.11.38ZM588 21.79h-1.44v-12H588ZM595.24 19.54a1.08 1.08 0 0 0-.44-.91 4.51 4.51 0 0 0-1.54-.56 6.84 6.84 0 0 1-1.74-.56 2.56 2.56 0 0 1-1-.78 1.91 1.91 0 0 1-.31-1.08 2.22 2.22 0 0 1 .88-1.76 4 4 0 0 1 4.58 0 2.34 2.34 0 0 1 .89 1.9h-1.45a1.33 1.33 0 0 0-.5-1 1.93 1.93 0 0 0-1.27-.43 2 2 0 0 0-1.24.35 1.1 1.1 0 0 0-.44.9.87.87 0 0 0 .41.78 5 5 0 0 0 1.5.51 7.94 7.94 0 0 1 1.75.58 2.51 2.51 0 0 1 1 .81 2 2 0 0 1 .32 1.15 2.17 2.17 0 0 1-.9 1.82 3.85 3.85 0 0 1-2.35.68 4.25 4.25 0 0 1-1.8-.36 2.89 2.89 0 0 1-1.22-1 2.4 2.4 0 0 1-.45-1.4h1.45a1.53 1.53 0 0 0 .58 1.16 2.28 2.28 0 0 0 1.44.42 2.33 2.33 0 0 0 1.31-.33 1 1 0 0 0 .54-.89ZM921.84 16.76h-4.77v5h-1.5V10.41h7v1.23h-5.54v3.9h4.77ZM924.19 11.09a.83.83 0 0 1 .22-.59.8.8 0 0 1 .63-.25.82.82 0 0 1 .64.25.9.9 0 0 1 0 1.18.85.85 0 0 1-.64.23.82.82 0 0 1-.63-.23.83.83 0 0 1-.22-.59Zm1.56 10.7h-1.44v-8.46h1.44ZM929.43 13.33l.05 1.06a3.08 3.08 0 0 1 2.52-1.21c1.79 0 2.69 1 2.7 3v5.59h-1.44v-5.6a2 2 0 0 0-.42-1.35 1.68 1.68 0 0 0-1.28-.44 2.09 2.09 0 0 0-1.23.38 2.64 2.64 0 0 0-.83 1v6h-1.44v-8.43ZM942.11 21.79a3.19 3.19 0 0 1-.2-.9 3.21 3.21 0 0 1-2.41 1.05 3 3 0 0 1-2-.71 2.28 2.28 0 0 1-.8-1.79 2.4 2.4 0 0 1 1-2.05 4.71 4.71 0 0 1 2.82-.73h1.41V16a1.6 1.6 0 0 0-.46-1.21 1.8 1.8 0 0 0-1.33-.45 2.11 2.11 0 0 0-1.3.39 1.15 1.15 0 0 0-.52.95h-1.46a2 2 0 0 1 .45-1.23 3.13 3.13 0 0 1 1.22-.93 4.08 4.08 0 0 1 1.69-.34 3.32 3.32 0 0 1 2.29.73 2.62 2.62 0 0 1 .86 2v3.89a4.7 4.7 0 0 0 .3 1.85v.13Zm-2.4-1.11a2.45 2.45 0 0 0 1.29-.35 2.16 2.16 0 0 0 .89-.91v-1.74h-1.14c-1.77 0-2.65.52-2.65 1.56a1.31 1.31 0 0 0 .45 1.06 1.71 1.71 0 0 0 1.16.38ZM947.17 21.79h-1.45v-12h1.45Z"/><path class="cls-10" d="M24.75 104.22h201M24.75 187.22h200"/><path style="stroke:#9ca3af;fill:#1e293b;stroke-miterlimit:10" d="M24.75 270.22h203"/><path class="cls-10" d="M515.25 186.97h200.5"/><path class="cls-6" d="M914.25 196.97h168v32h-168z"/><path class="cls-6" d="M914.25 228.47h168v32h-168z"/><path class="cls-7" d="M1082.25 228.47h32v32h-32z"/><path class="cls-7" d="M1082.25 196.97h32v32h-32z"/><path class="cls-10" d="M914.25 228.47h200.5M515.25 269.97h200.5M24.75 353.72h202"/><path style="stroke:#000;fill:#7878ab;stroke-width:0.5px;stroke-miterlimit:10" d="M420.85 228.33v19.15l16.68-9.57v-18.64l-16.68 9.06z"/><path style="fill:#8789b9;stroke:#000;stroke-width:0.5px;stroke-miterlimit:10" d="m420.85 228.33-16.89-9.06v18.76l16.89 9.45v-19.15z"/><path style="fill:#abaad5;stroke:#000;stroke-width:0.5px;stroke-miterlimit:10" d="m403.96 219.27 16.89-8.81 16.68 8.81-16.68 9.06-16.89-9.06z"/><ellipse class="cls-17" cx="421.16" cy="218.97" rx="3.5" ry="2"/><ellipse class="cls-17" cx="416.51" cy="231.03" rx="1.56" ry="2.21" transform="translate(-56.91 178.74) rotate(-22.71)"/><ellipse class="cls-17" cx="426.96" cy="231.95" rx="2.21" ry="1.56" transform="translate(46 533.57) rotate(-66.88)"/><ellipse class="cls-17" cx="432.45" cy="235.31" rx="2.21" ry="1.56" transform="translate(46.26 540.65) rotate(-66.88)"/><ellipse class="cls-17" cx="412.46" cy="233.38" rx="1.56" ry="2.21" transform="translate(-58.12 177.35) rotate(-22.71)"/><ellipse class="cls-17" cx="408.36" cy="235.8" rx="1.56" ry="2.21" transform="translate(-59.38 175.96) rotate(-22.71)"/><path class="cls-18" d="m420.85 212.89 7.17 4.08M430.02 218.11l3.4 1.93"/><path class="cls-5" d="M1166 71.71a5.43 5.43 0 0 1-1.13 1.74 6.64 6.64 0 0 1-2.23 1.5 7 7 0 0 1-2.64.51 7.58 7.58 0 0 1-2.61-.45 6.34 6.34 0 0 1-2.22-1.44 6.61 6.61 0 0 1-1.75-3.1 11.53 11.53 0 0 1-.29-1.82c-.05-.64-.07-1.31-.07-2s0-1.37.07-2a11.4 11.4 0 0 1 .29-1.81 6.61 6.61 0 0 1 1.75-3.1 6.37 6.37 0 0 1 2.22-1.45 7.36 7.36 0 0 1 2.61-.47 7.44 7.44 0 0 1 2.64.49 6.18 6.18 0 0 1 2.23 1.48 5.28 5.28 0 0 1 1.13 1.73 7.92 7.92 0 0 1 .5 2h-3.17a2.88 2.88 0 0 0-.24-1 3.51 3.51 0 0 0-.52-.82 2.5 2.5 0 0 0-1.1-.8 4.13 4.13 0 0 0-1.47-.26 3.69 3.69 0 0 0-1.43.29 3.31 3.31 0 0 0-1.19.84 3.2 3.2 0 0 0-.67 1.05 5.87 5.87 0 0 0-.35 1.26 10 10 0 0 0-.13 1.34v2.49a9.82 9.82 0 0 0 .13 1.33 5.87 5.87 0 0 0 .35 1.26 3.24 3.24 0 0 0 .67 1.06 3.31 3.31 0 0 0 1.19.84 3.69 3.69 0 0 0 1.43.29 3.74 3.74 0 0 0 1.47-.28 2.58 2.58 0 0 0 1.1-.8 3.37 3.37 0 0 0 .76-1.87h3.17a8.22 8.22 0 0 1-.5 1.97ZM1179.25 67.73h-7v7.42h-3.1v-17h3.1v6.65h7v-6.67h3.09v17h-3.09ZM1195.33 71.89h-6.77l-1.11 3.26h-3.12l6-17h3.38l6 17h-3.24Zm-5.81-2.79h4.85l-2.43-7.17ZM1215.75 63l-4.42 11.9h-2.28l-4.39-12v12.25h-3v-17h4.18l4.46 12.12 4.49-12.12h4v17h-3ZM1235 65.81a4.43 4.43 0 0 1-1.14 1.73 5.23 5.23 0 0 1-1.88 1.12 8 8 0 0 1-2.59.39h-3.61v6.1h-3.07v-17h6.68a8 8 0 0 1 2.59.4 5.19 5.19 0 0 1 1.88 1.1 4.47 4.47 0 0 1 1.14 1.72 6.57 6.57 0 0 1 0 4.46Zm-3.45-4.2a3 3 0 0 0-2.28-.76h-3.49v5.49h3.49a3.05 3.05 0 0 0 2.28-.75 2.82 2.82 0 0 0 .72-2 2.87 2.87 0 0 0-.7-1.98ZM1237.71 58.13h3.14v17h-3.14ZM1257.89 68.63a9.61 9.61 0 0 1-.31 1.82 7.73 7.73 0 0 1-.66 1.63 6.26 6.26 0 0 1-1.12 1.46 6 6 0 0 1-2.25 1.45 7.65 7.65 0 0 1-5.28 0 6.13 6.13 0 0 1-2.26-1.45 6.49 6.49 0 0 1-1.11-1.46 7.73 7.73 0 0 1-.66-1.63 9.61 9.61 0 0 1-.32-1.82c0-.63-.07-1.29-.07-2s0-1.37.07-2a9.5 9.5 0 0 1 .32-1.81 7.52 7.52 0 0 1 .66-1.63 6.54 6.54 0 0 1 1.11-1.47 6.25 6.25 0 0 1 2.26-1.45 7.65 7.65 0 0 1 5.28 0 6.13 6.13 0 0 1 2.25 1.45 6.3 6.3 0 0 1 1.12 1.47 7.52 7.52 0 0 1 .66 1.63 9.5 9.5 0 0 1 .31 1.81c0 .63.07 1.3.07 2s-.02 1.37-.07 2Zm-3.09-3.22a10 10 0 0 0-.15-1.34 5.91 5.91 0 0 0-.37-1.26 3.58 3.58 0 0 0-.68-1.05 3.29 3.29 0 0 0-1.23-.84 3.85 3.85 0 0 0-2.93 0 3.26 3.26 0 0 0-1.22.84 3.22 3.22 0 0 0-.68 1.05 5.93 5.93 0 0 0-.38 1.26 10 10 0 0 0-.14 1.34v2.49a9.52 9.52 0 0 0 .14 1.32 6 6 0 0 0 .38 1.25 3.47 3.47 0 0 0 1.9 1.9 3.85 3.85 0 0 0 2.93 0 3.41 3.41 0 0 0 1.23-.84 3.77 3.77 0 0 0 .68-1.06 6 6 0 0 0 .37-1.25 9.52 9.52 0 0 0 .15-1.32v-1.25c0-.39.01-.8 0-1.24ZM1264 63.46v11.69h-3v-17h3.29l7.27 11.52V58.13h3v17h-3.19ZM1278.56 58.13h12.12v2.81h-9v4h7.95v2.79h-7.95v4.65h9v2.81h-12.12ZM1305.62 72.15a5.31 5.31 0 0 1-1 1.49 5.59 5.59 0 0 1-2.39 1.4 10.39 10.39 0 0 1-3 .42 9.58 9.58 0 0 1-2.7-.39 6.14 6.14 0 0 1-2.39-1.36 5.62 5.62 0 0 1-1.27-1.72 4.92 4.92 0 0 1-.51-2.24h3.17a2.63 2.63 0 0 0 .26 1.16 3.24 3.24 0 0 0 .63.93 2.69 2.69 0 0 0 1.33.73 6.79 6.79 0 0 0 1.53.18 7 7 0 0 0 1.68-.2 2.59 2.59 0 0 0 1.27-.71 3.69 3.69 0 0 0 .48-.66 2 2 0 0 0 .19-1 1.65 1.65 0 0 0-.61-1.41 3.33 3.33 0 0 0-1.4-.61A16.66 16.66 0 0 0 1299 68a18.19 18.19 0 0 1-1.87-.22 6.22 6.22 0 0 1-1.67-.5 4.73 4.73 0 0 1-1.37-1 4.52 4.52 0 0 1-.94-1.41 4.9 4.9 0 0 1-.34-1.89 4.08 4.08 0 0 1 .41-1.85 5.5 5.5 0 0 1 1.08-1.51 5.65 5.65 0 0 1 2.16-1.32 8.52 8.52 0 0 1 5.46-.06 5.58 5.58 0 0 1 2.12 1.24 6.12 6.12 0 0 1 1.24 1.63 4.6 4.6 0 0 1 .49 2h-3.17a2.49 2.49 0 0 0-.23-.9 3.18 3.18 0 0 0-.51-.78 2.72 2.72 0 0 0-1.16-.67 4.62 4.62 0 0 0-1.44-.24 5.82 5.82 0 0 0-1.47.19 2.63 2.63 0 0 0-1.29.75 2.82 2.82 0 0 0-.42.62 2 2 0 0 0-.15.82 1.66 1.66 0 0 0 .48 1.28 2.26 2.26 0 0 0 1.25.56c.54.08 1.15.16 1.83.22s1.3.14 1.86.22a6.74 6.74 0 0 1 1.81.51 5 5 0 0 1 1.49 1 4.38 4.38 0 0 1 1 1.47 4.88 4.88 0 0 1 .37 2 5 5 0 0 1-.4 1.99ZM1166 100.51a5.43 5.43 0 0 1-1.13 1.74 6.64 6.64 0 0 1-2.23 1.5 7 7 0 0 1-2.64.51 7.58 7.58 0 0 1-2.61-.45 6.34 6.34 0 0 1-2.22-1.44 6.77 6.77 0 0 1-1.11-1.47 6.59 6.59 0 0 1-.64-1.63 11.53 11.53 0 0 1-.29-1.82c-.05-.64-.07-1.31-.07-2s0-1.37.07-2a11.4 11.4 0 0 1 .29-1.81 6.61 6.61 0 0 1 1.75-3.1 6.37 6.37 0 0 1 2.22-1.45 7.36 7.36 0 0 1 2.61-.47 7.44 7.44 0 0 1 2.64.49 6.18 6.18 0 0 1 2.23 1.48 5.28 5.28 0 0 1 1.13 1.73 7.92 7.92 0 0 1 .5 2h-3.17a2.88 2.88 0 0 0-.24-1 3.51 3.51 0 0 0-.52-.82 2.5 2.5 0 0 0-1.1-.8 4.13 4.13 0 0 0-1.47-.26 3.69 3.69 0 0 0-1.43.29 3.31 3.31 0 0 0-1.19.84 3.2 3.2 0 0 0-.67 1 5.87 5.87 0 0 0-.35 1.26 10 10 0 0 0-.13 1.34v2.49a9.82 9.82 0 0 0 .13 1.33 5.87 5.87 0 0 0 .35 1.26 3.24 3.24 0 0 0 .67 1.06 3.31 3.31 0 0 0 1.19.84 3.69 3.69 0 0 0 1.43.29 3.74 3.74 0 0 0 1.47-.28 2.58 2.58 0 0 0 1.1-.8 3.4 3.4 0 0 0 .76-1.87h3.17a8.22 8.22 0 0 1-.5 2.02ZM1179.25 96.53h-7V104h-3.1V87h3.1v6.65h7v-6.72h3.09v17h-3.09ZM1195.33 100.69h-6.77l-1.11 3.26h-3.12l6-17h3.38l6 17h-3.24Zm-5.81-2.79h4.85l-2.43-7.17ZM1215.75 91.81l-4.42 11.9h-2.28l-4.39-12V104h-3V87h4.18l4.46 12.12 4.49-12.12h4v17h-3ZM1235 94.61a4.43 4.43 0 0 1-1.14 1.73 5.23 5.23 0 0 1-1.88 1.12 8 8 0 0 1-2.59.39h-3.61V104h-3.07V87h6.68a8 8 0 0 1 2.59.4 5.19 5.19 0 0 1 1.88 1.1 4.47 4.47 0 0 1 1.14 1.72 6.57 6.57 0 0 1 0 4.46Zm-3.45-4.2a3 3 0 0 0-2.28-.76h-3.49v5.49h3.49a3.05 3.05 0 0 0 2.28-.75 2.82 2.82 0 0 0 .72-2 2.87 2.87 0 0 0-.7-1.98ZM1237.71 86.93h3.14v17h-3.14ZM1257.89 97.43a9.61 9.61 0 0 1-.31 1.82 7.73 7.73 0 0 1-.66 1.63 6.26 6.26 0 0 1-1.12 1.46 6 6 0 0 1-2.25 1.45 7.65 7.65 0 0 1-5.28 0 6.13 6.13 0 0 1-2.26-1.45 6.49 6.49 0 0 1-1.11-1.46 7.73 7.73 0 0 1-.66-1.63 9.61 9.61 0 0 1-.32-1.82c0-.63-.07-1.29-.07-2s0-1.37.07-2a9.5 9.5 0 0 1 .32-1.81 7.52 7.52 0 0 1 .66-1.63 6.54 6.54 0 0 1 1.11-1.47 6.25 6.25 0 0 1 2.26-1.45 7.65 7.65 0 0 1 5.28 0 6.13 6.13 0 0 1 2.25 1.45 6.3 6.3 0 0 1 1.12 1.47 7.52 7.52 0 0 1 .66 1.63 9.5 9.5 0 0 1 .31 1.81c0 .63.07 1.3.07 2s-.02 1.37-.07 2Zm-3.09-3.22a10 10 0 0 0-.15-1.34 5.91 5.91 0 0 0-.37-1.26 3.58 3.58 0 0 0-.68-1 3.29 3.29 0 0 0-1.23-.84 3.85 3.85 0 0 0-2.93 0 3.26 3.26 0 0 0-1.22.84 3.22 3.22 0 0 0-.68 1 5.93 5.93 0 0 0-.38 1.26 10 10 0 0 0-.14 1.34v2.49a9.52 9.52 0 0 0 .14 1.32 6 6 0 0 0 .38 1.25 3.38 3.38 0 0 0 .68 1.06 3.5 3.5 0 0 0 1.22.84 4 4 0 0 0 2.93 0 3.54 3.54 0 0 0 1.23-.84 3.77 3.77 0 0 0 .68-1.06 6 6 0 0 0 .37-1.25 9.52 9.52 0 0 0 .15-1.32v-1.25c0-.39.01-.8 0-1.24ZM1264 92.26V104h-3V87h3.29l7.27 11.52V86.93h3v17h-3.19ZM1278.56 86.93h12.12v2.81h-9v4h7.95v2.79h-7.95v4.65h9V104h-12.12ZM1305.62 101a5.31 5.31 0 0 1-1 1.49 5.59 5.59 0 0 1-2.39 1.4 10.39 10.39 0 0 1-3 .42 9.58 9.58 0 0 1-2.7-.39 6.14 6.14 0 0 1-2.39-1.36 5.74 5.74 0 0 1-1.27-1.72 4.92 4.92 0 0 1-.51-2.24h3.17a2.66 2.66 0 0 0 .26 1.16 3.24 3.24 0 0 0 .63.93 2.69 2.69 0 0 0 1.33.73 6.79 6.79 0 0 0 1.53.18 7 7 0 0 0 1.68-.2 2.67 2.67 0 0 0 1.27-.71 3.69 3.69 0 0 0 .48-.66 2 2 0 0 0 .19-1 1.65 1.65 0 0 0-.61-1.41 3.33 3.33 0 0 0-1.4-.61 16.66 16.66 0 0 0-1.9-.24 18.19 18.19 0 0 1-1.87-.22 6.22 6.22 0 0 1-1.67-.5 4.73 4.73 0 0 1-1.37-1 4.52 4.52 0 0 1-.94-1.41 4.9 4.9 0 0 1-.34-1.89 4.08 4.08 0 0 1 .41-1.85 5.5 5.5 0 0 1 1.08-1.51 5.65 5.65 0 0 1 2.16-1.32 8.52 8.52 0 0 1 5.46-.06 5.58 5.58 0 0 1 2.12 1.24 6.12 6.12 0 0 1 1.24 1.63 4.6 4.6 0 0 1 .49 2h-3.17a2.49 2.49 0 0 0-.23-.9 3.18 3.18 0 0 0-.51-.78 2.72 2.72 0 0 0-1.16-.67 4.62 4.62 0 0 0-1.44-.24 5.82 5.82 0 0 0-1.47.19 2.63 2.63 0 0 0-1.29.75 2.82 2.82 0 0 0-.42.62 2 2 0 0 0-.15.82 1.66 1.66 0 0 0 .48 1.28 2.26 2.26 0 0 0 1.25.56c.54.08 1.15.16 1.83.22s1.3.14 1.86.22a6.74 6.74 0 0 1 1.81.51 5 5 0 0 1 1.49 1 4.38 4.38 0 0 1 1 1.47 4.88 4.88 0 0 1 .37 2 5 5 0 0 1-.39 2.07ZM1167.15 126.23a9.61 9.61 0 0 1-.31 1.82 7.73 7.73 0 0 1-.66 1.63 6.67 6.67 0 0 1-3.37 2.92 7.66 7.66 0 0 1-2.65.46 7.55 7.55 0 0 1-2.63-.46 6.64 6.64 0 0 1-3.38-2.92 7.73 7.73 0 0 1-.66-1.63 9.61 9.61 0 0 1-.31-1.82c0-.63-.07-1.29-.07-2s0-1.37.07-2a9.5 9.5 0 0 1 .31-1.81 7.52 7.52 0 0 1 .66-1.63 6.3 6.3 0 0 1 1.12-1.47 6.17 6.17 0 0 1 2.26-1.45 7.55 7.55 0 0 1 2.63-.47 7.66 7.66 0 0 1 2.65.47 6.22 6.22 0 0 1 2.25 1.45 6.3 6.3 0 0 1 1.12 1.47 7.52 7.52 0 0 1 .66 1.63 9.5 9.5 0 0 1 .31 1.81c0 .63.07 1.3.07 2s-.02 1.37-.07 2Zm-3.1-3.22a8.58 8.58 0 0 0-.14-1.34 5.91 5.91 0 0 0-.37-1.26 3.42 3.42 0 0 0-.69-1 3.18 3.18 0 0 0-1.22-.84 3.85 3.85 0 0 0-2.93 0 3.18 3.18 0 0 0-1.22.84 3.42 3.42 0 0 0-.69 1 5.91 5.91 0 0 0-.37 1.26 8.58 8.58 0 0 0-.14 1.34v2.49a8.2 8.2 0 0 0 .14 1.32 6 6 0 0 0 .37 1.25 3.59 3.59 0 0 0 .69 1.06 3.29 3.29 0 0 0 1.22.84 3.85 3.85 0 0 0 2.93 0 3.29 3.29 0 0 0 1.22-.84 3.59 3.59 0 0 0 .69-1.06 6 6 0 0 0 .37-1.25 8.2 8.2 0 0 0 .14-1.32v-1.25c0-.39.02-.8 0-1.25ZM1170.22 115.73h3.1v14.09h7.89v2.93h-11ZM1183.42 115.73h12.12v2.81h-9v4h7.94v2.79h-7.94v4.65h9v2.81h-12.12ZM1200 127.66l-.67-6.6v-5.33h3.15v5.33l-.68 6.6Zm-.67 1.9h3.17v3.19h-3.17ZM1224.53 126.23a9.61 9.61 0 0 1-.31 1.82 7.73 7.73 0 0 1-.66 1.63 6.26 6.26 0 0 1-1.12 1.46 6.16 6.16 0 0 1-2.25 1.46 7.81 7.81 0 0 1-5.28 0 6.28 6.28 0 0 1-2.26-1.46 6.49 6.49 0 0 1-1.11-1.46 7.73 7.73 0 0 1-.66-1.63 9.61 9.61 0 0 1-.32-1.82c0-.63-.07-1.29-.07-2s0-1.37.07-2a9.5 9.5 0 0 1 .32-1.81 7.52 7.52 0 0 1 .66-1.63 6.54 6.54 0 0 1 1.11-1.47 6.25 6.25 0 0 1 2.26-1.45 7.65 7.65 0 0 1 5.28 0 6.13 6.13 0 0 1 2.25 1.45 6.3 6.3 0 0 1 1.12 1.47 7.52 7.52 0 0 1 .66 1.63 9.5 9.5 0 0 1 .31 1.81c0 .63.07 1.3.07 2s-.02 1.37-.07 2Zm-3.09-3.22a10 10 0 0 0-.15-1.34 5.91 5.91 0 0 0-.37-1.26 3.58 3.58 0 0 0-.68-1 3.29 3.29 0 0 0-1.23-.84 3.85 3.85 0 0 0-2.93 0 3.26 3.26 0 0 0-1.22.84 3.22 3.22 0 0 0-.68 1 5.93 5.93 0 0 0-.38 1.26 10 10 0 0 0-.14 1.34v2.49a9.52 9.52 0 0 0 .14 1.32 6 6 0 0 0 .38 1.25 3.47 3.47 0 0 0 1.9 1.9 3.85 3.85 0 0 0 2.93 0 3.41 3.41 0 0 0 1.23-.84 3.77 3.77 0 0 0 .68-1.06 6 6 0 0 0 .37-1.25 9.52 9.52 0 0 0 .15-1.32v-1.25c0-.39.01-.8 0-1.25ZM1227.6 115.73h3.1v14.09h7.9v2.93h-11ZM1240.8 115.73h12.12v2.81h-9v4h7.94v2.79h-7.94v4.65h9v2.81h-12.12ZM1257.39 127.66l-.68-6.6v-5.33h3.15v5.33l-.67 6.6Zm-.68 1.9h3.17v3.19h-3.17ZM1281.91 126.23a8.87 8.87 0 0 1-.31 1.82 7.73 7.73 0 0 1-.66 1.63 6.49 6.49 0 0 1-1.11 1.46 6.28 6.28 0 0 1-2.26 1.46 7.81 7.81 0 0 1-5.28 0 6.28 6.28 0 0 1-2.26-1.46 6.49 6.49 0 0 1-1.11-1.46 7.73 7.73 0 0 1-.66-1.63 8.87 8.87 0 0 1-.31-1.82c0-.63-.08-1.29-.08-2s0-1.37.08-2a8.78 8.78 0 0 1 .31-1.81 7.52 7.52 0 0 1 .66-1.63 6.54 6.54 0 0 1 1.11-1.47 6.25 6.25 0 0 1 2.26-1.45 7.65 7.65 0 0 1 5.28 0 6.25 6.25 0 0 1 2.26 1.45 6.54 6.54 0 0 1 1.11 1.47 7.52 7.52 0 0 1 .66 1.63 8.78 8.78 0 0 1 .31 1.81c0 .63.08 1.3.08 2s.01 1.37-.08 2Zm-3.09-3.22a10 10 0 0 0-.15-1.34 5.38 5.38 0 0 0-.37-1.26 3.39 3.39 0 0 0-.68-1 3.34 3.34 0 0 0-1.22-.84 4 4 0 0 0-1.47-.29 3.92 3.92 0 0 0-1.46.29 3.29 3.29 0 0 0-1.23.84 3.39 3.39 0 0 0-.68 1 5.91 5.91 0 0 0-.37 1.26 10 10 0 0 0-.19 1.33v2.49a9.52 9.52 0 0 0 .15 1.32 6 6 0 0 0 .37 1.25 3.56 3.56 0 0 0 .68 1.06 3.41 3.41 0 0 0 1.23.84 3.92 3.92 0 0 0 1.46.29 4 4 0 0 0 1.47-.29 3.46 3.46 0 0 0 1.22-.84 3.56 3.56 0 0 0 .68-1.06 5.45 5.45 0 0 0 .37-1.25 9.52 9.52 0 0 0 .15-1.32v-1.25c0-.39.05-.79.04-1.24ZM1285 115.73h3.09v14.09h7.9v2.93h-11ZM1298.19 115.73h12.12v2.81h-9v4h8v2.79h-8v4.65h9v2.81h-12.12ZM1314.77 127.66l-.67-6.6v-5.33h3.14v5.33l-.67 6.6Zm-.67 1.9h3.17v3.19h-3.17Z"/><path class="cls-19" d="m204.9 202.07.82-7.22h8v2.35H208l-.35 3.06a4.45 4.45 0 0 1 2.14-.54A4.1 4.1 0 0 1 213 201a5 5 0 0 1 1.15 3.53 5.13 5.13 0 0 1-.58 2.46 4.1 4.1 0 0 1-1.66 1.69 5.24 5.24 0 0 1-2.56.6 5.46 5.46 0 0 1-2.39-.52 4.28 4.28 0 0 1-1.75-1.47 4.09 4.09 0 0 1-.68-2.16h2.8a2.07 2.07 0 0 0 .62 1.38 2 2 0 0 0 1.39.5 1.72 1.72 0 0 0 1.47-.69 3.16 3.16 0 0 0 .52-2 2.68 2.68 0 0 0-.59-1.86 2.2 2.2 0 0 0-1.69-.64 2.43 2.43 0 0 0-1.64.53l-.27.25ZM214.05 171.69a7.17 7.17 0 0 1-1.23 4.51 4.87 4.87 0 0 1-7.12 0 7 7 0 0 1-1.26-4.4v-2.61a7.1 7.1 0 0 1 1.23-4.52 4.88 4.88 0 0 1 7.12 0 7 7 0 0 1 1.26 4.39Zm-2.83-2.88a5.26 5.26 0 0 0-.48-2.58 1.65 1.65 0 0 0-1.51-.8 1.6 1.6 0 0 0-1.47.77 4.92 4.92 0 0 0-.5 2.39v3.47a5.51 5.51 0 0 0 .47 2.58 1.63 1.63 0 0 0 1.52.85 1.56 1.56 0 0 0 1.49-.82 5.21 5.21 0 0 0 .48-2.48ZM1093.8 213l.82-7.23h8v2.36h-5.66l-.35 3a4.55 4.55 0 0 1 2.14-.53 4.1 4.1 0 0 1 3.18 1.26 5 5 0 0 1 1.16 3.52 5.15 5.15 0 0 1-.59 2.47 4.09 4.09 0 0 1-1.66 1.69 5.21 5.21 0 0 1-2.56.6 5.61 5.61 0 0 1-2.39-.52 4.28 4.28 0 0 1-1.75-1.47 4 4 0 0 1-.67-2.16h2.79a2.07 2.07 0 0 0 .62 1.38 2 2 0 0 0 1.39.49 1.75 1.75 0 0 0 1.48-.69 3.18 3.18 0 0 0 .51-1.94 2.68 2.68 0 0 0-.59-1.86 2.19 2.19 0 0 0-1.69-.64 2.43 2.43 0 0 0-1.63.52l-.28.26ZM1103.05 245.7a7.21 7.21 0 0 1-1.22 4.51 4.24 4.24 0 0 1-3.57 1.57 4.31 4.31 0 0 1-3.56-1.54 7 7 0 0 1-1.26-4.39v-2.62a7.08 7.08 0 0 1 1.24-4.52 4.9 4.9 0 0 1 7.11 0 7 7 0 0 1 1.26 4.39Zm-2.82-2.88a5.09 5.09 0 0 0-.49-2.57 1.62 1.62 0 0 0-1.5-.81 1.6 1.6 0 0 0-1.47.77 4.81 4.81 0 0 0-.51 2.4v3.46a5.37 5.37 0 0 0 .48 2.58 1.78 1.78 0 0 0 3 0 5.37 5.37 0 0 0 .48-2.48ZM704.05 287.2a7.21 7.21 0 0 1-1.22 4.51 4.24 4.24 0 0 1-3.57 1.57 4.31 4.31 0 0 1-3.56-1.54 7 7 0 0 1-1.26-4.39v-2.62a7.08 7.08 0 0 1 1.24-4.52 4.9 4.9 0 0 1 7.11 0 7 7 0 0 1 1.26 4.39Zm-2.82-2.88a5.09 5.09 0 0 0-.49-2.57 1.62 1.62 0 0 0-1.5-.81 1.6 1.6 0 0 0-1.47.77 4.81 4.81 0 0 0-.51 2.4v3.46a5.37 5.37 0 0 0 .48 2.58 1.78 1.78 0 0 0 3 0 5.37 5.37 0 0 0 .48-2.48ZM212.13 246.2v2.32h-.27a4.8 4.8 0 0 0-3.08 1 4 4 0 0 0-1.4 2.69 3.82 3.82 0 0 1 2.86-1.16 3.65 3.65 0 0 1 2.95 1.33 5.38 5.38 0 0 1 1.09 3.5 5.26 5.26 0 0 1-.6 2.51 4.34 4.34 0 0 1-1.7 1.75 5 5 0 0 1-2.49.62 4.61 4.61 0 0 1-3.62-1.56 6.07 6.07 0 0 1-1.39-4.17v-1a9.14 9.14 0 0 1 .88-4.08 6.38 6.38 0 0 1 2.51-2.75 7.35 7.35 0 0 1 3.79-1Zm-2.75 7.13a2.3 2.3 0 0 0-1.24.35 2.15 2.15 0 0 0-.82.95v.85a3.8 3.8 0 0 0 .55 2.21 1.81 1.81 0 0 0 1.57.8 1.79 1.79 0 0 0 1.47-.72 3 3 0 0 0 .56-1.86 2.92 2.92 0 0 0-.57-1.87 1.85 1.85 0 0 0-1.52-.71ZM207.35 283.71h1.5a2.09 2.09 0 0 0 1.59-.54 2 2 0 0 0 .52-1.43 1.73 1.73 0 0 0-.51-1.33 2 2 0 0 0-1.41-.48 2.11 2.11 0 0 0-1.36.44 1.41 1.41 0 0 0-.55 1.16h-2.82a3.49 3.49 0 0 1 .6-2 4 4 0 0 1 1.68-1.38 5.64 5.64 0 0 1 2.38-.5 5.3 5.3 0 0 1 3.53 1.08 3.67 3.67 0 0 1 1.28 3 3 3 0 0 1-.59 1.79 3.83 3.83 0 0 1-1.57 1.26 3.63 3.63 0 0 1 1.8 1.29 3.52 3.52 0 0 1 .59 2 3.72 3.72 0 0 1-1.39 3 5.55 5.55 0 0 1-3.65 1.14 5.25 5.25 0 0 1-3.48-1.12 3.65 3.65 0 0 1-1.36-3H207a1.65 1.65 0 0 0 .6 1.31 2.48 2.48 0 0 0 3.05 0 1.82 1.82 0 0 0 .57-1.41q0-2.13-2.34-2.13h-1.49ZM697.52 253.22H699a2.12 2.12 0 0 0 1.59-.54 2 2 0 0 0 .52-1.42 1.76 1.76 0 0 0-.52-1.34 2 2 0 0 0-1.41-.48 2.08 2.08 0 0 0-1.36.45 1.41 1.41 0 0 0-.54 1.15h-2.83a3.47 3.47 0 0 1 .61-2 4.07 4.07 0 0 1 1.68-1.39 5.59 5.59 0 0 1 2.37-.49 5.31 5.31 0 0 1 3.54 1.08 3.69 3.69 0 0 1 1.28 3 3 3 0 0 1-.6 1.8 4 4 0 0 1-1.56 1.26 3.32 3.32 0 0 1 2.38 3.32 3.73 3.73 0 0 1-1.38 3 5.51 5.51 0 0 1-3.66 1.15 5.26 5.26 0 0 1-3.48-1.13 3.68 3.68 0 0 1-1.35-3h2.82a1.63 1.63 0 0 0 .6 1.31 2.22 2.22 0 0 0 1.48.51 2.25 2.25 0 0 0 1.58-.53 1.85 1.85 0 0 0 .57-1.41q0-2.13-2.34-2.13h-1.5ZM697.52 201.72H699a2.12 2.12 0 0 0 1.59-.54 2 2 0 0 0 .52-1.42 1.76 1.76 0 0 0-.52-1.34 2 2 0 0 0-1.41-.48 2.08 2.08 0 0 0-1.36.45 1.41 1.41 0 0 0-.54 1.15h-2.83a3.47 3.47 0 0 1 .61-2 4.07 4.07 0 0 1 1.68-1.39 5.59 5.59 0 0 1 2.37-.49 5.31 5.31 0 0 1 3.54 1.08 3.69 3.69 0 0 1 1.28 3 3 3 0 0 1-.6 1.8 4 4 0 0 1-1.56 1.26 3.32 3.32 0 0 1 2.38 3.32 3.73 3.73 0 0 1-1.38 3 5.51 5.51 0 0 1-3.66 1.15 5.26 5.26 0 0 1-3.48-1.13 3.68 3.68 0 0 1-1.35-3h2.82a1.63 1.63 0 0 0 .6 1.31 2.22 2.22 0 0 0 1.48.51 2.25 2.25 0 0 0 1.58-.53 1.85 1.85 0 0 0 .57-1.41q0-2.13-2.34-2.13h-1.5ZM207.35 335.21h1.5a2.09 2.09 0 0 0 1.59-.54 2 2 0 0 0 .52-1.43 1.72 1.72 0 0 0-.51-1.33 2 2 0 0 0-1.41-.48 2.09 2.09 0 0 0-1.36.44 1.41 1.41 0 0 0-.55 1.16h-2.82a3.49 3.49 0 0 1 .6-2 4 4 0 0 1 1.68-1.38 5.64 5.64 0 0 1 2.38-.5 5.3 5.3 0 0 1 3.53 1.08 3.66 3.66 0 0 1 1.28 3 3 3 0 0 1-.59 1.8 3.83 3.83 0 0 1-1.57 1.26 3.63 3.63 0 0 1 1.8 1.29 3.52 3.52 0 0 1 .59 2 3.73 3.73 0 0 1-1.39 3 5.55 5.55 0 0 1-3.65 1.14 5.25 5.25 0 0 1-3.48-1.12 3.65 3.65 0 0 1-1.36-3H207a1.65 1.65 0 0 0 .6 1.31 2.48 2.48 0 0 0 3.05 0 1.82 1.82 0 0 0 .57-1.41q0-2.13-2.34-2.13h-1.49ZM211.33 375.07h-2.82v-10.88l-3.37 1v-2.29l5.89-2.11h.3Z"/><path class="cls-8" d="M35.61 370.15a7.13 7.13 0 0 1-2.81-1.36 2.61 2.61 0 0 1-.87-2 2.75 2.75 0 0 1 1.07-2.22 4.31 4.31 0 0 1 2.79-.88 4.69 4.69 0 0 1 2.09.46 3.4 3.4 0 0 1 1.42 1.25 3.16 3.16 0 0 1 .51 1.74H38.3a2.09 2.09 0 0 0-.66-1.63 2.67 2.67 0 0 0-1.85-.59 2.72 2.72 0 0 0-1.73.49 1.65 1.65 0 0 0-.62 1.36A1.5 1.5 0 0 0 34 368a5.82 5.82 0 0 0 2 .88 9.28 9.28 0 0 1 2.22.88 3.28 3.28 0 0 1 1.18 1.12 2.82 2.82 0 0 1 .39 1.5 2.66 2.66 0 0 1-1.08 2.22 4.63 4.63 0 0 1-2.88.83 5.36 5.36 0 0 1-2.19-.45 3.67 3.67 0 0 1-1.56-1.23 3 3 0 0 1-.55-1.77h1.5a2 2 0 0 0 .77 1.63 3.16 3.16 0 0 0 2 .59 3 3 0 0 0 1.82-.48 1.57 1.57 0 0 0 .63-1.32 1.53 1.53 0 0 0-.58-1.29 6.67 6.67 0 0 0-2.06-.96ZM41.14 370.92a5 5 0 0 1 .49-2.23 3.72 3.72 0 0 1 1.37-1.54 3.77 3.77 0 0 1 2-.53 3.54 3.54 0 0 1 2.79 1.19 4.62 4.62 0 0 1 1.05 3.19v.1a5.13 5.13 0 0 1-.47 2.22 3.63 3.63 0 0 1-1.37 1.51 3.71 3.71 0 0 1-2 .55 3.58 3.58 0 0 1-2.79-1.19 4.61 4.61 0 0 1-1.07-3.19Zm1.46.17a3.59 3.59 0 0 0 .65 2.26 2.08 2.08 0 0 0 1.75.85 2.1 2.1 0 0 0 1.75-.86 4 4 0 0 0 .64-2.42 3.58 3.58 0 0 0-.66-2.25 2.08 2.08 0 0 0-1.73-.87 2.11 2.11 0 0 0-1.73.85 4 4 0 0 0-.67 2.44ZM51.36 375.23v-7.34H50v-1.12h1.33v-.87a2.87 2.87 0 0 1 .73-2.1 2.75 2.75 0 0 1 2-.74 4.22 4.22 0 0 1 1 .13l-.08 1.17a4 4 0 0 0-.78-.07 1.4 1.4 0 0 0-1.09.41 1.69 1.69 0 0 0-.38 1.18v.89h1.8v1.12h-1.8v7.34ZM58.17 364.73v2h1.58v1.12h-1.58v5.25a1.17 1.17 0 0 0 .21.76.89.89 0 0 0 .72.25 3.62 3.62 0 0 0 .68-.09v1.17a4.34 4.34 0 0 1-1.1.15 1.82 1.82 0 0 1-1.47-.58 2.6 2.6 0 0 1-.49-1.67v-5.24h-1.54v-1.12h1.54v-2ZM68.92 373.23l1.62-6.46H72l-2.46 8.46h-1.19l-2-6.41-2 6.41h-1.22l-2.45-8.46h1.43l1.67 6.33 2-6.33h1.16ZM78.68 375.23a2.81 2.81 0 0 1-.21-.9 3.21 3.21 0 0 1-2.4 1.05 2.92 2.92 0 0 1-2-.71 2.26 2.26 0 0 1-.81-1.79 2.4 2.4 0 0 1 1-2.05 4.71 4.71 0 0 1 2.74-.73h1.41v-.66a1.63 1.63 0 0 0-.45-1.21 1.84 1.84 0 0 0-1.34-.45 2.11 2.11 0 0 0-1.3.39 1.15 1.15 0 0 0-.52.95h-1.41a2 2 0 0 1 .45-1.23 3 3 0 0 1 1.21-.93 4.13 4.13 0 0 1 1.7-.34 3.31 3.31 0 0 1 2.28.73 2.58 2.58 0 0 1 .86 2v3.89a4.7 4.7 0 0 0 .3 1.85v.13Zm-2.4-1.11a2.5 2.5 0 0 0 1.29-.35 2.14 2.14 0 0 0 .88-.91v-1.74h-1.13c-1.78 0-2.66.52-2.66 1.56a1.31 1.31 0 0 0 .45 1.06 1.72 1.72 0 0 0 1.17.38ZM86.25 368.07a4 4 0 0 0-.72-.06 1.92 1.92 0 0 0-1.93 1.22v6h-1.44v-8.46h1.41v1a2.23 2.23 0 0 1 2-1.13 1.41 1.41 0 0 1 .65.11ZM91.08 375.38a3.69 3.69 0 0 1-2.8-1.13 4.22 4.22 0 0 1-1.07-3V371a5.09 5.09 0 0 1 .48-2.25 3.75 3.75 0 0 1 1.31-1.58 3.4 3.4 0 0 1 1.87-.55 3.17 3.17 0 0 1 2.56 1.08 4.71 4.71 0 0 1 .92 3.11v.6h-5.7a3 3 0 0 0 .73 2 2.32 2.32 0 0 0 1.78.77 2.53 2.53 0 0 0 1.3-.31 3.47 3.47 0 0 0 .93-.83l.88.69a3.55 3.55 0 0 1-3.19 1.65Zm-.18-7.58a2 2 0 0 0-1.47.64 3.1 3.1 0 0 0-.73 1.79h4.23v-.11a2.75 2.75 0 0 0-.59-1.71 1.84 1.84 0 0 0-1.44-.61Z"/><path class="cls-19" d="m214.14 81.92-5.5 12.65h-3l5.5-11.95h-7.04v-2.27h10ZM704.27 165.94l-5.5 12.64h-3l5.51-11.94h-7.07v-2.28h10ZM214.22 126.07h-9.75v-1.94l4.6-4.9a11.15 11.15 0 0 0 1.41-1.81 2.9 2.9 0 0 0 .45-1.46 2.17 2.17 0 0 0-.48-1.49 1.73 1.73 0 0 0-1.37-.54 1.84 1.84 0 0 0-1.5.66 2.59 2.59 0 0 0-.56 1.73h-2.83a4.66 4.66 0 0 1 .62-2.37 4.45 4.45 0 0 1 1.75-1.69 5.45 5.45 0 0 1 2.57-.61 5 5 0 0 1 3.42 1.06 3.71 3.71 0 0 1 1.21 3 4.82 4.82 0 0 1-.54 2.15 12 12 0 0 1-1.88 2.55l-3.23 3.41h6.11Z"/><path class="cls-9" d="M530 173.78a4.16 4.16 0 0 1-1.33 2.79 4.39 4.39 0 0 1-3 1 4 4 0 0 1-3.23-1.45 5.79 5.79 0 0 1-1.21-3.86v-1.1a6.65 6.65 0 0 1 .56-2.79 4.27 4.27 0 0 1 1.61-1.84 4.45 4.45 0 0 1 2.4-.65 4.14 4.14 0 0 1 2.91 1 4.25 4.25 0 0 1 1.27 2.8h-1.5a3.31 3.31 0 0 0-.85-2 2.56 2.56 0 0 0-1.83-.61 2.68 2.68 0 0 0-2.25 1.06 4.92 4.92 0 0 0-.82 3v1.1a5 5 0 0 0 .78 2.95 2.48 2.48 0 0 0 2.16 1.09 3 3 0 0 0 1.92-.56 3.16 3.16 0 0 0 .89-2ZM531.83 166.7a.86.86 0 0 1 .22-.6.79.79 0 0 1 .63-.24.8.8 0 0 1 .64.24.86.86 0 0 1 .22.6.79.79 0 0 1-.22.58.8.8 0 0 1-.64.24.79.79 0 0 1-.85-.82Zm1.57 10.69H532v-8.45h1.45ZM538.5 175.43l2.09-6.49h1.48l-3 8.45h-1.11l-3.06-8.45h1.48ZM543.47 166.7a.9.9 0 0 1 .21-.6.82.82 0 0 1 .64-.24.83.83 0 0 1 .64.24.9.9 0 0 1 .22.6.79.79 0 0 1-.86.82.82.82 0 0 1-.64-.24.83.83 0 0 1-.21-.58Zm1.53 10.69h-1.45v-8.45H545ZM548.91 177.39h-1.44v-12h1.44ZM559.79 177.39h-1.46v-9.63l-2.91 1.07v-1.31l4.14-1.56h.23Z"/><path class="cls-7" d="M933 214.61a4.2 4.2 0 0 1-1.33 2.79 4.39 4.39 0 0 1-3 1 4 4 0 0 1-3.23-1.45 5.8 5.8 0 0 1-1.21-3.87V212a6.44 6.44 0 0 1 .56-2.79 4.23 4.23 0 0 1 1.61-1.85 4.44 4.44 0 0 1 2.4-.64 4.14 4.14 0 0 1 2.91 1 4.25 4.25 0 0 1 1.27 2.8h-1.5a3.26 3.26 0 0 0-.85-2 2.56 2.56 0 0 0-1.83-.61 2.68 2.68 0 0 0-2.25 1.06 4.92 4.92 0 0 0-.82 3v1.1a5 5 0 0 0 .78 2.95 2.48 2.48 0 0 0 2.16 1.09 2.89 2.89 0 0 0 1.92-.57 3.16 3.16 0 0 0 .89-2ZM934.83 207.53a.84.84 0 0 1 .22-.6.79.79 0 0 1 .63-.24.82.82 0 0 1 .64.24.84.84 0 0 1 .22.6.79.79 0 0 1-.86.82.79.79 0 0 1-.63-.24.81.81 0 0 1-.22-.58Zm1.56 10.69H935v-8.45h1.44ZM941.5 216.26l2.09-6.49h1.48l-3 8.45h-1.1l-3.06-8.45h1.48ZM946.46 207.53a.89.89 0 0 1 .22-.6.8.8 0 0 1 .64-.24.83.83 0 0 1 .64.24.89.89 0 0 1 .22.6.85.85 0 0 1-.22.58.83.83 0 0 1-.64.24.8.8 0 0 1-.64-.24.85.85 0 0 1-.22-.58Zm1.54 10.69h-1.45v-8.45H948ZM951.91 218.22h-1.45v-12h1.45ZM962.78 218.22h-1.45v-9.63l-2.91 1.07v-1.31l4.14-1.56h.22Z"/><path class="cls-8" d="M527.68 203.64h-4.93v4h5.72v1.22h-7.22v-11.34h7.15v1.22h-5.65v3.67h4.93ZM531.68 208.89h-1.44v-12h1.44ZM537.5 209.05a3.7 3.7 0 0 1-2.79-1.13 4.18 4.18 0 0 1-1.08-3v-.26a5.09 5.09 0 0 1 .48-2.25 3.76 3.76 0 0 1 1.34-1.55 3.41 3.41 0 0 1 1.87-.56 3.2 3.2 0 0 1 2.57 1.09 4.69 4.69 0 0 1 .91 3.11v.6h-5.73a3 3 0 0 0 .74 2 2.28 2.28 0 0 0 1.77.77 2.53 2.53 0 0 0 1.3-.31 3.47 3.47 0 0 0 .93-.83l.88.69a3.55 3.55 0 0 1-3.19 1.63Zm-.18-7.58a1.89 1.89 0 0 0-1.46.64 3.1 3.1 0 0 0-.74 1.78h4.24v-.11a2.75 2.75 0 0 0-.6-1.7 1.79 1.79 0 0 0-1.44-.61ZM545.86 207.87a2.12 2.12 0 0 0 1.36-.47 1.69 1.69 0 0 0 .64-1.17h1.36a2.56 2.56 0 0 1-.5 1.38 3.17 3.17 0 0 1-1.23 1 3.53 3.53 0 0 1-1.63.39 3.46 3.46 0 0 1-2.74-1.15 4.6 4.6 0 0 1-1-3.16v-.24a5.1 5.1 0 0 1 .45-2.19 3.44 3.44 0 0 1 1.3-1.49 3.68 3.68 0 0 1 2-.54 3.4 3.4 0 0 1 2.36.86 3 3 0 0 1 1 2.21h-1.36a2 2 0 0 0-.63-1.35 1.93 1.93 0 0 0-1.37-.53 2 2 0 0 0-1.71.79 3.77 3.77 0 0 0-.61 2.3v.27a3.61 3.61 0 0 0 .61 2.25 2 2 0 0 0 1.7.84ZM552.81 198.39v2.05h1.58v1.12h-1.58v5.25a1.17 1.17 0 0 0 .21.76.89.89 0 0 0 .72.25 3.71 3.71 0 0 0 .69-.09v1.16a4 4 0 0 1-1.11.16 1.79 1.79 0 0 1-1.46-.59 2.49 2.49 0 0 1-.5-1.66v-5.24h-1.54v-1.12h1.54v-2.05ZM560.16 201.74a4 4 0 0 0-.71-.06 1.91 1.91 0 0 0-1.93 1.21v6h-1.45v-8.45h1.41v1a2.26 2.26 0 0 1 2-1.14 1.53 1.53 0 0 1 .64.11ZM561.5 198.2a.9.9 0 0 1 .21-.6.82.82 0 0 1 .64-.24.83.83 0 0 1 .64.24.9.9 0 0 1 .22.6.79.79 0 0 1-.86.82.82.82 0 0 1-.64-.24.83.83 0 0 1-.21-.58Zm1.56 10.69h-1.45v-8.45h1.45ZM568.76 207.87a2.07 2.07 0 0 0 1.35-.47 1.62 1.62 0 0 0 .64-1.17h1.37a2.56 2.56 0 0 1-.5 1.38 3.32 3.32 0 0 1-1.23 1 3.53 3.53 0 0 1-1.63.39 3.46 3.46 0 0 1-2.76-1.1 4.6 4.6 0 0 1-1-3.16v-.24a5.1 5.1 0 0 1 .45-2.19 3.44 3.44 0 0 1 1.3-1.49 3.65 3.65 0 0 1 2-.54 3.4 3.4 0 0 1 2.37.86 3 3 0 0 1 1 2.21h-1.37a2 2 0 0 0-2-1.88 2 2 0 0 0-1.7.79 3.71 3.71 0 0 0-.61 2.3v.27a3.67 3.67 0 0 0 .6 2.25 2 2 0 0 0 1.72.79ZM579 208.89a2.66 2.66 0 0 1-.21-.89 3.21 3.21 0 0 1-2.4 1.05 3 3 0 0 1-2.05-.71 2.27 2.27 0 0 1-.81-1.79 2.4 2.4 0 0 1 1-2.05 4.71 4.71 0 0 1 2.82-.73h1.41v-.67a1.62 1.62 0 0 0-.45-1.2 1.84 1.84 0 0 0-1.34-.45 2.11 2.11 0 0 0-1.3.39 1.13 1.13 0 0 0-.52.94h-1.45a2 2 0 0 1 .45-1.22 3 3 0 0 1 1.21-.93 4.14 4.14 0 0 1 1.7-.35 3.35 3.35 0 0 1 2.28.73 2.62 2.62 0 0 1 .86 2v3.89a4.73 4.73 0 0 0 .3 1.85v.12Zm-2.4-1.1a2.61 2.61 0 0 0 1.29-.35 2.14 2.14 0 0 0 .88-.91v-1.74h-1.13c-1.77 0-2.66.52-2.66 1.56a1.33 1.33 0 0 0 .45 1.06 1.77 1.77 0 0 0 1.14.38ZM584 208.89h-1.45v-12H584ZM590.52 208.89v-11.37h3.72a4.31 4.31 0 0 1 2.78.76 2.75 2.75 0 0 1 .94 2.27 2.27 2.27 0 0 1-.46 1.41 2.88 2.88 0 0 1-1.23.95 2.67 2.67 0 0 1 1.46 1 2.86 2.86 0 0 1 .53 1.72 3.05 3.05 0 0 1-1 2.41 4.12 4.12 0 0 1-2.8.87Zm1.5-6.52h2.27a2.36 2.36 0 0 0 1.57-.49 1.67 1.67 0 0 0 .59-1.34 1.62 1.62 0 0 0-.55-1.37 2.7 2.7 0 0 0-1.66-.43H592Zm0 1.2v4.1h2.48a2.35 2.35 0 0 0 1.65-.55 1.91 1.91 0 0 0 .6-1.49c0-1.37-.74-2.06-2.23-2.06Z"/><path class="cls-9" d="M521.25 260.39V249H525a4.31 4.31 0 0 1 2.78.76 2.77 2.77 0 0 1 .93 2.27 2.33 2.33 0 0 1-.45 1.41 2.88 2.88 0 0 1-1.23.95 2.61 2.61 0 0 1 1.45 1 2.8 2.8 0 0 1 .54 1.72 3.05 3.05 0 0 1-1 2.41 4.13 4.13 0 0 1-2.81.87Zm1.5-6.52H525a2.39 2.39 0 0 0 1.58-.49 1.67 1.67 0 0 0 .59-1.34 1.65 1.65 0 0 0-.55-1.37 2.72 2.72 0 0 0-1.66-.43h-2.22Zm0 1.2v4.1h2.47a2.38 2.38 0 0 0 1.66-.55 1.91 1.91 0 0 0 .6-1.49c0-1.37-.74-2.06-2.23-2.06ZM531 249.7a.9.9 0 0 1 .21-.6.83.83 0 0 1 .64-.24.82.82 0 0 1 .64.24.86.86 0 0 1 .22.6.79.79 0 0 1-.22.58.82.82 0 0 1-.64.24.78.78 0 0 1-.85-.82Zm1.56 10.69h-1.44v-8.45h1.44ZM534.48 256.09a5 5 0 0 1 .49-2.24 3.62 3.62 0 0 1 1.36-1.53 3.69 3.69 0 0 1 2-.54 3.55 3.55 0 0 1 2.79 1.2 4.62 4.62 0 0 1 1.07 3.18v.1a5 5 0 0 1-.48 2.22 3.5 3.5 0 0 1-1.35 1.52 3.69 3.69 0 0 1-2 .55 3.55 3.55 0 0 1-2.78-1.2 4.56 4.56 0 0 1-1.07-3.16Zm1.45.17a3.59 3.59 0 0 0 .66 2.26 2.21 2.21 0 0 0 3.49 0 4 4 0 0 0 .65-2.42 3.63 3.63 0 0 0-.66-2.26 2.2 2.2 0 0 0-3.48 0 3.92 3.92 0 0 0-.66 2.42ZM545.35 251.94v.94a3.12 3.12 0 0 1 2.51-1.1 2.43 2.43 0 0 1 2.41 1.36 3.18 3.18 0 0 1 2.69-1.36c1.86 0 2.8 1 2.83 2.95v5.66h-1.44v-5.57a1.93 1.93 0 0 0-.42-1.36 1.81 1.81 0 0 0-1.39-.45 1.91 1.91 0 0 0-1.33.48 1.93 1.93 0 0 0-.62 1.29v5.61h-1.45v-5.54a1.62 1.62 0 0 0-1.81-1.84 1.91 1.91 0 0 0-1.94 1.21v6.17H544v-8.45ZM561.52 260.55a3.71 3.71 0 0 1-2.8-1.13 4.18 4.18 0 0 1-1.07-3v-.26a5.09 5.09 0 0 1 .48-2.25 3.75 3.75 0 0 1 1.34-1.55 3.39 3.39 0 0 1 1.87-.56 3.17 3.17 0 0 1 2.56 1.09 4.69 4.69 0 0 1 .92 3.11v.6h-5.73a3 3 0 0 0 .73 2 2.32 2.32 0 0 0 1.78.77 2.53 2.53 0 0 0 1.3-.31 3.29 3.29 0 0 0 .92-.83l.89.69a3.55 3.55 0 0 1-3.19 1.63Zm-.18-7.58a1.93 1.93 0 0 0-1.47.64 3.09 3.09 0 0 0-.73 1.78h4.23v-.11a2.75 2.75 0 0 0-.59-1.7 1.82 1.82 0 0 0-1.44-.58ZM566.14 256.1a4.92 4.92 0 0 1 .92-3.13 3.12 3.12 0 0 1 4.76-.17v-4.41h1.45v12h-1.33l-.07-.9a2.93 2.93 0 0 1-2.41 1.06 2.9 2.9 0 0 1-2.4-1.2 5.07 5.07 0 0 1-.92-3.14Zm1.44.16a3.71 3.71 0 0 0 .6 2.25 1.91 1.91 0 0 0 1.64.81 2.1 2.1 0 0 0 2-1.23v-3.88a2.11 2.11 0 0 0-2-1.2 1.9 1.9 0 0 0-1.65.82 4.11 4.11 0 0 0-.59 2.43Z"/><path class="cls-8" d="M924.25 250.39V239H928a4.32 4.32 0 0 1 2.79.76 2.77 2.77 0 0 1 .93 2.27 2.33 2.33 0 0 1-.45 1.41 2.88 2.88 0 0 1-1.23.95 2.61 2.61 0 0 1 1.45 1 2.8 2.8 0 0 1 .54 1.72 3.05 3.05 0 0 1-1 2.41 4.15 4.15 0 0 1-2.81.87Zm1.5-6.52H928a2.39 2.39 0 0 0 1.58-.49 1.67 1.67 0 0 0 .59-1.34 1.65 1.65 0 0 0-.55-1.37 2.73 2.73 0 0 0-1.67-.43h-2.21Zm0 1.2v4.1h2.47a2.33 2.33 0 0 0 1.65-.55 1.88 1.88 0 0 0 .61-1.49c0-1.37-.75-2.06-2.23-2.06ZM934 239.7a.9.9 0 0 1 .21-.6 1 1 0 0 1 1.28 0 .86.86 0 0 1 .22.6.79.79 0 0 1-.22.58.85.85 0 0 1-1.49-.58Zm1.56 10.69h-1.44v-8.45h1.44ZM937.48 246.09a5 5 0 0 1 .49-2.24 3.62 3.62 0 0 1 1.36-1.53 3.69 3.69 0 0 1 2-.54 3.55 3.55 0 0 1 2.79 1.2 4.62 4.62 0 0 1 1.07 3.18v.1a5 5 0 0 1-.48 2.22 3.5 3.5 0 0 1-1.35 1.52 3.69 3.69 0 0 1-2 .55 3.55 3.55 0 0 1-2.78-1.2 4.56 4.56 0 0 1-1.07-3.16Zm1.45.17a3.59 3.59 0 0 0 .66 2.26 2.21 2.21 0 0 0 3.49 0 4 4 0 0 0 .65-2.42 3.63 3.63 0 0 0-.66-2.26 2.2 2.2 0 0 0-3.48 0 3.92 3.92 0 0 0-.66 2.42ZM948.35 241.94v.94a3.11 3.11 0 0 1 2.5-1.1 2.43 2.43 0 0 1 2.42 1.36 3.18 3.18 0 0 1 2.69-1.36c1.86 0 2.8 1 2.83 2.95v5.66h-1.44v-5.57a1.93 1.93 0 0 0-.42-1.36 1.81 1.81 0 0 0-1.39-.45 1.89 1.89 0 0 0-1.33.48 1.93 1.93 0 0 0-.62 1.29v5.61h-1.45v-5.54a1.62 1.62 0 0 0-1.81-1.84 1.91 1.91 0 0 0-1.94 1.21v6.17H947v-8.45ZM964.52 250.55a3.71 3.71 0 0 1-2.8-1.13 4.18 4.18 0 0 1-1.08-3v-.26a5.09 5.09 0 0 1 .48-2.25 3.78 3.78 0 0 1 1.35-1.55 3.39 3.39 0 0 1 1.87-.56 3.17 3.17 0 0 1 2.56 1.09 4.69 4.69 0 0 1 .92 3.11v.6h-5.73a3 3 0 0 0 .73 2 2.32 2.32 0 0 0 1.78.77 2.47 2.47 0 0 0 1.29-.31 3.2 3.2 0 0 0 .93-.83l.89.69a3.55 3.55 0 0 1-3.19 1.63Zm-.18-7.58a1.93 1.93 0 0 0-1.47.64 3 3 0 0 0-.73 1.78h4.23v-.11a2.75 2.75 0 0 0-.59-1.7 1.82 1.82 0 0 0-1.44-.58ZM969.14 246.1a4.92 4.92 0 0 1 .92-3.13 3.12 3.12 0 0 1 4.76-.17v-4.41h1.45v12h-1.33l-.07-.9a2.93 2.93 0 0 1-2.41 1.06 2.9 2.9 0 0 1-2.4-1.2 5 5 0 0 1-.92-3.14Zm1.44.16a3.71 3.71 0 0 0 .6 2.25 1.91 1.91 0 0 0 1.64.81 2.1 2.1 0 0 0 2-1.23v-3.88a2.11 2.11 0 0 0-2-1.2 1.9 1.9 0 0 0-1.65.82 4.11 4.11 0 0 0-.59 2.43ZM522.75 291.66h-1.5v-11.38h1.5ZM533.35 281.51h-3.66v10.15h-1.49v-10.15h-3.65v-1.23h8.8Z"/></g></g></svg>