<?xml version="1.0" encoding="utf-8"?>
<!-- Generator: Adobe Illustrator 26.0.1, SVG Export Plug-In . SVG Version: 6.00 Build 0)  -->
<svg version="1.1" id="Layer_1" xmlns="http://www.w3.org/2000/svg" xmlns:xlink="http://www.w3.org/1999/xlink" x="0px" y="0px"
	 viewBox="0 0 1356 395.2" style="enable-background:new 0 0 1356 395.2;" xml:space="preserve">
<style type="text/css">
	.st0{fill:#0F172A;}
	.st1{fill:#E5DFFF;stroke:#FFFFFF;stroke-width:3;stroke-miterlimit:10;}
	.st2{fill:#AC9FFF;}
	.st3{fill:#15005F;}
	.st4{fill:#E5DFFF;}
	.st5{fill:#1E293B;}
	.st6{fill:#E2E8F0;}
	.st7{fill:#9CA3AF;}
	.st8{fill:#FFFFFF;}
	.st9{fill:none;stroke:#9CA3AF;stroke-miterlimit:10;}
	.st10{stroke:#E5E7EB;stroke-width:0.75;stroke-miterlimit:10;}
	.st11{font-family:'Roboto-Bold';}
	.st12{font-size:16px;}
	.st13{fill:none;stroke:#FFFFFF;stroke-width:0.5033;stroke-miterlimit:10.0658;}
	.st14{font-size:16.1053px;}
	.st15{fill:none;stroke:#FFFFFF;stroke-width:0.5;stroke-miterlimit:10;}
	.st16{fill:none;stroke:#FFFFFF;stroke-width:0.4986;stroke-miterlimit:9.9725;}
	.st17{font-size:15.9559px;}
	.st18{font-size:16.02px;}
	.st19{font-size:15.9976px;}
	.st20{fill:none;stroke:#FFFFFF;stroke-width:0.4982;stroke-miterlimit:9.9639;}
	.st21{font-size:15.9423px;}
	.st22{fill:none;stroke:#FFFFFF;stroke-width:0.5014;stroke-miterlimit:10.0285;}
	.st23{font-size:16.0455px;}
	.st24{fill:#1E293B;stroke:#9CA3AF;stroke-miterlimit:10;}
	.st25{fill:#7878AB;stroke:#000000;stroke-width:0.5;stroke-miterlimit:10;}
	.st26{fill:#8789B9;stroke:#000000;stroke-width:0.5;stroke-miterlimit:10;}
	.st27{fill:#ABAAD5;stroke:#000000;stroke-width:0.5;stroke-miterlimit:10;}
	.st28{fill:#FFFFFF;stroke:#000000;stroke-width:0.5;stroke-miterlimit:10;}
	.st29{fill:none;stroke:#000000;stroke-width:0.5;stroke-miterlimit:10;}
	.st30{fill:#334155;}
	.st31{font-size:20px;}
</style>
<g id="Layer_2_00000079464384833242826730000014800546725081208746_">
	<g id="Layer_1-2">
		<path class="st0" d="M0,0h1356v395.2H0V0z"/>
		<path class="st1" d="M1302,169.5c-8.1-24-30.9-9.4-30.9-9.4l-0.9-7c-24.1-9.9-48.2-7.2-62.5-3.9l-13.1,3.9l-1,5.2
			c-0.6-0.3-17.5-7.1-25.8,2.8c-3.9,3.6-4.9,8.1-4.4,12.9c0,0.8-0.1,12.9,16.2,29.8c1.3,1.4,2.8,2.8,4.4,4.3s3.3,3,5.2,4.5
			c2.6,2.2,5.6,4.4,8.8,6.7c1.3,0.9,2.6,1.8,4,2.7s2.8,1.9,4.3,2.8c0.5,0.7,7.8,11.9,16.8,16.2c0,0,0.1,0,0.1,0l-0.3,8.3
			c0,0-0.3,1,1.1,1.4c0.2,0.1,0.4,0.2,0.6,0.3h0.9c0.2,0,0.3,0,0.5,0h0.1c0.6,0.1-0.3,4.2-1.7,9.2c-2,7.2-4.8,16.1-4.9,16.4
			l-4.1,3.8c0,0,0,0,0,0.1v0.1c0,0,0,0.1,0,0.1l-0.1,0.2c-0.3,1.2-1.3,4.1-3,4.6c-2.1,0.4-7.9,0.7-7.9,0.7c-1.7,1.4-3,3.1-3.8,5.2
			c0,0,0,1.7-2.1,4.1c0.2,0.8,0.6,1.5,1.2,2c0.3,0.3,0.6,0.6,1,0.9c1.1,1.1,2.4,2.1,3.6,1.9c4.6,1.8,12.8,3.3,27.4,2.9
			c32.6-0.9,33.6-8.5,33.6-8.5s0.7-0.3-1.7-2.4c0,0-1.7-8.6-11-6.9c0,0-12.2-13.3-13.8-31l0.8-1.1l-0.1-3l-11,0.5l12.1-0.5v-8.6
			c1.6-1,3-1.9,4.3-2.8c8.8-6.2,8.5-10,8.5-10C1310.1,198.4,1302,169.5,1302,169.5L1302,169.5z"/>
		<path class="st2" d="M1228.3,250.9l12.1-0.5v-6.6h-12.8C1224.7,248.8,1227.2,250.4,1228.3,250.9z M1224.6,251.1h0.9
			c-0.5,0-1-0.1-1.5-0.2C1224.1,251,1224.4,251,1224.6,251.1z M1215.1,280.9c-0.3,1.2-1.3,4.1-3,4.6
			C1213.8,285.3,1214.8,282.2,1215.1,280.9z M1200.6,298.5c-0.3-0.3-0.6-0.6-1-0.9C1199.9,297.9,1200.3,298.2,1200.6,298.5z"/>
		<path class="st2" d="M1236.8,252.6c-2.6,1.3-5.6,1.8-8.4,1.2l-0.7,8.1v3.5l-5.9,13.9c-2.6,2.2-4.7,4.9-6.2,7.9l5.4,4.5
			c-19.7-3.1-14.3,2.3-14.3,2.3l-2.6,6.3c4.6,1.8,12.8,3.3,27.4,2.9c32.6-0.9,33.6-8.5,33.6-8.5s0.7-0.3-1.7-2.4c0,0-1.7-8.6-11-6.9
			c0,0-12.2-13.3-13.8-31l0.8-1.1l-0.1-3l-11,0.5c0.2,0.1,0.3,0.1,0.5,0.2L1236.8,252.6z M1259,291.8l1.4,1.5l-6.2,2.9h-3.1
			l-4.2,1.8l-8.3-0.1l-1.9-3.1h10.2L1259,291.8z M1239.2,265.5l-0.1,2.2l7.9,17.9l-3.8,3.5l-5.2-1.4l-2.1-5.9l-1.4-24.1h1.1
			L1239.2,265.5z"/>
		<path class="st3" d="M1167.8,161.1c-3.9,3.6-4.9,8.1-4.4,12.9v0C1163.8,168,1165.5,163.9,1167.8,161.1z"/>
		<path class="st2" d="M1202,222c-1.4-0.9-2.7-1.8-4-2.7C1199.2,220.1,1200.6,221,1202,222z M1302,169.5c-8.1-24-30.9-9.4-30.9-9.4
			l-0.9-7c-24.1-9.9-48.2-7.2-62.5-3.9c-3.5,7.1,4.8,52.2,5.5,62.2s11.3,20.3,11.3,20.3l10.1,4l2.2-0.8l7.1,0.7l0.8,3.4l-4.3,2.8
			c1.6-1,3-1.9,4.3-2.8c8.8-6.2,8.5-10,8.5-10C1310.1,198.4,1302,169.5,1302,169.5L1302,169.5z M1253.2,213.2
			c-8.6,3.8-8.3-3.4-8.3-3.4l2.8-57.9c20-0.4,18.3,5.5,18.3,5.5c0.7,16.6-6.2,45.5-6.2,45.5C1258.4,212.1,1253.2,213.2,1253.2,213.2
			L1253.2,213.2z M1260.5,218c0,0,9.7-36.6,9.3-50.3c0,0,14.1-14.1,25.8-0.7C1295.6,167,1303.9,192.1,1260.5,218L1260.5,218z
			 M1206.3,224.7c-1.5-0.9-2.9-1.8-4.3-2.7C1203.4,222.9,1204.8,223.8,1206.3,224.7L1206.3,224.7z"/>
		<path class="st3" d="M1226,251L1226,251l2.3-0.1L1226,251z M1219.4,276.6c2.1-4.4,3.8-11,4.9-16.4
			C1222.3,267.4,1219.5,276.3,1219.4,276.6z M1204.2,286.3c0,0,5.9,0,7.9-0.7C1210.1,285.9,1204.2,286.3,1204.2,286.3z
			 M1225.5,251.1c0.2,0,0.3,0,0.5,0H1225.5L1225.5,251.1z M1204.2,300.4c-1.3-0.5-2.5-1.1-3.6-1.9
			C1201.7,299.6,1203,300.5,1204.2,300.4z M1206.3,224.8c0.5,0.7,7.8,11.9,16.8,16.2C1221.9,240.4,1213.9,235.7,1206.3,224.8z
			 M1179.6,203.8c-0.9-1.2-1.8-2.4-2.6-3.7c0,0-12.2-13.6-13.6-26.1C1163.4,174.8,1163.3,186.9,1179.6,203.8c3,3.1,6.2,6,9.6,8.8
			C1185.9,209.8,1182.7,206.9,1179.6,203.8z M1193.5,158.4c-0.6-0.3-17.5-7.1-25.8,2.8c1-0.9,2.2-1.7,3.4-2.4
			C1171.1,158.7,1176.7,152.5,1193.5,158.4z M1222.9,249.4c0,0-0.3,1,1.1,1.4C1223.4,250.5,1223,250,1222.9,249.4z"/>
		<path class="st3" d="M1222.9,249.4c0.2,0.6,0.5,1.1,1.1,1.4c0.5,0.2,1,0.2,1.5,0.2h0.5l2.3-0.1c-1.1-0.5-3.7-2.2-0.6-7.1h12.8v-2
			l-17.2-0.7L1222.9,249.4z M1224.3,260.2c-1.1,5.4-2.8,12-4.9,16.4l-4.1,3.8c0,0,0,0,0,0.1v0.1c0,0,0,0.1,0,0.1l-0.1,0.2
			c-0.3,1.3-1.3,4.4-3,4.6c-2.1,0.7-7.9,0.7-7.9,0.7c-1.7,1.4-3,3.1-3.8,5.2c0,0,0,1.7-2.1,4.1c0.2,0.8,0.6,1.5,1.2,2
			c0.4,0.3,0.7,0.6,1,0.9c1.1,0.8,2.3,1.4,3.6,1.9l2.6-6.3c0,0-5.5-5.4,14.3-2.3l-5.4-4.5c1.5-3.1,3.6-5.8,6.2-7.9l5.9-13.9V262
			l0.7-8.1c2.9,0.5,5.8,0.1,8.4-1.2l-8-1.5c-0.2,0-0.3-0.1-0.5-0.2l-2.3,0.1C1226.6,251.1,1225.7,255.2,1224.3,260.2L1224.3,260.2z
			 M1243.9,235.6l-7.1-0.7l-2.2,0.8l-10.1-4c0,0-10.6-10.3-11.3-20.3s-9-55-5.5-62.2l-13.1,3.9l-1,5.2c-16.9-5.9-22.4,0.4-22.4,0.4
			c-1.2,0.7-2.3,1.5-3.4,2.4c-2.3,2.8-4,6.9-4.4,12.8v0c1.4,12.4,13.6,26.1,13.6,26.1c0.9,1.3,1.7,2.5,2.6,3.7c3,3.1,6.2,6,9.6,8.8
			c2.6,2.2,5.6,4.4,8.8,6.7c1.3,0.9,2.6,1.8,4,2.7s2.8,1.9,4.3,2.8c7.6,10.9,15.6,15.6,16.8,16.2c0,0,0.1,0,0.1,0l17.2,0.7l4.3-2.8
			L1243.9,235.6z M1170.1,167.3c7.6-14.8,22.8-2.1,22.8-2.1l1.4,1.7c-1,17.2,10,50.3,10,50.3
			C1158.7,184.9,1170.1,167.3,1170.1,167.3L1170.1,167.3z"/>
		<path class="st4" d="M1266,157.3c0,0,1.7-5.9-18.3-5.5l-2.8,57.9c0,0-0.3,7.2,8.3,3.4c0,0,5.2-1,6.6-10.3
			C1259.7,202.8,1266.6,173.9,1266,157.3L1266,157.3z"/>
		<path class="st0" d="M1295.6,167c-11.7-13.4-25.8,0.7-25.8,0.7c0.3,13.8-9.3,50.3-9.3,50.3C1303.9,192.2,1295.6,167,1295.6,167z
			 M1194.2,167l-1.4-1.7c0,0-15.2-12.8-22.8,2.1c0,0-11.4,17.6,34.1,50C1204.2,217.3,1193.2,184.2,1194.2,167L1194.2,167z"/>
		<path class="st4" d="M1234.6,257.6l1.4,24.1l2.1,5.9l5.2,1.4l3.8-3.5l-7.9-17.9l0.1-2.2l-3.5-7.8L1234.6,257.6L1234.6,257.6z
			 M1236.8,294.9l1.9,3.1l8.3,0.1l4.2-1.8h3.1l6.2-2.9l-1.4-1.5l-12.1,3.1H1236.8L1236.8,294.9z"/>
		<path class="st5" d="M25.2,155.7h167.5v32H25.2V155.7z"/>
		<path class="st6" d="M193.2,155.7h32v32h-32V155.7z"/>
		<path class="st7" d="M39.9,172.8c-0.1,1.1-0.5,2.1-1.3,2.8c-0.8,0.7-1.9,1.1-3,1c-1.2,0-2.4-0.5-3.2-1.4c-0.9-1.1-1.3-2.5-1.2-3.9
			v-1.1c0-1,0.2-1.9,0.6-2.8c0.3-0.8,0.9-1.4,1.6-1.9c0.7-0.4,1.6-0.7,2.4-0.6c1.1-0.1,2.1,0.3,2.9,1c0.8,0.7,1.2,1.7,1.3,2.8h-1.5
			c-0.1-0.7-0.4-1.4-0.8-2c-0.5-0.4-1.2-0.6-1.8-0.6c-0.9,0-1.7,0.4-2.2,1.1c-0.6,0.9-0.9,1.9-0.8,3v1.1c-0.1,1,0.2,2.1,0.8,2.9
			c0.5,0.7,1.3,1.1,2.2,1.1c0.7,0,1.4-0.2,1.9-0.6c0.5-0.5,0.8-1.2,0.9-2L39.9,172.8z M41.8,165.7c0-0.2,0.1-0.4,0.2-0.6
			c0.2-0.2,0.4-0.3,0.6-0.2c0.2,0,0.5,0.1,0.6,0.2c0.1,0.2,0.2,0.4,0.2,0.6c0,0.2-0.1,0.4-0.2,0.6c-0.2,0.2-0.4,0.2-0.6,0.2
			c-0.4,0-0.8-0.3-0.8-0.7C41.8,165.8,41.8,165.7,41.8,165.7L41.8,165.7z M43.3,176.4h-1.4v-8.5h1.4V176.4z M48.4,174.4l2.1-6.5H52
			l-3,8.5h-1.1l-3.1-8.5h1.5L48.4,174.4z M53.4,165.7c0-0.2,0.1-0.4,0.2-0.6c0.2-0.2,0.4-0.3,0.6-0.2c0.2,0,0.5,0.1,0.6,0.2
			c0.1,0.2,0.2,0.4,0.2,0.6c0,0.2-0.1,0.4-0.2,0.6c-0.2,0.2-0.4,0.2-0.6,0.2c-0.2,0-0.5-0.1-0.6-0.2
			C53.5,166.1,53.4,165.9,53.4,165.7z M55,176.4h-1.5v-8.5H55V176.4z M58.8,176.4h-1.5v-12h1.5V176.4z M72.4,176.4H65v-1l3.9-4.4
			c0.5-0.5,0.9-1,1.2-1.6c0.2-0.4,0.3-0.8,0.3-1.3c0-0.5-0.2-1.1-0.5-1.5c-0.4-0.4-0.9-0.6-1.4-0.6c-0.6,0-1.2,0.2-1.7,0.6
			c-0.4,0.5-0.6,1.1-0.6,1.7h-1.4c0-1,0.3-1.9,1-2.5c0.7-0.7,1.7-1,2.7-1c0.9-0.1,1.8,0.2,2.5,0.8c0.6,0.6,1,1.4,0.9,2.2
			c0,1.1-0.7,2.5-2.1,4l-3,3.3h5.7L72.4,176.4z"/>
		<path class="st5" d="M25.2,187.2h167.5v32H25.2V187.2z"/>
		<path class="st6" d="M193.2,187.2h32v32h-32V187.2z"/>
		<path class="st8" d="M38,202.6h-4.9v4h5.7v1.2h-7.2v-11.4h7.1v1.2h-5.6v3.7H38V202.6z M42,207.9h-1.4v-12H42V207.9z M47.8,208.1
			c-1.1,0-2.1-0.4-2.8-1.1c-0.7-0.8-1.1-1.9-1.1-3v-0.3c0-0.8,0.2-1.5,0.5-2.2c0.3-0.6,0.8-1.2,1.3-1.5c0.6-0.4,1.2-0.6,1.9-0.6
			c1-0.1,1.9,0.3,2.6,1.1c0.7,0.9,1,2,0.9,3.1v0.6h-5.7c0,0.7,0.3,1.4,0.7,2c0.4,0.5,1.1,0.8,1.8,0.8c0.5,0,0.9-0.1,1.3-0.3
			c0.4-0.2,0.7-0.5,0.9-0.8l0.9,0.7C50.3,207.5,49.1,208.1,47.8,208.1L47.8,208.1z M47.6,200.5c-0.6,0-1.1,0.2-1.5,0.6
			c-0.4,0.5-0.7,1.1-0.7,1.8h4.2v-0.1c0-0.6-0.2-1.2-0.6-1.7C48.7,200.7,48.2,200.5,47.6,200.5L47.6,200.5z M56.2,206.9
			c0.5,0,1-0.2,1.3-0.5c0.4-0.3,0.6-0.7,0.7-1.2h1.4c0,0.5-0.2,1-0.5,1.4c-0.3,0.4-0.7,0.8-1.2,1c-0.5,0.3-1.1,0.4-1.6,0.4
			c-1,0-2-0.4-2.7-1.1c-0.7-0.9-1.1-2-1-3.1v-0.2c0-0.8,0.1-1.5,0.5-2.2c0.3-0.6,0.7-1.1,1.3-1.5c0.6-0.4,1.3-0.5,2-0.5
			c0.9,0,1.7,0.3,2.4,0.9c0.6,0.6,1,1.4,1,2.2h-1.4c0-0.5-0.3-1-0.6-1.4c-0.4-0.3-0.9-0.5-1.4-0.5c-0.7,0-1.3,0.3-1.7,0.8
			c-0.5,0.7-0.7,1.5-0.6,2.3v0.3c-0.1,0.8,0.2,1.6,0.6,2.2C54.9,206.6,55.5,206.9,56.2,206.9z M63.1,197.4v2h1.6v1.1h-1.6v5.2
			c0,0.3,0.1,0.5,0.2,0.8c0.2,0.2,0.5,0.3,0.7,0.3c0.2,0,0.5,0,0.7-0.1v1.2c-0.4,0.1-0.7,0.1-1.1,0.1c-0.6,0-1.1-0.2-1.5-0.6
			c-0.4-0.5-0.5-1.1-0.5-1.7v-5.2h-1.5v-1.1h1.5v-2L63.1,197.4z M70.5,200.7c-0.2,0-0.5-0.1-0.7-0.1c-0.8-0.1-1.6,0.4-1.9,1.2v6
			h-1.4v-8.5h1.4v1c0.4-0.7,1.2-1.1,2-1.1c0.2,0,0.4,0,0.6,0.1L70.5,200.7z M71.8,197.2c0-0.2,0.1-0.4,0.2-0.6
			c0.2-0.2,0.4-0.3,0.6-0.2c0.2,0,0.5,0.1,0.6,0.2c0.1,0.2,0.2,0.4,0.2,0.6c0,0.4-0.3,0.8-0.7,0.8c0,0-0.1,0-0.1,0
			c-0.4,0.1-0.8-0.2-0.8-0.7C71.8,197.3,71.8,197.3,71.8,197.2z M73.4,207.9h-1.4v-8.5h1.4V207.9z M79.1,206.9c0.5,0,1-0.2,1.3-0.5
			c0.4-0.3,0.6-0.7,0.6-1.2h1.4c0,0.5-0.2,1-0.5,1.4c-0.3,0.4-0.7,0.8-1.2,1c-0.5,0.3-1.1,0.4-1.6,0.4c-1,0-2-0.4-2.7-1.1
			c-0.7-0.9-1.1-2-1-3.1v-0.2c0-0.8,0.1-1.5,0.4-2.2c0.3-0.6,0.7-1.1,1.3-1.5c0.6-0.4,1.3-0.5,2-0.5c0.9,0,1.7,0.3,2.4,0.9
			c0.6,0.6,1,1.4,1,2.2h-1.4c0-0.5-0.2-1-0.6-1.4c-0.4-0.3-0.9-0.5-1.4-0.5c-0.7,0-1.3,0.3-1.7,0.8c-0.5,0.7-0.7,1.5-0.6,2.3v0.3
			c-0.1,0.8,0.2,1.6,0.6,2.2C77.8,206.6,78.4,206.9,79.1,206.9z M89.3,207.9c-0.1-0.3-0.2-0.6-0.2-0.9c-0.6,0.7-1.5,1-2.4,1
			c-0.8,0-1.5-0.2-2.1-0.7c-0.5-0.4-0.8-1.1-0.8-1.8c0-0.8,0.3-1.6,1-2.1c0.8-0.5,1.8-0.8,2.8-0.7h1.4v-0.7c0-0.5-0.1-0.9-0.5-1.2
			c-0.4-0.3-0.8-0.5-1.3-0.4c-0.5,0-0.9,0.1-1.3,0.4c-0.3,0.2-0.5,0.6-0.5,0.9H84c0-0.4,0.2-0.9,0.4-1.2c0.3-0.4,0.7-0.7,1.2-0.9
			c0.5-0.2,1.1-0.3,1.7-0.3c0.8-0.1,1.6,0.2,2.3,0.7c0.6,0.5,0.9,1.2,0.9,2v3.9c0,0.6,0.1,1.3,0.3,1.9v0.1L89.3,207.9z M86.9,206.8
			c0.5,0,0.9-0.1,1.3-0.4c0.4-0.2,0.7-0.5,0.9-0.9v-1.7h-1.1c-1.8,0-2.7,0.5-2.7,1.6c0,0.4,0.1,0.8,0.4,1.1
			C86,206.7,86.5,206.8,86.9,206.8z M94.3,207.9h-1.4v-12h1.4V207.9z M100.8,207.9v-11.4h3.7c1-0.1,2,0.2,2.8,0.8
			c0.7,0.6,1,1.4,0.9,2.3c0,0.5-0.2,1-0.5,1.4c-0.3,0.4-0.7,0.8-1.2,0.9c0.6,0.2,1.1,0.5,1.5,1c0.4,0.5,0.5,1.1,0.5,1.7
			c0,0.9-0.3,1.8-1,2.4c-0.8,0.6-1.8,0.9-2.8,0.9L100.8,207.9z M102.3,201.4h2.3c0.6,0,1.1-0.1,1.6-0.5c0.4-0.3,0.6-0.8,0.6-1.3
			c0-0.5-0.2-1-0.6-1.4c-0.5-0.3-1.1-0.5-1.7-0.4h-2.2L102.3,201.4z M102.3,202.6v4.1h2.5c0.6,0,1.2-0.2,1.7-0.5
			c0.4-0.4,0.6-0.9,0.6-1.5c0-1.4-0.7-2-2.2-2L102.3,202.6z"/>
		<path class="st5" d="M25.2,238.7h167.6v32H25.2V238.7z"/>
		<path class="st6" d="M193.2,238.7h32v32h-32V238.7z"/>
		<path class="st8" d="M31.6,259.4V248h3.7c1-0.1,2,0.2,2.8,0.8c0.6,0.6,1,1.4,0.9,2.3c0,0.5-0.1,1-0.5,1.4
			c-0.3,0.4-0.7,0.8-1.2,0.9c0.6,0.2,1.1,0.5,1.5,1c0.4,0.5,0.6,1.1,0.5,1.7c0,0.9-0.3,1.8-1,2.4c-0.8,0.6-1.8,0.9-2.8,0.9H31.6z
			 M33.1,252.9h2.3c0.6,0,1.1-0.1,1.6-0.5c0.4-0.3,0.6-0.9,0.6-1.4c0-0.5-0.2-1-0.5-1.4c-0.5-0.3-1.1-0.5-1.7-0.4h-2.2L33.1,252.9z
			 M33.1,254.1v4.1h2.5c0.6,0,1.2-0.2,1.7-0.5c0.4-0.4,0.6-0.9,0.6-1.5c0-1.4-0.7-2-2.2-2L33.1,254.1z M41.3,248.7
			c0-0.2,0.1-0.4,0.2-0.6c0.3-0.4,0.9-0.4,1.2-0.1c0.2,0.2,0.3,0.4,0.3,0.7c0,0.2-0.1,0.4-0.2,0.6c-0.4,0.3-0.9,0.3-1.3,0
			C41.4,249.1,41.3,248.9,41.3,248.7z M42.9,259.4h-1.4v-8.5h1.4V259.4z M44.8,255.1c0-0.8,0.2-1.5,0.5-2.2c0.3-0.6,0.8-1.2,1.4-1.5
			c0.6-0.4,1.3-0.6,2-0.5c1.1,0,2.1,0.4,2.8,1.2c0.7,0.9,1.1,2,1.1,3.2v0.1c0,0.8-0.2,1.5-0.5,2.2c-0.3,0.6-0.8,1.1-1.3,1.5
			c-0.6,0.4-1.3,0.6-2,0.5c-1.1,0-2.1-0.4-2.8-1.2C45.1,257.5,44.8,256.3,44.8,255.1L44.8,255.1z M46.2,255.3c0,0.8,0.2,1.6,0.7,2.3
			c0.7,1,2.1,1.1,3.1,0.4c0.1-0.1,0.3-0.2,0.4-0.4c0.5-0.7,0.7-1.6,0.7-2.4c0-0.8-0.2-1.6-0.7-2.2c-0.7-1-2.1-1.2-3.1-0.4
			c-0.2,0.1-0.3,0.3-0.4,0.4C46.4,253.6,46.2,254.4,46.2,255.3z M55.7,250.9v0.9c0.6-0.7,1.5-1.1,2.5-1.1c1-0.1,2,0.4,2.4,1.4
			c0.3-0.4,0.7-0.8,1.1-1c0.5-0.3,1-0.4,1.6-0.4c1.9,0,2.8,1,2.8,2.9v5.7h-1.4v-5.6c0-0.5-0.1-1-0.4-1.4c-0.4-0.3-0.9-0.5-1.4-0.4
			c-0.5,0-1,0.2-1.3,0.5c-0.4,0.3-0.6,0.8-0.6,1.3v5.6h-1.4v-5.5c0.1-0.9-0.5-1.7-1.4-1.8c-0.1,0-0.3,0-0.5,0
			c-0.8-0.1-1.6,0.4-1.9,1.2v6.2h-1.5v-8.5L55.7,250.9z M71.8,259.5c-1.1,0-2.1-0.4-2.8-1.1c-0.7-0.8-1.1-1.9-1.1-3v-0.3
			c0-0.8,0.2-1.5,0.5-2.2c0.3-0.6,0.8-1.2,1.3-1.5c0.6-0.4,1.2-0.6,1.9-0.6c1-0.1,1.9,0.3,2.6,1.1c0.7,0.9,1,2,0.9,3.1v0.6h-5.7
			c0,0.7,0.3,1.4,0.7,2c0.4,0.5,1.1,0.8,1.8,0.8c0.5,0,0.9-0.1,1.3-0.3c0.4-0.2,0.7-0.5,0.9-0.8l0.9,0.7
			C74.3,259,73.1,259.6,71.8,259.5L71.8,259.5z M71.7,252c-0.6,0-1.1,0.2-1.5,0.6c-0.4,0.5-0.7,1.1-0.7,1.8h4.2v-0.1
			c0-0.6-0.2-1.2-0.6-1.7C72.7,252.2,72.2,252,71.7,252L71.7,252z M76.5,255.1c-0.1-1.1,0.3-2.2,0.9-3.1c0.6-0.8,1.5-1.2,2.4-1.2
			c0.9,0,1.8,0.3,2.3,1v-4.4h1.4v12h-1.3l-0.1-0.9c-0.6,0.7-1.5,1.1-2.4,1.1c-0.9,0-1.8-0.4-2.4-1.2
			C76.7,257.4,76.4,256.3,76.5,255.1L76.5,255.1z M77.9,255.3c0,0.8,0.2,1.6,0.6,2.2c0.4,0.5,1,0.8,1.6,0.8c0.9,0,1.6-0.5,2-1.2
			v-3.9c-0.4-0.8-1.2-1.2-2-1.2c-0.7,0-1.3,0.3-1.7,0.8C78,253.6,77.8,254.4,77.9,255.3L77.9,255.3z"/>
		<path class="st5" d="M25.2,270.2h167.6v32H25.2V270.2z"/>
		<path class="st6" d="M193.2,270.2h32v32h-32V270.2z"/>
		<path class="st7" d="M33.5,279.5l3.7,9.3l3.7-9.3h2v11.4h-1.5v-4.4l0.1-4.8l-3.7,9.2h-1.2l-3.7-9.2l0.2,4.8v4.4h-1.5v-11.4H33.5z
			 M48.8,291c-1.1,0-2.1-0.4-2.8-1.1c-0.7-0.8-1.1-1.9-1.1-3v-0.3c0-0.8,0.2-1.5,0.5-2.2c0.3-0.6,0.8-1.2,1.3-1.5
			c0.6-0.4,1.2-0.6,1.9-0.6c1-0.1,1.9,0.3,2.6,1.1c0.7,0.9,1,2,0.9,3.1v0.6h-5.7c0,0.7,0.3,1.4,0.7,2c0.4,0.5,1.1,0.8,1.8,0.8
			c0.5,0,0.9-0.1,1.3-0.3c0.4-0.2,0.7-0.5,0.9-0.8l0.9,0.7C51.3,290.5,50.1,291.1,48.8,291L48.8,291z M48.6,283.5
			c-0.6,0-1.1,0.2-1.5,0.6c-0.4,0.5-0.7,1.1-0.7,1.8h4.2v-0.1c0-0.6-0.2-1.2-0.6-1.7C49.7,283.7,49.2,283.4,48.6,283.5L48.6,283.5z
			 M57.2,289.9c0.5,0,1-0.2,1.3-0.5c0.4-0.3,0.6-0.7,0.6-1.2h1.4c0,0.5-0.2,1-0.5,1.4c-0.3,0.4-0.7,0.8-1.2,1
			c-0.5,0.3-1.1,0.4-1.6,0.4c-1,0-2.1-0.4-2.8-1.1c-0.7-0.9-1.1-2-1-3.1v-0.2c0-0.8,0.1-1.5,0.5-2.2c0.3-0.6,0.7-1.1,1.3-1.5
			c0.6-0.4,1.3-0.5,2-0.5c0.9,0,1.7,0.3,2.4,0.9c0.6,0.6,1,1.4,1,2.2h-1.4c0-0.5-0.2-1-0.6-1.4c-0.4-0.3-0.9-0.5-1.4-0.5
			c-0.7,0-1.3,0.3-1.7,0.8c-0.4,0.7-0.7,1.5-0.6,2.3v0.3c0,0.8,0.2,1.6,0.6,2.2C55.9,289.6,56.5,289.9,57.2,289.9z M63.6,283.5
			c0.6-0.8,1.5-1.2,2.5-1.2c1.8,0,2.7,1,2.7,3v5.6h-1.4v-5.6c0-0.5-0.1-1-0.4-1.4c-0.3-0.3-0.8-0.5-1.3-0.4c-0.4,0-0.9,0.1-1.2,0.4
			c-0.4,0.3-0.6,0.6-0.8,1v6h-1.4v-12h1.4L63.6,283.5z M76.2,290.9c-0.1-0.3-0.2-0.6-0.2-0.9c-0.6,0.7-1.5,1-2.4,1
			c-0.7,0-1.4-0.2-2-0.7c-0.5-0.4-0.8-1.1-0.8-1.8c0-0.8,0.3-1.6,1-2c0.8-0.5,1.8-0.8,2.8-0.7H76v-0.7c0-0.4-0.1-0.9-0.4-1.2
			c-0.4-0.3-0.8-0.5-1.3-0.5c-0.5,0-0.9,0.1-1.3,0.4c-0.3,0.2-0.5,0.6-0.5,1h-1.5c0-0.4,0.2-0.9,0.4-1.2c0.3-0.4,0.7-0.7,1.2-0.9
			c0.5-0.2,1.1-0.3,1.7-0.3c0.8-0.1,1.6,0.2,2.3,0.7c0.6,0.5,0.9,1.2,0.9,2v3.9c0,0.6,0.1,1.3,0.3,1.9v0.1L76.2,290.9z M73.8,289.8
			c0.5,0,0.9-0.1,1.3-0.4c0.4-0.2,0.7-0.5,0.9-0.9v-1.7h-1.1c-1.8,0-2.7,0.5-2.7,1.5c0,0.4,0.1,0.8,0.4,1.1
			C73,289.7,73.4,289.8,73.8,289.8z M81,282.4v1.1c0.6-0.8,1.5-1.2,2.5-1.2c1.8,0,2.7,1,2.7,3v5.6h-1.3v-5.6c0-0.5-0.1-1-0.4-1.4
			c-0.3-0.3-0.8-0.5-1.3-0.4c-0.4,0-0.9,0.1-1.2,0.4c-0.4,0.3-0.6,0.6-0.8,1v6h-1.4v-8.5L81,282.4z M88.5,280.2
			c0-0.2,0.1-0.4,0.2-0.6c0.2-0.2,0.4-0.3,0.6-0.2c0.2,0,0.5,0.1,0.6,0.2c0.1,0.2,0.2,0.4,0.2,0.6c0,0.2-0.1,0.4-0.2,0.6
			c-0.2,0.2-0.4,0.2-0.6,0.2c-0.4,0-0.8-0.3-0.8-0.7C88.5,280.3,88.5,280.2,88.5,280.2z M90.1,290.9h-1.4v-8.5h1.4V290.9z
			 M95.8,289.9c0.5,0,1-0.2,1.3-0.5c0.4-0.3,0.6-0.7,0.6-1.2h1.4c0,0.5-0.2,1-0.5,1.4c-0.3,0.4-0.7,0.8-1.2,1
			c-0.5,0.3-1.1,0.4-1.6,0.4c-1,0.1-2.1-0.3-2.8-1.1c-0.7-0.9-1.1-2-1-3.1v-0.2c0-0.8,0.1-1.5,0.4-2.2c0.3-0.6,0.7-1.1,1.3-1.5
			c0.6-0.4,1.3-0.5,2-0.5c0.9,0,1.7,0.3,2.4,0.9c0.6,0.6,1,1.4,1,2.2h-1.3c0-0.5-0.2-1-0.6-1.4c-0.4-0.4-0.9-0.5-1.4-0.5
			c-0.7,0-1.3,0.3-1.7,0.8c-0.4,0.7-0.7,1.5-0.6,2.3v0.3c-0.1,0.8,0.2,1.6,0.6,2.2C94.5,289.6,95.1,289.9,95.8,289.9z M106,290.9
			c-0.1-0.3-0.2-0.6-0.2-0.9c-0.6,0.7-1.5,1-2.4,1c-0.7,0-1.5-0.2-2.1-0.7c-0.5-0.4-0.8-1.1-0.8-1.8c0-0.8,0.3-1.6,1-2
			c0.8-0.5,1.8-0.8,2.8-0.7h1.4v-0.7c0-0.4-0.1-0.9-0.4-1.2c-0.4-0.3-0.9-0.5-1.3-0.5c-0.5,0-0.9,0.1-1.3,0.4
			c-0.3,0.2-0.5,0.6-0.5,1h-1.4c0-0.4,0.2-0.9,0.4-1.2c0.3-0.4,0.7-0.7,1.2-0.9c0.5-0.2,1.1-0.3,1.7-0.3c0.8-0.1,1.6,0.2,2.3,0.7
			c0.6,0.5,0.9,1.2,0.9,2v3.9c0,0.6,0.1,1.3,0.3,1.9v0.1L106,290.9z M103.6,289.8c0.5,0,0.9-0.1,1.3-0.4c0.4-0.2,0.7-0.5,0.9-0.9
			v-1.7h-1.1c-1.8,0-2.7,0.5-2.7,1.5c0,0.4,0.2,0.8,0.5,1.1C102.8,289.7,103.2,289.8,103.6,289.8L103.6,289.8z M111,290.9h-1.4v-12
			h1.4V290.9z"/>
		<path class="st5" d="M25.2,321.7h167.5v32H25.2V321.7z"/>
		<path class="st8" d="M33.2,342.4h-1.5V331h1.5V342.4z M43.8,332.2h-3.7v10.1h-1.5v-10.1H35V331h8.8L43.8,332.2z"/>
		<path class="st5" d="M25.2,353.2h167.5v32H25.2V353.2z"/>
		<path class="st6" d="M193.2,321.7h32v32h-32V321.7z"/>
		<path class="st6" d="M193.2,353.2h32v32h-32V353.2z"/>
		<path class="st5" d="M25.2,72.7h167.5v32H25.2V72.7z"/>
		<path class="st6" d="M193.2,72.7h32v32h-32V72.7z M39.9,89.8c-0.1,1.1-0.5,2.1-1.3,2.8c-0.8,0.7-1.9,1.1-3,1
			c-1.2,0-2.4-0.5-3.2-1.4c-0.9-1.1-1.3-2.5-1.2-3.9v-1.1c0-1,0.2-1.9,0.6-2.8c0.3-0.8,0.9-1.4,1.6-1.8c0.7-0.4,1.6-0.7,2.4-0.6
			c1.1-0.1,2.1,0.3,2.9,1c0.8,0.7,1.2,1.7,1.3,2.8h-1.5c-0.1-0.7-0.4-1.4-0.8-2c-0.5-0.4-1.2-0.6-1.8-0.6c-0.9,0-1.7,0.4-2.2,1.1
			c-0.6,0.9-0.9,1.9-0.8,3v1.1c-0.1,1.1,0.2,2.1,0.8,3c0.5,0.7,1.3,1.1,2.2,1.1c0.7,0,1.4-0.2,1.9-0.6c0.5-0.5,0.8-1.2,0.9-2
			L39.9,89.8z M41.8,82.7c0-0.2,0.1-0.4,0.2-0.6c0.2-0.2,0.4-0.3,0.6-0.2c0.2,0,0.5,0.1,0.6,0.2c0.1,0.2,0.2,0.4,0.2,0.6
			c0,0.2-0.1,0.4-0.2,0.6c-0.2,0.2-0.4,0.2-0.6,0.2c-0.4,0-0.8-0.3-0.8-0.7C41.8,82.8,41.8,82.7,41.8,82.7z M43.3,93.4h-1.4v-8.5
			h1.4V93.4z M48.4,91.4l2.1-6.5H52l-3,8.5h-1.1l-3.1-8.5h1.5L48.4,91.4z M53.4,82.7c0-0.2,0.1-0.4,0.2-0.6c0.2-0.2,0.4-0.3,0.6-0.2
			c0.2,0,0.5,0.1,0.6,0.2c0.1,0.2,0.2,0.4,0.2,0.6c0,0.2-0.1,0.4-0.2,0.6c-0.2,0.2-0.4,0.2-0.6,0.2c-0.2,0-0.5-0.1-0.6-0.2
			C53.5,83.1,53.4,82.9,53.4,82.7z M55,93.4h-1.5v-8.5H55V93.4z M58.8,93.4h-1.5v-12h1.5V93.4z M69.7,93.4h-1.4v-9.6l-2.9,1.1v-1.3
			l4.1-1.5h0.2V93.4z"/>
		<path class="st5" d="M25.2,104.2h167.5v32H25.2V104.2z"/>
		<path class="st6" d="M193.2,104.2h32v32h-32V104.2z M38,119.6h-4.9v4h5.7v1.2h-7.2v-11.3h7.1v1.2h-5.6v3.7H38V119.6z M42,124.9
			h-1.4v-12H42V124.9z M47.8,125.1c-1.1,0-2.1-0.4-2.8-1.1c-0.7-0.8-1.1-1.9-1.1-3v-0.3c0-0.8,0.2-1.5,0.5-2.2
			c0.3-0.6,0.8-1.2,1.3-1.5c0.6-0.4,1.2-0.6,1.9-0.6c1-0.1,1.9,0.3,2.6,1.1c0.7,0.9,1,2,0.9,3.1v0.6h-5.7c0,0.7,0.3,1.4,0.7,2
			c0.4,0.5,1.1,0.8,1.8,0.8c0.5,0,0.9-0.1,1.3-0.3c0.4-0.2,0.7-0.5,0.9-0.8l0.9,0.7C50.3,124.5,49.1,125.1,47.8,125.1z M47.6,117.5
			c-0.6,0-1.1,0.2-1.5,0.6c-0.4,0.5-0.7,1.1-0.7,1.8h4.2v-0.1c0-0.6-0.2-1.2-0.6-1.7C48.7,117.7,48.2,117.5,47.6,117.5z M56.2,123.9
			c0.5,0,1-0.2,1.3-0.5c0.4-0.3,0.6-0.7,0.7-1.2h1.4c0,0.5-0.2,1-0.5,1.4c-0.3,0.4-0.7,0.8-1.2,1c-0.5,0.3-1.1,0.4-1.6,0.4
			c-1,0-2-0.4-2.7-1.2c-0.7-0.9-1.1-2-1-3.2v-0.2c0-0.8,0.1-1.5,0.5-2.2c0.3-0.6,0.7-1.1,1.3-1.5c0.6-0.4,1.3-0.5,2-0.5
			c0.9,0,1.7,0.3,2.4,0.8c0.6,0.6,1,1.4,1,2.2h-1.4c0-0.5-0.3-1-0.6-1.3c-0.4-0.3-0.9-0.5-1.4-0.5c-0.7,0-1.3,0.3-1.7,0.8
			c-0.5,0.7-0.7,1.5-0.6,2.3v0.3c-0.1,0.8,0.2,1.6,0.6,2.2C54.9,123.6,55.5,123.9,56.2,123.9z M63.1,114.4v2h1.6v1.1h-1.6v5.2
			c0,0.3,0.1,0.5,0.2,0.8c0.2,0.2,0.5,0.3,0.7,0.3c0.2,0,0.5,0,0.7-0.1v1.2c-0.4,0.1-0.7,0.1-1.1,0.2c-0.6,0-1.1-0.2-1.5-0.6
			c-0.4-0.5-0.5-1.1-0.5-1.7v-5.2h-1.5v-1.1h1.5v-2L63.1,114.4z M70.5,117.7c-0.2,0-0.5,0-0.7,0c-0.8-0.1-1.6,0.4-1.9,1.2v6h-1.4
			v-8.5h1.4v1c0.4-0.7,1.2-1.1,2-1.1c0.2,0,0.4,0,0.6,0.1L70.5,117.7z M71.8,114.2c0-0.2,0.1-0.4,0.2-0.6c0.2-0.2,0.4-0.3,0.6-0.2
			c0.2,0,0.5,0.1,0.6,0.2c0.1,0.2,0.2,0.4,0.2,0.6c0,0.4-0.3,0.8-0.7,0.8c0,0-0.1,0-0.1,0c-0.4,0.1-0.8-0.2-0.8-0.7
			C71.8,114.3,71.8,114.3,71.8,114.2z M73.4,124.9h-1.4v-8.5h1.4V124.9z M79.1,123.9c0.5,0,1-0.2,1.3-0.5c0.4-0.3,0.6-0.7,0.6-1.2
			h1.4c0,0.5-0.2,1-0.5,1.4c-0.3,0.4-0.7,0.8-1.2,1c-0.5,0.3-1.1,0.4-1.6,0.4c-1,0-2-0.4-2.7-1.2c-0.7-0.9-1.1-2-1-3.2v-0.2
			c0-0.8,0.1-1.5,0.4-2.2c0.3-0.6,0.7-1.1,1.3-1.5c0.6-0.4,1.3-0.5,2-0.5c0.9,0,1.7,0.3,2.4,0.8c0.6,0.6,1,1.4,1,2.2h-1.4
			c0-0.5-0.2-1-0.6-1.3c-0.4-0.3-0.9-0.5-1.4-0.5c-0.7,0-1.3,0.3-1.7,0.8c-0.5,0.7-0.7,1.5-0.6,2.3v0.3c-0.1,0.8,0.2,1.6,0.6,2.2
			C77.8,123.6,78.4,123.9,79.1,123.9z M89.3,124.9c-0.1-0.3-0.2-0.6-0.2-0.9c-0.6,0.7-1.5,1-2.4,1c-0.8,0-1.5-0.2-2.1-0.7
			c-0.5-0.4-0.8-1.1-0.8-1.8c0-0.8,0.4-1.5,1-2c0.8-0.5,1.8-0.8,2.8-0.7h1.4v-0.7c0-0.5-0.1-0.9-0.5-1.2c-0.4-0.3-0.8-0.5-1.3-0.4
			c-0.5,0-0.9,0.1-1.3,0.4c-0.3,0.2-0.5,0.6-0.5,1H84c0-0.4,0.2-0.9,0.4-1.2c0.3-0.4,0.7-0.7,1.2-0.9c0.5-0.2,1.1-0.3,1.7-0.3
			c0.8-0.1,1.6,0.2,2.3,0.7c0.6,0.5,0.9,1.2,0.9,2v3.9c0,0.6,0.1,1.3,0.3,1.8v0.1L89.3,124.9z M86.9,123.8c0.5,0,0.9-0.1,1.3-0.4
			c0.4-0.2,0.7-0.5,0.9-0.9v-1.7h-1.1c-1.8,0-2.7,0.5-2.7,1.6c0,0.4,0.1,0.8,0.4,1.1C86,123.7,86.5,123.8,86.9,123.8z M94.3,124.9
			h-1.4v-12h1.4V124.9z M107.1,121.9h-4.8l-1.1,3h-1.5l4.3-11.4h1.3l4.4,11.4h-1.5L107.1,121.9z M102.8,120.7h3.9l-1.9-5.3
			L102.8,120.7z M683.2,155.5h32v32h-32V155.5z"/>
		<path class="st5" d="M515.2,155.5h168v32h-168V155.5z"/>
		<path class="st5" d="M515.2,187h168v32h-168V187z"/>
		<path class="st6" d="M683.2,187h32v32h-32V187z"/>
		<path class="st5" d="M515.2,238.5h167.5v32H515.2V238.5z"/>
		<path class="st6" d="M683.2,238.5h32v32h-32V238.5z"/>
		<path class="st5" d="M515.2,270h167.5v32H515.2V270z"/>
		<path class="st6" d="M683.2,270h32v32h-32V270z"/>
		<path class="st9" d="M226,104.2h100v249.5H226 M224.8,187.2H326 M226,270.2h100"/>
		<g>
			<circle class="st10" cx="420.8" cy="229" r="45.5"/>
			<text transform="matrix(0.74 -0.6726 0.6726 0.74 398.4099 212.1098)" class="st8 st11 st12">D</text>
			<text transform="matrix(0.8914 -0.4532 0.4532 0.8914 405.7 205.7601)" class="st8 st11 st12">r</text>
			<text transform="matrix(0.9717 -0.2363 0.2363 0.9717 410.06 203.26)" class="st8 st11 st12">a</text>
			<text transform="matrix(0.9955 9.480333e-02 -9.480333e-02 0.9955 417.5299 201.04)" class="st8 st11 st12">w</text>
			<text transform="matrix(0.6557 0.755 -0.755 0.6557 438.1193 207.029)" class="st13 st11 st14">D</text>
			<text transform="matrix(0.4327 0.9015 -0.9015 0.4327 444.2902 214.4599)" class="st15 st11 st12">r</text>
			<text transform="matrix(0.2142 0.9768 -0.9768 0.2142 446.6905 218.86)" class="st15 st11 st12">a</text>
			<text transform="matrix(-0.1203 0.9927 -0.9927 -0.1203 448.7497 226.4198)" class="st16 st11 st17">w</text>
			<text transform="matrix(-0.769 0.6392 -0.6392 -0.769 442.2899 246.8296)" class="st8 st11 st18">D</text>
			<text transform="matrix(-0.9112 0.412 -0.412 -0.9112 434.7209 252.8402)" class="st8 st11 st12">r</text>
			<text transform="matrix(-0.9815 0.1913 -0.1913 -0.9815 430.2495 255.1402)" class="st8 st11 st12">a</text>
			<text transform="matrix(-0.9901 -0.14 0.14 -0.9901 422.6811 257.0192)" class="st8 st11 st19">w</text>
			<text transform="matrix(-0.6222 -0.7828 0.7828 -0.6222 402.3892 250.0904)" class="st20 st11 st21">D</text>
			<text transform="matrix(-0.3911 -0.9204 0.9204 -0.3911 396.5601 242.3997)" class="st15 st11 st12">r</text>
			<text transform="matrix(-0.1697 -0.9855 0.9855 -0.1697 394.37 237.9)" class="st15 st11 st12">a</text>
			<text transform="matrix(0.1595 -0.9872 0.9872 0.1595 392.6605 230.2594)" class="st22 st11 st23">w</text>
		</g>
		<path class="st9" d="M715.5,187h100v83h-100 M814.9,228.5h100"/>
		<path class="st7" d="M34.9,16.5c0,1-0.2,1.9-0.5,2.8c-0.3,0.7-0.8,1.4-1.4,1.9l2,1.6l-1,1l-2.4-1.9c-0.4,0.1-0.8,0.1-1.2,0.1
			c-1.7,0-3.3-1-4-2.5c-0.4-0.9-0.6-1.9-0.6-2.8v-0.8c0-1,0.2-2,0.6-2.9c1-2.2,3.7-3.2,5.9-2.2c0.2,0.1,0.3,0.2,0.5,0.3
			c0.7,0.5,1.3,1.1,1.6,1.9c0.4,0.9,0.6,1.9,0.6,2.9L34.9,16.5z M33.4,15.7c0.1-1.1-0.2-2.2-0.8-3.1c-0.5-0.7-1.4-1.1-2.3-1.1
			c-0.9,0-1.7,0.4-2.2,1.1c-0.6,0.9-0.9,1.9-0.8,3v0.8c-0.1,1.1,0.2,2.2,0.8,3.1c0.5,0.7,1.4,1.2,2.3,1.1c0.9,0,1.7-0.4,2.2-1.1
			c0.6-0.9,0.9-1.9,0.8-3V15.7z M42.2,21c-0.6,0.7-1.5,1.1-2.5,1c-0.8,0.1-1.5-0.2-2.1-0.8c-0.5-0.7-0.8-1.5-0.7-2.4v-5.5h1.4v5.5
			c0,1.3,0.5,1.9,1.6,1.9c0.9,0.1,1.8-0.4,2.2-1.2v-6.1h1.5v8.5h-1.4L42.2,21z M51.1,21.8c-0.1-0.3-0.2-0.6-0.2-0.9
			c-0.6,0.7-1.5,1.1-2.4,1c-0.7,0-1.5-0.2-2-0.7c-0.5-0.4-0.8-1.1-0.8-1.8c0-0.8,0.3-1.6,1-2c0.8-0.5,1.8-0.8,2.8-0.7h1.4V16
			c0-0.4-0.1-0.9-0.5-1.2c-0.4-0.3-0.9-0.5-1.3-0.4c-0.5,0-0.9,0.1-1.3,0.4c-0.3,0.2-0.5,0.6-0.5,0.9h-1.5c0-0.4,0.2-0.9,0.5-1.2
			c0.3-0.4,0.7-0.7,1.2-0.9c0.5-0.2,1.1-0.3,1.7-0.3c0.8-0.1,1.6,0.2,2.3,0.7c0.6,0.5,0.9,1.2,0.9,2v3.9c0,0.6,0.1,1.3,0.3,1.9v0.1
			L51.1,21.8z M48.7,20.7c0.5,0,0.9-0.1,1.3-0.4c0.4-0.2,0.7-0.5,0.9-0.9v-1.7h-1.2c-1.8,0-2.7,0.5-2.7,1.6c0,0.4,0.1,0.8,0.5,1.1
			C47.8,20.6,48.2,20.7,48.7,20.7z M58.6,14.6c-0.2,0-0.5-0.1-0.7-0.1c-0.8-0.1-1.6,0.4-1.9,1.2v6h-1.5v-8.5H56v1
			c0.4-0.7,1.2-1.1,2-1.1c0.2,0,0.4,0,0.6,0.1V14.6z M62.3,11.3v2h1.6v1.1h-1.6v5.3c0,0.3,0.1,0.5,0.2,0.8c0.2,0.2,0.5,0.3,0.7,0.3
			c0.2,0,0.5,0,0.7-0.1v1.2c-0.4,0.1-0.7,0.1-1.1,0.1c-0.6,0-1.1-0.2-1.5-0.6c-0.4-0.5-0.5-1.1-0.5-1.7v-5.2h-1.5v-1.1h1.5v-2
			L62.3,11.3z M69.1,21.9c-1,0-2.1-0.4-2.8-1.1c-0.7-0.8-1.1-1.9-1.1-3v-0.3c0-0.8,0.2-1.5,0.5-2.2c0.3-0.6,0.7-1.2,1.3-1.6
			c0.6-0.4,1.2-0.6,1.9-0.6c1-0.1,1.9,0.3,2.6,1.1c0.7,0.9,1,2,0.9,3.1V18h-5.7c0,0.7,0.3,1.4,0.7,2c0.4,0.5,1.1,0.8,1.8,0.8
			c0.5,0,0.9-0.1,1.3-0.3c0.4-0.2,0.7-0.5,0.9-0.8l0.9,0.7C71.6,21.4,70.4,22,69.1,21.9z M68.9,14.4c-0.6,0-1.1,0.2-1.5,0.6
			c-0.4,0.5-0.7,1.1-0.7,1.8h4.2v-0.1c0-0.6-0.2-1.2-0.6-1.7C70,14.6,69.5,14.3,68.9,14.4z M78.2,14.6c-0.2,0-0.5-0.1-0.7-0.1
			c-0.8-0.1-1.6,0.4-1.9,1.2v6h-1.4v-8.5h1.4v1c0.4-0.7,1.2-1.1,2-1.1c0.2,0,0.4,0,0.6,0.1L78.2,14.6z M89.9,16.8h-4.8v5h-1.5V10.4
			h7v1.2h-5.5v3.9h4.8V16.8z M92.3,11.1c0-0.2,0.1-0.4,0.2-0.6c0.3-0.4,0.9-0.4,1.2,0c0.4,0.3,0.4,0.9,0,1.2l0,0
			c-0.3,0.4-0.8,0.4-1.2,0.1C92.4,11.6,92.3,11.3,92.3,11.1z M93.8,21.8h-1.4v-8.5h1.4V21.8z M97.5,13.3v1.1
			c0.6-0.8,1.5-1.2,2.5-1.2c1.8,0,2.7,1,2.7,3v5.6h-1.4v-5.6c0-0.5-0.1-1-0.4-1.4c-0.3-0.3-0.8-0.5-1.3-0.4c-0.4,0-0.9,0.1-1.2,0.4
			c-0.4,0.3-0.6,0.6-0.8,1v6h-1.4v-8.4H97.5z M110.2,21.8c-0.1-0.3-0.2-0.6-0.2-0.9c-0.6,0.7-1.5,1.1-2.4,1c-0.7,0-1.4-0.2-2-0.7
			c-0.5-0.4-0.8-1.1-0.8-1.8c0-0.8,0.3-1.6,1-2c0.8-0.5,1.8-0.8,2.8-0.7h1.4V16c0-0.4-0.1-0.9-0.4-1.2c-0.4-0.3-0.9-0.5-1.3-0.4
			c-0.5,0-0.9,0.1-1.3,0.4c-0.3,0.2-0.5,0.6-0.5,0.9h-1.4c0-0.4,0.2-0.9,0.4-1.2c0.3-0.4,0.7-0.7,1.2-0.9c0.5-0.2,1.1-0.3,1.7-0.3
			c0.8-0.1,1.6,0.2,2.3,0.7c0.6,0.5,0.9,1.2,0.9,2v3.9c0,0.6,0.1,1.3,0.3,1.9v0.1L110.2,21.8z M107.8,20.7c0.5,0,0.9-0.1,1.3-0.4
			c0.4-0.2,0.7-0.5,0.9-0.9v-1.7h-1.1c-1.8,0-2.7,0.5-2.7,1.6c0,0.4,0.2,0.8,0.5,1.1C107,20.6,107.4,20.7,107.8,20.7z M115.3,21.8
			h-1.4v-12h1.4V21.8z M122.5,19.5c0-0.4-0.2-0.7-0.4-0.9c-0.5-0.3-1-0.5-1.5-0.6c-0.6-0.1-1.2-0.3-1.7-0.6c-0.4-0.2-0.7-0.4-1-0.8
			c-0.2-0.3-0.3-0.7-0.3-1.1c0-0.7,0.3-1.3,0.9-1.8c1.4-1,3.2-1,4.6,0c0.6,0.5,0.9,1.2,0.9,1.9h-1.5c0-0.4-0.2-0.8-0.5-1
			c-0.7-0.5-1.7-0.6-2.5-0.1c-0.3,0.2-0.5,0.5-0.4,0.9c0,0.3,0.1,0.6,0.4,0.8c0.5,0.2,1,0.4,1.5,0.5c0.6,0.1,1.2,0.3,1.8,0.6
			c0.4,0.2,0.7,0.5,1,0.8c0.2,0.3,0.3,0.7,0.3,1.1c0,0.7-0.3,1.4-0.9,1.8c-0.7,0.5-1.5,0.7-2.3,0.7c-0.6,0-1.2-0.1-1.8-0.4
			c-0.5-0.2-0.9-0.6-1.2-1c-0.3-0.4-0.4-0.9-0.4-1.4h1.4c0,0.5,0.2,0.9,0.6,1.2c0.4,0.3,0.9,0.4,1.4,0.4c0.5,0,0.9-0.1,1.3-0.3
			C122.3,20.3,122.5,19.9,122.5,19.5z M519.9,16.7c-1-0.2-2-0.7-2.8-1.4c-0.6-0.5-0.9-1.2-0.9-2c0-0.9,0.4-1.7,1.1-2.2
			c0.8-0.6,1.8-0.9,2.8-0.9c0.7,0,1.4,0.1,2.1,0.5c0.6,0.3,1.1,0.7,1.4,1.3c0.3,0.5,0.5,1.1,0.5,1.7h-1.5c0-0.6-0.2-1.2-0.7-1.6
			c-1.1-0.7-2.5-0.8-3.6-0.1c-0.4,0.3-0.6,0.8-0.6,1.4c0,0.5,0.2,0.9,0.6,1.2c0.6,0.4,1.3,0.7,2,0.9c0.8,0.2,1.5,0.5,2.2,0.9
			c0.5,0.3,0.9,0.7,1.2,1.1c0.3,0.5,0.4,1,0.4,1.5c0,0.9-0.4,1.7-1.1,2.2c-0.8,0.6-1.9,0.9-2.9,0.8c-0.8,0-1.5-0.1-2.2-0.5
			c-0.6-0.3-1.2-0.7-1.6-1.2c-0.4-0.5-0.6-1.1-0.5-1.8h1.5c0,0.6,0.3,1.2,0.8,1.6c0.6,0.4,1.3,0.6,2,0.6c0.6,0,1.3-0.1,1.8-0.5
			c0.4-0.3,0.7-0.8,0.6-1.3c0-0.5-0.2-1-0.6-1.3C521.4,17.2,520.7,16.9,519.9,16.7L519.9,16.7z M529.3,21.9c-1.1,0-2.1-0.4-2.8-1.1
			c-0.7-0.8-1.1-1.9-1.1-3v-0.3c0-0.8,0.2-1.5,0.5-2.2c0.3-0.6,0.8-1.2,1.3-1.6c0.6-0.4,1.2-0.6,1.9-0.6c1-0.1,1.9,0.3,2.6,1.1
			c0.7,0.9,1,2,0.9,3.1V18h-5.7c0,0.7,0.3,1.4,0.7,2c0.4,0.5,1.1,0.8,1.8,0.8c0.5,0,0.9-0.1,1.3-0.3c0.4-0.2,0.7-0.5,0.9-0.8
			l0.9,0.7C531.8,21.4,530.6,22,529.3,21.9L529.3,21.9z M529.2,14.4c-0.6,0-1.1,0.2-1.5,0.6c-0.4,0.5-0.7,1.1-0.7,1.8h4.2v-0.1
			c0-0.6-0.2-1.2-0.6-1.7C530.2,14.6,529.7,14.3,529.2,14.4z M535.7,13.3v0.9c0.6-0.7,1.5-1.1,2.5-1.1c1-0.1,2,0.4,2.4,1.4
			c0.3-0.4,0.7-0.8,1.1-1c0.5-0.3,1-0.4,1.6-0.4c1.9,0,2.8,1,2.8,2.9v5.7h-1.4v-5.6c0-0.5-0.1-1-0.4-1.4c-0.4-0.3-0.9-0.5-1.4-0.4
			c-0.5,0-1,0.2-1.3,0.5c-0.4,0.3-0.6,0.8-0.6,1.3v5.6h-1.4v-5.5c0.1-0.9-0.5-1.7-1.4-1.8c-0.1,0-0.3,0-0.5,0
			c-0.8-0.1-1.6,0.4-1.9,1.2v6.2h-1.5v-8.5L535.7,13.3z M548.3,11.1c0-0.2,0.1-0.4,0.2-0.6c0.2-0.2,0.4-0.3,0.6-0.2
			c0.2,0,0.5,0.1,0.6,0.2c0.3,0.3,0.3,0.8,0,1.2c-0.2,0.2-0.4,0.2-0.6,0.2c-0.4,0.1-0.8-0.2-0.8-0.7
			C548.3,11.2,548.3,11.1,548.3,11.1L548.3,11.1z M549.9,21.8h-1.4v-8.5h1.4V21.8z M562.7,16.8h-4.8v5h-1.5V10.4h7v1.2h-5.5v3.9h4.8
			V16.8z M565,11.1c0-0.2,0.1-0.4,0.2-0.6c0.2-0.2,0.4-0.3,0.6-0.2c0.2,0,0.5,0.1,0.6,0.2c0.3,0.3,0.3,0.8,0,1.2
			c-0.2,0.2-0.4,0.2-0.6,0.2c-0.2,0-0.5-0.1-0.6-0.2C565.1,11.5,565,11.3,565,11.1z M566.6,21.8h-1.5v-8.5h1.5V21.8z M570.3,13.3
			l0,1.1c0.6-0.8,1.5-1.2,2.5-1.2c1.8,0,2.7,1,2.7,3v5.6h-1.5v-5.6c0-0.5-0.1-1-0.4-1.4c-0.3-0.3-0.8-0.5-1.3-0.4
			c-0.4,0-0.9,0.1-1.2,0.4c-0.4,0.3-0.6,0.6-0.8,1v6h-1.5v-8.4H570.3z M583,21.8c-0.1-0.3-0.2-0.6-0.2-0.9c-0.6,0.7-1.5,1.1-2.4,1
			c-0.7,0-1.5-0.2-2-0.7c-0.5-0.4-0.8-1.1-0.8-1.8c0-0.8,0.3-1.6,1-2c0.8-0.5,1.8-0.8,2.8-0.7h1.4V16c0-0.4-0.1-0.9-0.5-1.2
			c-0.4-0.3-0.9-0.5-1.3-0.4c-0.5,0-0.9,0.1-1.3,0.4c-0.3,0.2-0.5,0.6-0.5,0.9h-1.5c0-0.4,0.2-0.9,0.5-1.2c0.3-0.4,0.7-0.7,1.2-0.9
			c0.5-0.2,1.1-0.3,1.7-0.3c0.8-0.1,1.6,0.2,2.3,0.7c0.6,0.5,0.9,1.2,0.9,2v3.9c0,0.6,0.1,1.3,0.3,1.9v0.1L583,21.8z M580.6,20.7
			c0.5,0,0.9-0.1,1.3-0.4c0.4-0.2,0.7-0.5,0.9-0.9v-1.7h-1.1c-1.8,0-2.7,0.5-2.7,1.6c0,0.4,0.1,0.8,0.5,1.1
			C579.8,20.6,580.1,20.7,580.6,20.7L580.6,20.7z M588,21.8h-1.4v-12h1.4V21.8z M595.2,19.5c0-0.4-0.2-0.7-0.4-0.9
			c-0.5-0.3-1-0.5-1.5-0.6c-0.6-0.1-1.2-0.3-1.7-0.6c-0.4-0.2-0.7-0.4-1-0.8c-0.2-0.3-0.3-0.7-0.3-1.1c0-0.7,0.3-1.3,0.9-1.8
			c1.4-1,3.2-1,4.6,0c0.6,0.5,0.9,1.2,0.9,1.9h-1.5c0-0.4-0.2-0.8-0.5-1c-0.4-0.3-0.8-0.4-1.3-0.4c-0.4,0-0.9,0.1-1.2,0.4
			c-0.3,0.2-0.4,0.5-0.4,0.9c0,0.3,0.1,0.6,0.4,0.8c0.5,0.2,1,0.4,1.5,0.5c0.6,0.1,1.2,0.3,1.8,0.6c0.4,0.2,0.7,0.5,1,0.8
			c0.2,0.3,0.3,0.7,0.3,1.1c0,0.7-0.3,1.4-0.9,1.8c-0.7,0.5-1.5,0.7-2.3,0.7c-0.6,0-1.2-0.1-1.8-0.4c-0.5-0.2-0.9-0.6-1.2-1
			c-0.3-0.4-0.5-0.9-0.5-1.4h1.5c0,0.5,0.2,0.9,0.6,1.2c0.4,0.3,0.9,0.4,1.4,0.4c0.5,0,0.9-0.1,1.3-0.3
			C595,20.3,595.2,19.9,595.2,19.5L595.2,19.5z M921.8,16.8h-4.8v5h-1.5V10.4h7v1.2H917v3.9h4.8L921.8,16.8z M924.2,11.1
			c0-0.2,0.1-0.4,0.2-0.6c0.2-0.2,0.4-0.3,0.6-0.2c0.2,0,0.5,0.1,0.6,0.2c0.3,0.3,0.3,0.8,0,1.2c-0.2,0.2-0.4,0.2-0.6,0.2
			c-0.2,0-0.5-0.1-0.6-0.2C924.3,11.5,924.2,11.3,924.2,11.1z M925.8,21.8h-1.4v-8.5h1.4V21.8z M929.4,13.3l0,1.1
			c0.6-0.8,1.5-1.2,2.5-1.2c1.8,0,2.7,1,2.7,3v5.6h-1.4v-5.6c0-0.5-0.1-1-0.4-1.4c-0.3-0.3-0.8-0.5-1.3-0.4c-0.4,0-0.9,0.1-1.2,0.4
			c-0.4,0.3-0.6,0.6-0.8,1v6h-1.4v-8.4H929.4z M942.1,21.8c-0.1-0.3-0.2-0.6-0.2-0.9c-0.6,0.7-1.5,1.1-2.4,1c-0.7,0-1.4-0.2-2-0.7
			c-0.5-0.4-0.8-1.1-0.8-1.8c0-0.8,0.3-1.6,1-2c0.8-0.5,1.8-0.8,2.8-0.7h1.4V16c0-0.5-0.1-0.9-0.5-1.2c-0.4-0.3-0.8-0.5-1.3-0.4
			c-0.5,0-0.9,0.1-1.3,0.4c-0.3,0.2-0.5,0.6-0.5,0.9h-1.5c0-0.4,0.2-0.9,0.5-1.2c0.3-0.4,0.7-0.7,1.2-0.9c0.5-0.2,1.1-0.3,1.7-0.3
			c0.8-0.1,1.6,0.2,2.3,0.7c0.6,0.5,0.9,1.2,0.9,2v3.9c0,0.6,0.1,1.3,0.3,1.9v0.1L942.1,21.8z M939.7,20.7c0.5,0,0.9-0.1,1.3-0.4
			c0.4-0.2,0.7-0.5,0.9-0.9v-1.7h-1.1c-1.8,0-2.7,0.5-2.7,1.6c0,0.4,0.1,0.8,0.5,1.1C938.9,20.6,939.3,20.7,939.7,20.7L939.7,20.7z
			 M947.2,21.8h-1.5v-12h1.5V21.8z"/>
		<path class="st9" d="M24.8,104.2h201 M24.8,187.2h200"/>
		<path class="st24" d="M24.8,270.2h203"/>
		<path class="st9" d="M515.2,187h200.5"/>
		<path class="st5" d="M914.2,197h168v32h-168V197z"/>
		<path class="st5" d="M914.2,228.5h168v32h-168V228.5z"/>
		<path class="st6" d="M1082.2,228.5h32v32h-32V228.5z"/>
		<path class="st6" d="M1082.2,197h32v32h-32V197z"/>
		<path class="st9" d="M914.2,228.5h200.5 M515.2,270h200.5 M24.8,353.7h202"/>
		<path class="st25" d="M420.9,228.3v19.1l16.7-9.6v-18.6L420.9,228.3z"/>
		<path class="st26" d="M420.9,228.3l-16.9-9.1V238l16.9,9.4L420.9,228.3L420.9,228.3z"/>
		<path class="st27" d="M404,219.3l16.9-8.8l16.7,8.8l-16.7,9.1L404,219.3L404,219.3z"/>
		<ellipse class="st28" cx="421.2" cy="219" rx="3.5" ry="2"/>
		
			<ellipse transform="matrix(0.9225 -0.3861 0.3861 0.9225 -56.9127 178.7112)" class="st28" cx="416.5" cy="231.1" rx="1.6" ry="2.2"/>
		<ellipse transform="matrix(0.3927 -0.9197 0.9197 0.3927 45.9697 533.5681)" class="st28" cx="427" cy="232" rx="2.2" ry="1.6"/>
		
			<ellipse transform="matrix(0.3927 -0.9197 0.9197 0.3927 46.2324 540.6665)" class="st28" cx="432.5" cy="235.3" rx="2.2" ry="1.6"/>
		
			<ellipse transform="matrix(0.9225 -0.3861 0.3861 0.9225 -58.1297 177.3335)" class="st28" cx="412.5" cy="233.4" rx="1.6" ry="2.2"/>
		
			<ellipse transform="matrix(0.9225 -0.3861 0.3861 0.9225 -59.3845 175.9356)" class="st28" cx="408.4" cy="235.8" rx="1.6" ry="2.2"/>
		<path class="st29" d="M420.9,212.9l7.2,4.1 M430,218.1l3.4,1.9"/>
		<path class="st4" d="M1166,71.7c-0.3,0.6-0.6,1.2-1.1,1.7c-0.6,0.6-1.4,1.2-2.2,1.5c-0.8,0.3-1.7,0.5-2.6,0.5
			c-0.9,0-1.8-0.1-2.6-0.4c-0.8-0.3-1.6-0.8-2.2-1.4c-0.9-0.9-1.5-1.9-1.8-3.1c-0.1-0.6-0.2-1.2-0.3-1.8c-0.1-0.6-0.1-1.3-0.1-2
			s0-1.4,0.1-2c0-0.6,0.1-1.2,0.3-1.8c0.3-1.2,0.9-2.2,1.8-3.1c0.6-0.6,1.4-1.1,2.2-1.5c0.8-0.3,1.7-0.5,2.6-0.5
			c0.9,0,1.8,0.2,2.6,0.5c0.8,0.3,1.6,0.8,2.2,1.5c0.5,0.5,0.9,1.1,1.1,1.7c0.3,0.6,0.4,1.3,0.5,2h-3.2c0-0.3-0.1-0.7-0.2-1
			c-0.1-0.3-0.3-0.6-0.5-0.8c-0.3-0.4-0.7-0.6-1.1-0.8c-0.5-0.2-1-0.3-1.5-0.3c-0.5,0-1,0.1-1.4,0.3c-0.5,0.2-0.9,0.5-1.2,0.8
			c-0.3,0.3-0.5,0.7-0.7,1c-0.2,0.4-0.3,0.8-0.3,1.3c-0.1,0.4-0.1,0.9-0.1,1.3v2.5c0,0.4,0.1,0.9,0.1,1.3c0.1,0.4,0.2,0.9,0.3,1.3
			c0.2,0.4,0.4,0.8,0.7,1.1c0.3,0.4,0.7,0.7,1.2,0.8c0.5,0.2,0.9,0.3,1.4,0.3c0.5,0,1-0.1,1.5-0.3c0.4-0.2,0.8-0.4,1.1-0.8
			c0.4-0.5,0.7-1.2,0.8-1.9h3.2C1166.4,70.4,1166.2,71.1,1166,71.7z M1179.2,67.7h-7v7.4h-3.1v-17h3.1v6.7h7v-6.7h3.1v17h-3.1V67.7z
			 M1195.3,71.9h-6.8l-1.1,3.3h-3.1l6-17h3.4l6,17h-3.2L1195.3,71.9z M1189.5,69.1h4.8l-2.4-7.2L1189.5,69.1z M1215.8,63l-4.4,11.9
			h-2.3l-4.4-12v12.2h-3v-17h4.2l4.5,12.1l4.5-12.1h4v17h-3L1215.8,63z M1235,65.8c-0.2,0.7-0.6,1.3-1.1,1.7
			c-0.5,0.5-1.2,0.9-1.9,1.1c-0.8,0.3-1.7,0.4-2.6,0.4h-3.6v6.1h-3.1v-17h6.7c0.9,0,1.8,0.1,2.6,0.4c0.7,0.2,1.3,0.6,1.9,1.1
			c0.5,0.5,0.9,1.1,1.1,1.7C1235.5,62.8,1235.5,64.4,1235,65.8L1235,65.8z M1231.6,61.6c-0.6-0.6-1.4-0.8-2.3-0.8h-3.5v5.5h3.5
			c0.8,0.1,1.7-0.2,2.3-0.8c0.5-0.5,0.8-1.3,0.7-2C1232.3,62.9,1232,62.2,1231.6,61.6L1231.6,61.6z M1237.7,58.1h3.1v17h-3.1V58.1z
			 M1257.9,68.6c0,0.6-0.1,1.2-0.3,1.8c-0.2,0.6-0.4,1.1-0.7,1.6c-0.3,0.5-0.7,1-1.1,1.5c-0.6,0.6-1.4,1.1-2.2,1.4
			c-1.7,0.6-3.6,0.6-5.3,0c-0.9-0.3-1.6-0.8-2.3-1.4c-0.4-0.4-0.8-0.9-1.1-1.5c-0.3-0.5-0.5-1.1-0.7-1.6c-0.2-0.6-0.3-1.2-0.3-1.8
			c0-0.6-0.1-1.3-0.1-2s0-1.4,0.1-2c0-0.6,0.2-1.2,0.3-1.8c0.2-0.6,0.4-1.1,0.7-1.6c0.3-0.5,0.7-1,1.1-1.5c0.6-0.6,1.4-1.1,2.3-1.5
			c1.7-0.6,3.6-0.6,5.3,0c0.8,0.3,1.6,0.8,2.2,1.5c0.4,0.4,0.8,0.9,1.1,1.5c0.3,0.5,0.5,1.1,0.7,1.6c0.2,0.6,0.3,1.2,0.3,1.8
			c0,0.6,0.1,1.3,0.1,2S1257.9,68,1257.9,68.6z M1254.8,65.4c0-0.4-0.1-0.9-0.2-1.3c-0.1-0.4-0.2-0.9-0.4-1.3
			c-0.2-0.4-0.4-0.7-0.7-1c-0.3-0.4-0.8-0.7-1.2-0.8c-0.9-0.4-2-0.4-2.9,0c-0.5,0.2-0.9,0.5-1.2,0.8c-0.3,0.3-0.5,0.7-0.7,1
			c-0.2,0.4-0.3,0.8-0.4,1.3c-0.1,0.4-0.1,0.9-0.1,1.3v2.5c0,0.4,0.1,0.9,0.1,1.3c0.1,0.4,0.2,0.8,0.4,1.2c0.4,0.9,1,1.5,1.9,1.9
			c0.9,0.4,2,0.4,2.9,0c0.5-0.2,0.9-0.5,1.2-0.8c0.3-0.3,0.5-0.7,0.7-1.1c0.2-0.4,0.3-0.8,0.4-1.2c0.1-0.4,0.1-0.9,0.2-1.3v-1.2
			C1254.8,66.3,1254.8,65.8,1254.8,65.4z M1264,63.5v11.7h-3v-17h3.3l7.3,11.5V58.1h3v17h-3.2L1264,63.5z M1278.6,58.1h12.1v2.8h-9
			v4h7.9v2.8h-7.9v4.7h9v2.8h-12.1V58.1z M1305.6,72.2c-0.2,0.5-0.6,1.1-1,1.5c-0.7,0.7-1.5,1.1-2.4,1.4c-1,0.3-2,0.4-3,0.4
			c-0.9,0-1.8-0.1-2.7-0.4c-0.9-0.3-1.7-0.7-2.4-1.4c-0.5-0.5-1-1.1-1.3-1.7c-0.3-0.7-0.5-1.5-0.5-2.2h3.2c0,0.4,0.1,0.8,0.3,1.2
			c0.2,0.3,0.4,0.7,0.6,0.9c0.4,0.4,0.8,0.6,1.3,0.7c0.5,0.1,1,0.2,1.5,0.2c0.6,0,1.1-0.1,1.7-0.2c0.5-0.1,0.9-0.4,1.3-0.7
			c0.2-0.2,0.3-0.4,0.5-0.7c0.1-0.3,0.2-0.7,0.2-1c0-0.5-0.2-1.1-0.6-1.4c-0.4-0.3-0.9-0.5-1.4-0.6c-0.6-0.1-1.3-0.1-1.9-0.2
			c-0.6,0-1.3-0.1-1.9-0.2c-0.6-0.1-1.1-0.3-1.7-0.5c-0.5-0.2-1-0.6-1.4-1c-0.4-0.4-0.7-0.9-0.9-1.4c-0.2-0.6-0.4-1.2-0.3-1.9
			c0-0.6,0.1-1.3,0.4-1.8c0.3-0.6,0.6-1.1,1.1-1.5c0.6-0.6,1.3-1,2.2-1.3c1.8-0.6,3.7-0.6,5.5-0.1c0.8,0.3,1.5,0.7,2.1,1.2
			c0.5,0.5,0.9,1,1.2,1.6c0.3,0.6,0.5,1.3,0.5,2h-3.2c0-0.3-0.1-0.6-0.2-0.9c-0.1-0.3-0.3-0.5-0.5-0.8c-0.3-0.3-0.7-0.5-1.2-0.7
			c-0.5-0.2-1-0.2-1.4-0.2c-0.5,0-1,0.1-1.5,0.2c-0.5,0.1-0.9,0.4-1.3,0.8c-0.2,0.2-0.3,0.4-0.4,0.6c-0.1,0.3-0.2,0.5-0.2,0.8
			c0,0.5,0.1,0.9,0.5,1.3c0.3,0.3,0.8,0.5,1.2,0.6c0.5,0.1,1.2,0.2,1.8,0.2s1.3,0.1,1.9,0.2c0.6,0.1,1.2,0.3,1.8,0.5
			c0.6,0.2,1.1,0.6,1.5,1c0.4,0.4,0.8,0.9,1,1.5c0.3,0.6,0.4,1.3,0.4,2C1306,70.8,1305.9,71.5,1305.6,72.2L1305.6,72.2z M1166,100.5
			c-0.3,0.6-0.6,1.2-1.1,1.7c-0.6,0.6-1.4,1.2-2.2,1.5c-0.8,0.3-1.7,0.5-2.6,0.5c-0.9,0-1.8-0.1-2.6-0.4c-0.8-0.3-1.6-0.8-2.2-1.4
			c-0.4-0.4-0.8-0.9-1.1-1.5c-0.3-0.5-0.5-1.1-0.6-1.6c-0.1-0.6-0.2-1.2-0.3-1.8c-0.1-0.6-0.1-1.3-0.1-2s0-1.4,0.1-2
			c0-0.6,0.1-1.2,0.3-1.8c0.3-1.2,0.9-2.2,1.8-3.1c0.6-0.6,1.4-1.1,2.2-1.4c0.8-0.3,1.7-0.5,2.6-0.5c0.9,0,1.8,0.2,2.6,0.5
			c0.8,0.3,1.6,0.8,2.2,1.5c0.5,0.5,0.9,1.1,1.1,1.7c0.3,0.6,0.4,1.3,0.5,2h-3.2c0-0.3-0.1-0.7-0.2-1c-0.1-0.3-0.3-0.6-0.5-0.8
			c-0.3-0.4-0.7-0.6-1.1-0.8c-0.5-0.2-1-0.3-1.5-0.3c-0.5,0-1,0.1-1.4,0.3c-0.5,0.2-0.9,0.5-1.2,0.8c-0.3,0.3-0.5,0.6-0.7,1
			c-0.2,0.4-0.3,0.8-0.3,1.3c-0.1,0.4-0.1,0.9-0.1,1.3v2.5c0,0.4,0.1,0.9,0.1,1.3c0.1,0.4,0.2,0.9,0.3,1.3c0.2,0.4,0.4,0.8,0.7,1.1
			c0.3,0.4,0.7,0.7,1.2,0.8c0.5,0.2,0.9,0.3,1.4,0.3c0.5,0,1-0.1,1.5-0.3c0.4-0.2,0.8-0.4,1.1-0.8c0.4-0.5,0.7-1.2,0.8-1.9h3.2
			C1166.4,99.2,1166.3,99.9,1166,100.5z M1179.2,96.5h-7v7.5h-3.1V87h3.1v6.7h7v-6.7h3.1v17h-3.1V96.5z M1195.3,100.7h-6.8l-1.1,3.3
			h-3.1l6-17h3.4l6,17h-3.2L1195.3,100.7z M1189.5,97.9h4.8l-2.4-7.2L1189.5,97.9z M1215.8,91.8l-4.4,11.9h-2.3l-4.4-12V104h-3V87
			h4.2l4.5,12.1l4.5-12.1h4v17h-3L1215.8,91.8z M1235,94.6c-0.2,0.7-0.6,1.3-1.1,1.7c-0.5,0.5-1.2,0.9-1.9,1.1
			c-0.8,0.3-1.7,0.4-2.6,0.4h-3.6v6.1h-3.1V87h6.7c0.9,0,1.8,0.1,2.6,0.4c0.7,0.2,1.3,0.6,1.9,1.1c0.5,0.5,0.9,1.1,1.1,1.7
			C1235.5,91.7,1235.5,93.2,1235,94.6L1235,94.6z M1231.6,90.4c-0.6-0.6-1.4-0.8-2.3-0.8h-3.5v5.5h3.5c0.8,0.1,1.7-0.2,2.3-0.8
			c0.5-0.5,0.8-1.3,0.7-2C1232.3,91.7,1232,91,1231.6,90.4L1231.6,90.4z M1237.7,86.9h3.1v17h-3.1V86.9z M1257.9,97.4
			c0,0.6-0.1,1.2-0.3,1.8c-0.2,0.6-0.4,1.1-0.7,1.6c-0.3,0.5-0.7,1-1.1,1.5c-0.6,0.6-1.4,1.1-2.2,1.4c-1.7,0.6-3.6,0.6-5.3,0
			c-0.9-0.3-1.6-0.8-2.3-1.4c-0.4-0.4-0.8-0.9-1.1-1.5c-0.3-0.5-0.5-1.1-0.7-1.6c-0.2-0.6-0.3-1.2-0.3-1.8c0-0.6-0.1-1.3-0.1-2
			s0-1.4,0.1-2c0-0.6,0.2-1.2,0.3-1.8c0.2-0.6,0.4-1.1,0.7-1.6c0.3-0.5,0.7-1,1.1-1.5c0.6-0.6,1.4-1.1,2.3-1.4
			c1.7-0.6,3.6-0.6,5.3,0c0.8,0.3,1.6,0.8,2.2,1.4c0.4,0.4,0.8,0.9,1.1,1.5c0.3,0.5,0.5,1.1,0.7,1.6c0.2,0.6,0.3,1.2,0.3,1.8
			c0,0.6,0.1,1.3,0.1,2S1257.9,96.8,1257.9,97.4z M1254.8,94.2c0-0.4-0.1-0.9-0.2-1.3c-0.1-0.4-0.2-0.9-0.4-1.3
			c-0.2-0.4-0.4-0.7-0.7-1c-0.3-0.4-0.8-0.7-1.2-0.8c-0.9-0.4-2-0.4-2.9,0c-0.5,0.2-0.9,0.5-1.2,0.8c-0.3,0.3-0.5,0.6-0.7,1
			c-0.2,0.4-0.3,0.8-0.4,1.3c-0.1,0.4-0.1,0.9-0.1,1.3v2.5c0,0.4,0.1,0.9,0.1,1.3c0.1,0.4,0.2,0.8,0.4,1.2c0.2,0.4,0.4,0.8,0.7,1.1
			c0.3,0.4,0.8,0.7,1.2,0.8c0.9,0.4,2,0.4,2.9,0c0.5-0.2,0.9-0.5,1.2-0.8c0.3-0.3,0.5-0.7,0.7-1.1c0.2-0.4,0.3-0.8,0.4-1.2
			c0.1-0.4,0.1-0.9,0.2-1.3v-1.2C1254.8,95.1,1254.8,94.6,1254.8,94.2z M1264,92.3V104h-3V87h3.3l7.3,11.5V86.9h3v17h-3.2L1264,92.3
			z M1278.6,86.9h12.1v2.8h-9v4h7.9v2.8h-7.9v4.7h9v2.8h-12.1V86.9z M1305.6,101c-0.2,0.5-0.6,1.1-1,1.5c-0.7,0.7-1.5,1.1-2.4,1.4
			c-1,0.3-2,0.4-3,0.4c-0.9,0-1.8-0.1-2.7-0.4c-0.9-0.3-1.7-0.7-2.4-1.4c-0.5-0.5-1-1.1-1.3-1.7c-0.3-0.7-0.5-1.5-0.5-2.2h3.2
			c0,0.4,0.1,0.8,0.3,1.2c0.2,0.3,0.4,0.7,0.6,0.9c0.4,0.4,0.8,0.6,1.3,0.7c0.5,0.1,1,0.2,1.5,0.2c0.6,0,1.1-0.1,1.7-0.2
			c0.5-0.1,0.9-0.4,1.3-0.7c0.2-0.2,0.3-0.4,0.5-0.7c0.1-0.3,0.2-0.7,0.2-1c0-0.5-0.2-1.1-0.6-1.4c-0.4-0.3-0.9-0.5-1.4-0.6
			c-0.6-0.1-1.3-0.2-1.9-0.2c-0.6,0-1.3-0.1-1.9-0.2c-0.6-0.1-1.1-0.3-1.7-0.5c-0.5-0.2-1-0.6-1.4-1c-0.4-0.4-0.7-0.9-0.9-1.4
			c-0.2-0.6-0.4-1.2-0.3-1.9c0-0.6,0.1-1.3,0.4-1.8c0.3-0.6,0.6-1.1,1.1-1.5c0.6-0.6,1.3-1,2.2-1.3c1.8-0.6,3.7-0.6,5.5-0.1
			c0.8,0.3,1.5,0.7,2.1,1.2c0.5,0.5,0.9,1,1.2,1.6c0.3,0.6,0.5,1.3,0.5,2h-3.2c0-0.3-0.1-0.6-0.2-0.9c-0.1-0.3-0.3-0.5-0.5-0.8
			c-0.3-0.3-0.7-0.5-1.2-0.7c-0.5-0.2-1-0.2-1.4-0.2c-0.5,0-1,0.1-1.5,0.2c-0.5,0.1-0.9,0.4-1.3,0.8c-0.2,0.2-0.3,0.4-0.4,0.6
			c-0.1,0.3-0.2,0.5-0.2,0.8c0,0.5,0.1,0.9,0.5,1.3c0.3,0.3,0.8,0.5,1.2,0.6c0.5,0.1,1.2,0.2,1.8,0.2s1.3,0.1,1.9,0.2
			c0.6,0.1,1.2,0.3,1.8,0.5c0.6,0.2,1.1,0.6,1.5,1c0.4,0.4,0.8,0.9,1,1.5c0.3,0.6,0.4,1.3,0.4,2C1306,99.6,1305.9,100.3,1305.6,101
			L1305.6,101z M1167.2,126.2c0,0.6-0.1,1.2-0.3,1.8c-0.2,0.6-0.4,1.1-0.7,1.6c-0.8,1.3-1.9,2.4-3.4,2.9c-0.8,0.3-1.7,0.5-2.7,0.5
			c-0.9,0-1.8-0.2-2.6-0.5c-1.4-0.6-2.6-1.6-3.4-2.9c-0.3-0.5-0.5-1.1-0.7-1.6c-0.2-0.6-0.3-1.2-0.3-1.8c0-0.6-0.1-1.3-0.1-2
			s0-1.4,0.1-2c0-0.6,0.1-1.2,0.3-1.8c0.2-0.6,0.4-1.1,0.7-1.6c0.3-0.5,0.7-1,1.1-1.5c0.6-0.6,1.4-1.1,2.3-1.4
			c0.8-0.3,1.7-0.5,2.6-0.5c0.9,0,1.8,0.2,2.7,0.5c0.8,0.3,1.6,0.8,2.2,1.4c0.4,0.4,0.8,0.9,1.1,1.5c0.3,0.5,0.5,1.1,0.7,1.6
			c0.2,0.6,0.3,1.2,0.3,1.8c0,0.6,0.1,1.3,0.1,2S1167.2,125.6,1167.2,126.2z M1164.1,123c0-0.4-0.1-0.9-0.1-1.3
			c-0.1-0.4-0.2-0.9-0.4-1.3c-0.2-0.4-0.4-0.7-0.7-1c-0.3-0.4-0.8-0.7-1.2-0.8c-0.9-0.4-2-0.4-2.9,0c-0.5,0.2-0.9,0.5-1.2,0.8
			c-0.3,0.3-0.5,0.6-0.7,1c-0.2,0.4-0.3,0.8-0.4,1.3c-0.1,0.4-0.1,0.9-0.1,1.3v2.5c0,0.4,0.1,0.9,0.1,1.3c0.1,0.4,0.2,0.8,0.4,1.3
			c0.2,0.4,0.4,0.8,0.7,1.1c0.3,0.4,0.8,0.7,1.2,0.8c0.9,0.4,2,0.4,2.9,0c0.5-0.2,0.9-0.5,1.2-0.8c0.3-0.3,0.5-0.7,0.7-1.1
			c0.2-0.4,0.3-0.8,0.4-1.2c0.1-0.4,0.1-0.9,0.1-1.3v-1.2C1164.1,123.9,1164.1,123.5,1164.1,123L1164.1,123z M1170.2,115.7h3.1v14.1
			h7.9v2.9h-11L1170.2,115.7z M1183.4,115.7h12.1v2.8h-9v4h7.9v2.8h-7.9v4.6h9v2.8h-12.1V115.7z M1200,127.7l-0.7-6.6v-5.3h3.2v5.3
			l-0.7,6.6H1200z M1199.3,129.6h3.2v3.2h-3.2V129.6z M1224.5,126.2c0,0.6-0.1,1.2-0.3,1.8c-0.2,0.6-0.4,1.1-0.7,1.6
			c-0.3,0.5-0.7,1-1.1,1.5c-0.6,0.6-1.4,1.1-2.2,1.5c-1.7,0.6-3.6,0.6-5.3,0c-0.8-0.3-1.6-0.8-2.3-1.5c-0.4-0.4-0.8-0.9-1.1-1.5
			c-0.3-0.5-0.5-1.1-0.7-1.6c-0.2-0.6-0.3-1.2-0.3-1.8c0-0.6-0.1-1.3-0.1-2s0-1.4,0.1-2c0-0.6,0.2-1.2,0.3-1.8
			c0.2-0.6,0.4-1.1,0.7-1.6c0.3-0.5,0.7-1,1.1-1.5c0.6-0.6,1.4-1.1,2.3-1.4c1.7-0.6,3.6-0.6,5.3,0c0.8,0.3,1.6,0.8,2.2,1.4
			c0.4,0.4,0.8,0.9,1.1,1.5c0.3,0.5,0.5,1.1,0.7,1.6c0.2,0.6,0.3,1.2,0.3,1.8c0,0.6,0.1,1.3,0.1,2S1224.6,125.6,1224.5,126.2z
			 M1221.4,123c0-0.4-0.1-0.9-0.2-1.3c-0.1-0.4-0.2-0.9-0.4-1.3c-0.2-0.4-0.4-0.7-0.7-1c-0.3-0.4-0.8-0.7-1.2-0.8
			c-0.9-0.4-2-0.4-2.9,0c-0.5,0.2-0.9,0.5-1.2,0.8c-0.3,0.3-0.5,0.6-0.7,1c-0.2,0.4-0.3,0.8-0.4,1.3c-0.1,0.4-0.1,0.9-0.1,1.3v2.5
			c0,0.4,0.1,0.9,0.1,1.3c0.1,0.4,0.2,0.8,0.4,1.3c0.4,0.9,1,1.5,1.9,1.9c0.9,0.4,2,0.4,2.9,0c0.5-0.2,0.9-0.5,1.2-0.8
			c0.3-0.3,0.5-0.7,0.7-1.1c0.2-0.4,0.3-0.8,0.4-1.2c0.1-0.4,0.1-0.9,0.2-1.3v-1.2C1221.4,123.9,1221.5,123.5,1221.4,123L1221.4,123
			z M1227.6,115.7h3.1v14.1h7.9v2.9h-11V115.7z M1240.8,115.7h12.1v2.8h-9v4h7.9v2.8h-7.9v4.6h9v2.8h-12.1V115.7z M1257.4,127.7
			l-0.7-6.6v-5.3h3.2v5.3l-0.7,6.6H1257.4z M1256.7,129.6h3.2v3.2h-3.2V129.6z M1281.9,126.2c0,0.6-0.1,1.2-0.3,1.8
			c-0.2,0.6-0.4,1.1-0.7,1.6c-0.3,0.5-0.7,1-1.1,1.5c-0.6,0.6-1.4,1.1-2.3,1.5c-1.7,0.6-3.6,0.6-5.3,0c-0.8-0.3-1.6-0.8-2.3-1.5
			c-0.4-0.4-0.8-0.9-1.1-1.5c-0.3-0.5-0.5-1.1-0.7-1.6c-0.2-0.6-0.3-1.2-0.3-1.8c0-0.6-0.1-1.3-0.1-2s0-1.4,0.1-2
			c0-0.6,0.1-1.2,0.3-1.8c0.2-0.6,0.4-1.1,0.7-1.6c0.3-0.5,0.7-1,1.1-1.5c0.6-0.6,1.4-1.1,2.3-1.4c1.7-0.6,3.6-0.6,5.3,0
			c0.8,0.3,1.6,0.8,2.3,1.4c0.4,0.4,0.8,0.9,1.1,1.5c0.3,0.5,0.5,1.1,0.7,1.6c0.2,0.6,0.3,1.2,0.3,1.8c0,0.6,0.1,1.3,0.1,2
			S1282,125.6,1281.9,126.2z M1278.8,123c0-0.4-0.1-0.9-0.2-1.3c-0.1-0.4-0.2-0.9-0.4-1.3c-0.2-0.4-0.4-0.7-0.7-1
			c-0.3-0.4-0.8-0.7-1.2-0.8c-0.5-0.2-1-0.3-1.5-0.3c-0.5,0-1,0.1-1.5,0.3c-0.5,0.2-0.9,0.5-1.2,0.8c-0.3,0.3-0.5,0.6-0.7,1
			c-0.2,0.4-0.3,0.8-0.4,1.3c-0.1,0.4-0.2,0.9-0.2,1.3v2.5c0,0.4,0.1,0.9,0.2,1.3c0.1,0.4,0.2,0.8,0.4,1.2c0.2,0.4,0.4,0.7,0.7,1.1
			c0.3,0.4,0.8,0.7,1.2,0.8c0.5,0.2,1,0.3,1.5,0.3c0.5,0,1-0.1,1.5-0.3c0.5-0.2,0.9-0.5,1.2-0.8c0.3-0.3,0.5-0.7,0.7-1.1
			c0.2-0.4,0.3-0.8,0.4-1.2c0.1-0.4,0.1-0.9,0.2-1.3v-1.2C1278.8,123.8,1278.8,123.4,1278.8,123L1278.8,123z M1285,115.7h3.1v14.1
			h7.9v2.9h-11L1285,115.7z M1298.2,115.7h12.1v2.8h-9v4h8v2.8h-8v4.6h9v2.8h-12.1V115.7z M1314.8,127.7l-0.7-6.6v-5.3h3.1v5.3
			l-0.7,6.6H1314.8z M1314.1,129.6h3.2v3.2h-3.2V129.6z"/>
		<path class="st30" d="M204.9,202.1l0.8-7.2h8v2.4H208l-0.4,3.1c0.7-0.4,1.4-0.5,2.1-0.5c1.2-0.1,2.4,0.4,3.2,1.3
			c0.8,1,1.2,2.2,1.1,3.5c0,0.9-0.2,1.7-0.6,2.5c-0.4,0.7-1,1.3-1.7,1.7c-0.8,0.4-1.7,0.6-2.6,0.6c-0.8,0-1.6-0.2-2.4-0.5
			c-0.7-0.3-1.3-0.8-1.8-1.5c-0.4-0.6-0.7-1.4-0.7-2.2h2.8c0,0.5,0.2,1,0.6,1.4c0.4,0.3,0.9,0.5,1.4,0.5c0.6,0,1.1-0.2,1.5-0.7
			c0.4-0.6,0.6-1.3,0.5-2c0-0.7-0.2-1.3-0.6-1.9c-0.4-0.4-1.1-0.7-1.7-0.6c-0.6,0-1.2,0.2-1.6,0.5l-0.3,0.2L204.9,202.1z
			 M214.1,171.7c0.1,1.6-0.3,3.2-1.2,4.5c-1.8,2-4.9,2.1-6.9,0.2c-0.1-0.1-0.2-0.2-0.2-0.2c-0.9-1.3-1.3-2.8-1.3-4.4v-2.6
			c-0.1-1.6,0.3-3.2,1.2-4.5c1.8-2,4.9-2.1,6.9-0.2c0.1,0.1,0.2,0.1,0.2,0.2c0.9,1.3,1.3,2.8,1.3,4.4V171.7z M211.2,168.8
			c0.1-0.9-0.1-1.8-0.5-2.6c-0.3-0.5-0.9-0.8-1.5-0.8c-0.6,0-1.2,0.3-1.5,0.8c-0.4,0.7-0.5,1.6-0.5,2.4v3.5
			c-0.1,0.9,0.1,1.8,0.5,2.6c0.3,0.6,0.9,0.9,1.5,0.9c0.6,0,1.2-0.3,1.5-0.8c0.4-0.8,0.5-1.6,0.5-2.5L211.2,168.8z"/>
		<path class="st7" d="M36.9,368.8c-1.2-0.3-2.2-0.8-3.2-1.5c-0.6-0.6-1-1.4-1-2.2c0-1,0.4-1.9,1.2-2.5c0.9-0.7,2-1,3.1-1
			c0.8,0,1.6,0.2,2.3,0.5c0.7,0.3,1.2,0.8,1.6,1.4c0.4,0.6,0.6,1.3,0.6,2H40c0-0.7-0.2-1.4-0.7-1.8c-0.6-0.5-1.3-0.7-2.1-0.7
			c-0.7,0-1.4,0.1-1.9,0.5c-0.5,0.4-0.7,0.9-0.7,1.5c0,0.5,0.2,1,0.7,1.3c0.7,0.5,1.5,0.8,2.3,1c0.9,0.2,1.7,0.6,2.5,1
			c0.5,0.3,1,0.7,1.3,1.3c0.3,0.5,0.5,1.1,0.4,1.7c0,1-0.4,1.9-1.2,2.5c-0.9,0.7-2.1,1-3.2,0.9c-0.8,0-1.7-0.2-2.5-0.5
			c-0.7-0.3-1.4-0.8-1.8-1.4c-0.4-0.6-0.6-1.3-0.6-2h1.7c0,0.7,0.3,1.4,0.9,1.8c0.7,0.5,1.5,0.7,2.3,0.7c0.7,0,1.4-0.1,2-0.5
			c0.5-0.3,0.7-0.9,0.7-1.5c0-0.6-0.2-1.1-0.7-1.5C38.6,369.3,37.8,369,36.9,368.8z M43.2,369.6c0-0.9,0.2-1.7,0.5-2.5
			c0.3-0.7,0.9-1.3,1.5-1.7c0.7-0.4,1.5-0.6,2.2-0.6c1.2,0,2.3,0.4,3.1,1.3c0.8,1,1.3,2.3,1.2,3.6v0.1c0,0.9-0.2,1.7-0.5,2.5
			c-0.3,0.7-0.9,1.3-1.5,1.7c-0.7,0.4-1.5,0.6-2.3,0.6c-1.2,0-2.3-0.5-3.1-1.4C43.5,372.3,43.1,371,43.2,369.6L43.2,369.6z
			 M44.8,369.8c0,0.9,0.2,1.8,0.7,2.5c0.8,1.1,2.4,1.3,3.5,0.4c0.2-0.1,0.3-0.3,0.4-0.4c0.5-0.8,0.8-1.8,0.7-2.7
			c0-0.9-0.2-1.8-0.7-2.5c-0.5-0.6-1.2-1-2-1c-0.8,0-1.5,0.4-1.9,1C45,367.9,44.7,368.9,44.8,369.8z M54.7,374.5v-8.2h-1.5V365h1.5
			v-1c-0.1-0.9,0.2-1.7,0.8-2.4c0.6-0.6,1.5-0.9,2.3-0.8c0.4,0,0.7,0.1,1.1,0.1l-0.1,1.3c-0.3-0.1-0.6-0.1-0.9-0.1
			c-0.5,0-0.9,0.1-1.2,0.5c-0.3,0.4-0.5,0.8-0.4,1.3v1h2v1.3h-2v8.2H54.7z M62.3,362.7v2.3h1.8v1.3h-1.8v5.9c0,0.3,0.1,0.6,0.2,0.9
			c0.2,0.2,0.5,0.3,0.8,0.3c0.3,0,0.5,0,0.8-0.1v1.3c-0.4,0.1-0.8,0.2-1.2,0.2c-0.6,0-1.2-0.2-1.7-0.7c-0.4-0.5-0.6-1.2-0.5-1.9
			v-5.9H59V365h1.7v-2.3L62.3,362.7z M74.4,372.2l1.8-7.2h1.6l-2.8,9.5h-1.3l-2.3-7.2l-2.2,7.2h-1.3l-2.8-9.5h1.6l1.9,7.1l2.2-7.1
			h1.3L74.4,372.2z M85.4,374.5c-0.1-0.3-0.2-0.7-0.2-1c-0.7,0.8-1.7,1.2-2.7,1.2c-0.8,0-1.7-0.3-2.3-0.8c-0.6-0.5-0.9-1.2-0.9-2
			c0-0.9,0.4-1.8,1.1-2.3c0.9-0.6,2.1-0.9,3.2-0.8h1.6V368c0-0.5-0.2-1-0.5-1.4c-0.4-0.4-1-0.5-1.5-0.5c-0.5,0-1,0.1-1.5,0.4
			c-0.4,0.2-0.6,0.6-0.6,1.1h-1.6c0-0.5,0.2-1,0.5-1.4c0.4-0.5,0.8-0.8,1.4-1c0.6-0.3,1.3-0.4,1.9-0.4c0.9-0.1,1.8,0.2,2.6,0.8
			c0.6,0.6,1,1.4,1,2.3v4.4c0,0.7,0.1,1.4,0.3,2.1v0.1L85.4,374.5z M82.7,373.2c0.5,0,1-0.1,1.4-0.4c0.4-0.2,0.8-0.6,1-1v-2h-1.3
			c-2,0-3,0.6-3,1.8c0,0.5,0.2,0.9,0.5,1.2C81.7,373.1,82.2,373.3,82.7,373.2L82.7,373.2z M93.9,366.4c-0.3,0-0.5-0.1-0.8-0.1
			c-0.9-0.1-1.8,0.5-2.2,1.4v6.8h-1.6V365h1.6v1.1c0.5-0.8,1.3-1.3,2.3-1.3c0.2,0,0.5,0,0.7,0.1L93.9,366.4z M99.3,374.7
			c-1.2,0-2.3-0.4-3.1-1.3c-0.8-0.9-1.3-2.1-1.2-3.4v-0.3c0-0.9,0.2-1.7,0.5-2.5c0.3-0.7,0.8-1.3,1.5-1.8c0.6-0.4,1.4-0.6,2.1-0.6
			c1.1-0.1,2.2,0.4,2.9,1.2c0.7,1,1.1,2.3,1,3.5v0.7h-6.4c0,0.8,0.3,1.6,0.8,2.3c0.5,0.6,1.2,0.9,2,0.9c0.5,0,1-0.1,1.5-0.4
			c0.4-0.2,0.8-0.6,1.1-0.9l1,0.8C102.2,374,100.8,374.7,99.3,374.7z M99.1,366.1c-0.6,0-1.2,0.3-1.7,0.7c-0.5,0.6-0.8,1.3-0.8,2
			h4.8v-0.1c0-0.7-0.2-1.4-0.7-1.9C100.3,366.3,99.7,366.1,99.1,366.1L99.1,366.1z"/>
		<text transform="matrix(1 0 0 1 203.51 260.57)" class="st30 st11 st31">6</text>
		<text transform="matrix(1 0 0 1 203.51 292.07)" class="st30 st11 st31">3</text>
		<text transform="matrix(1 0 0 1 203.51 343.57)" class="st30 st11 st31">3</text>
		<text transform="matrix(1 0 0 1 203.51 375.07)" class="st30 st11 st31">1</text>
	</g>
</g>
</svg>
