<svg version="1.1" id="Layer_1" xmlns="http://www.w3.org/2000/svg" x="0" y="0" viewBox="0 0 175.9 290.8" style="enable-background:new 0 0 175.9 290.8" xml:space="preserve"><style>.mdst0{fill:#e2d9d2}.mdst1{fill:#3e2723}.mdst3{fill:#477980}.mdst4{fill:#b37536}.mdst6{fill:#7d491e}.mdst10{fill:#2f5054}</style><g id="Layer_2_00000179604733575002248180000000122802597199727015_"><g id="OBJECTS"><path class="mdst0" d="M40.1 134.8c-2.1-3.5-5.4-6.2-9.2-7.5-1.3-.4-2.6-.7-4-.9-1.3-.1-2.6-.1-4 .1.3.1.5.1.8.2-.2-.1-.5-.2-.8-.2-2 .3-4 .9-5.8 1.8-1.3.7-2.5 1.5-3.5 2.4v.3-.3c-3.3 3-5.4 7.2-5.8 11.6l.2.3-.2-.3v.4c-.1 2.6.3 5.3 1.4 7.7l.2.6c.1.2.2.5.4.7 1.9 3.6 5.1 6.5 8.9 8l.5.2.6.2c2.5.8 5.1 1 7.7.7h.5c1.8-.3 3.6-.9 5.2-1.8 2.4-1.2 4.4-3 6-5.1.1-.1.2-.2.3-.4.1-.1.2-.2.2-.3 1.7-2.6 2.6-5.5 2.8-8.6.2-3.2-.5-6.3-2-9.1 0-.1-.2-.4-.4-.7z"/><path class="mdst1" d="M40.1 134.8c-2.1-3.5-5.4-6.2-9.2-7.5-1.3-.4-2.6-.7-4-.9h-.5c-.9 0-1.8.1-2.7.3-.1 0-.2-.1-.4-.1l-.4-.1c-2 .3-4 .9-5.8 1.8-1.3.7-2.4 1.5-3.5 2.4v.1c0 .4.1.8.3 1.1-.1.1-.2.3-.3.4-.2.2-.4.5-.5.7-.4.7-.8 1.3-1.1 2.1-.5 1.1-.9 2.3-1.1 3.6-.5.4-1 .9-1.4 1.4-.7.7-1.1 1.6-1.4 2.5-.1-.1-.1-.2-.2-.3v.4l.1.2v.1c-.2.9-.2 1.9-.1 2.8.2 1.3.6 2.5 1.3 3.6-.1.2-.1.5-.1.7v.2c.1.2.2.4.2.6v-.1c0-.4.1-.8.2-1.1l.6.2c.9.2 1.9.3 2.9.1.7 1 1.6 2 2.5 2.8.4.4.8.7 1.2 1 .6.5 1.3 1 2 1.5.1 1.4.5 2.8 1.2 4.1l-.3.1c-.3.1-.7.2-1 .2l.5.2c.2 0 .4-.1.6-.2.1 0 .2-.1.3-.1.3.2.6.4.9.5 1.9.7 4 .8 6 .3.1.2.3.3.5.4.2 0 .3 0 .5-.1-.2-.1-.4-.2-.6-.4v-.1c1.2-.7 2.2-1.7 2.8-3l.1-.3c.1-.1.1-.3.1-.4.2 0 .3 0 .5-.1.9-.2 1.9-.5 2.7-1l.8-.5c1-.6 1.9-1.3 2.7-2.1.7.3 1.4.5 2.1.6v.4c.1-.1.2-.2.3-.4v-.1l.2-.2c1.7-2.6 2.6-5.5 2.8-8.6-.1-.6-.4-1.3-.7-1.8v-1.3c0-.9-.1-1.8-.3-2.6-.3-1.4-.8-2.7-1.5-3.9.1.2.2.1.2-.1zm-19.2-5.4c.6-1 1.5-1.8 2.5-2.4 1-.2 2-.3 3-.3.4 0 .8 0 1.2.1.4 0 .8.1 1.2.2.9.2 1.7.4 2.5.8.4.1.7.3 1.1.5 1.2.8 2.1 2 2.5 3.3 0 .1 0 .2.1.3-.8.8-1.6 1.5-2.4 2.2l-1.3 1.1-.4-.1c-2.1-.7-4.3-.9-6.5-.6-.6-.9-1.2-1.8-1.9-2.6-.3-.3-.5-.6-.8-.9-.3-.3-.6-.7-1-.9.1-.3.2-.5.2-.7zm-8.7 5.9c.3-.7.6-1.3 1-1.9.2-.2.3-.5.5-.7l.6-.7c.6-.4 1.3-.7 2-1 1.3-.6 2.7-.9 4.2-.8.7.5 1.3 1.1 1.8 1.8.7.8 1.3 1.7 1.9 2.6l-.3.4c-1.1 1.7-2 3.6-2.6 5.5l-.1.2c-1 .2-1.9.4-2.9.7l-.6.2-.2.1c-1.1.3-2.1.7-3.1 1.2-1.4-1.1-2.5-2.5-3.3-4.1.2-1.2.6-2.4 1.1-3.5zm4.1 18.1-.6-.6c-.9-.8-1.6-1.7-2.3-2.7-.1-.8-.1-1.7 0-2.5.1-1.5.5-3.1 1.2-4.4 1.1-.4 2.1-.8 3.2-1.2h.1l.6-.2c.9-.3 1.8-.5 2.7-.7l.8.8c1.4 1.4 2.9 2.7 4.5 4-.1 1.2-.2 2.4-.4 3.6v.1c-.2 1.2-.4 2.4-.7 3.6l-.7.4-.7.3c-1.7.7-3.4 1.2-5.2 1.3-.9-.5-1.7-1.1-2.5-1.8zm21.9-4.3c-.1 1.2-.5 2.4-1 3.4-.9.9-1.9 1.7-3 2.4-.3.2-.5.3-.8.4-.6.3-1.3.6-2 .9-.4.1-.7.2-1.1.2-.3-.1-.6-.3-1-.5-1.4-.7-2.7-1.6-3.8-2.8.2-1.1.5-2.2.6-3.2 0-.1 0-.3.1-.4.2-1.2.3-2.4.4-3.5.8-.3 1.6-.7 2.3-1.1 1.3-.7 2.6-1.4 3.9-2.3.9.4 1.8.8 2.7 1.4l.2.1c.7.5 1.4 1 2.1 1.6l.3.3c.3 1.1.3 2.1.1 3.1zm3.1-10c.1.7.2 1.3.3 2v1.9c-.7 1.1-1.7 2.1-2.8 2.8l-.2.1-.5-.5c-.6-.6-1.3-1.1-2-1.5-.2-.1-.4-.3-.7-.4-.7-.4-1.4-.8-2.1-1.1-.1-1.4-.3-2.8-.6-4.2-.3-1-.6-1.9-1-2.9.4-.3.8-.7 1.2-1 .8-.7 1.7-1.5 2.5-2.2h.1c.7.2 1.4.5 2 .9.8.6 1.6 1.2 2.3 2 .6 1.3 1.2 2.7 1.5 4.1z"/><path d="M40.6 135.7c1.5 2.8 2.2 5.9 2 9.1-.2 3-1.2 6-2.8 8.6-.1.1-.1.2-.2.3-.1.1-.2.3-.3.4-1.6 2.2-3.6 3.9-6 5.1-1.7.9-3.4 1.5-5.3 1.8l-.5.1c-2.6.3-5.2.1-7.7-.7H21c2.6-.2 5.1-.9 7.4-2.1.6-.3 1.3-.7 1.9-1.1l.6-.4.5-.4c3.3-2.7 5.5-6.4 6.4-10.5 0-.1 0-.2.1-.3.8-4 .1-8.2-1.8-11.9l-.9-1.5c-.1-.2-.2-.4-.4-.5-1-1.4-2.2-2.7-3.5-3.8l-.5-.4c3.9 1.3 7.1 4 9.2 7.5.3.1.5.4.6.7z" style="fill-rule:evenodd;clip-rule:evenodd;fill:#dadada"/><path class="mdst1" d="M31 173.6c-5.6 1.3-10.8 3.9-15.2 7.5-.9.7-2.2.6-3-.3-.4-.5-.6-1.2-.4-1.9.3-1.2.7-2.4 1-3.5.9-2.9 6-6.6 9-7.1-.7-1.3 2.9-4.6 4.4-4.6 2.1.1 2.9 1.2 4.3 2.8.7.8 1.2 1.9 1.4 3 .2 1.6 0 3.8-1.5 4.1z"/><path class="mdst3" d="M68.2 177.5c-.1 7.1 1.2 16.2 5.2 22-2.6-1.2-5.3-2.4-7.8-3.7-1-.5-2-1-2.9-1.5-12.5-6.4-24.6-13.8-37.5-19.3.2-.4.4-.8.7-1.2 1.5-2.8 4.5-4.4 7.7-4 8.7.9 17.3 2.5 25.7 4.8l2.1.6c2.3.6 4.6 1.4 6.8 2.3z"/><path class="mdst4" d="M101.2 177.2c-9.2 2-19.3.5-28-3.8l.6 6.3c-1.8-.8-3.7-1.6-5.5-2.3-.1 7.1 1.2 16.2 5.2 22 4 1.8 8.1 3.9 12.1 5.7s9.9-3.3 11.2-7.5c1.8-6.6 3.3-13.5 4.4-20.4z"/><path d="M71.9 125.3c.7 17-.1 36.1 1.2 48.2 8.7 4.3 18.8 5.9 28 3.8 3.1-19.6 2.5-39.7-1.8-59.1-3.2-12.8-28.2-12.5-27.4 7.1z" style="fill:#dacdc5"/><path class="mdst6" d="M73.3 176c-.1.5-.1.9-.1 1.4 0 .5.1 1.1.2 1.6.2 1 .4 2 .7 3 .3 1 .7 1.9 1.2 2.9.4 1 1 1.8 1.7 2.6h.2v-.1c-.2-.5-.4-.9-.6-1.3-.2-.4-.4-.9-.7-1.3-.4-.9-.8-1.9-1.1-2.8-.3-1-.5-1.9-.7-2.9-.1-.5-.1-1-.2-1.5 0-.5 0-1-.2-1.5-.1-.2-.2-.2-.4-.2.1 0 .1 0 0 .1zm14.6 18.8c-.6.2-1.2.6-1.6 1.1-.5.4-1 .9-1.4 1.4s-1 .9-1.4 1.4l-.7.7c-.2.2-.4.5-.6.7-.1.2 0 .3.2.4h.2c.3-.1.6-.3.8-.5.3-.2.5-.4.8-.7.5-.4 1-.8 1.4-1.2l1.4-1.2c.3-.2.5-.4.8-.7.2-.2.4-.5.6-.8-.1-.3-.2-.6-.5-.6z"/><path class="mdst0" d="M61.4 175.1c-.3 7.1 1.1 14.2 4.2 20.6-1-.5-2-1-2.9-1.5-1.7-4.1-2.8-8.4-3.2-12.8-.2-2.3-.3-4.6-.1-6.9.6.2 1.3.4 2 .6z"/><path class="mdst4" d="M137.6 204.7 125 168.4l-25.5 15.3 15.6 16.1c3.1 3.2 5.2 7.2 6 11.6.4 1.9.8 4.1 1.5 6.5 7.9-1.2 12.2-6.6 15-13.2z"/><path class="mdst0" d="M59.8 135.8c4.8 21.4 26.7 31.3 38.5 48.1 10.7-1.7 19.4-7.7 26.7-15.5-8.3-20.4-21.1-36.4-32.6-55.2l-32.6 22.6z"/><path class="mdst3" d="M105 182.2c.8-.3 1.5-.6 2.2-.9-16-14.3-31.3-30.9-40.5-50.3l-1.5 1.1c9.1 19.6 22.8 36.8 39.8 50.1z"/><path d="m92.4 113.2-32.6 22.6c.4 1.9 1 3.7 1.7 5.4 13.9-1.2 28.4-6.3 38.9-15.6-2.7-4-5.4-8.1-8-12.4z" style="opacity:.41;fill:#dacdc5;enable-background:new"/><path class="mdst1" d="M154.6 269.1c6.2-.8 12-3 17.2-6.4 1.1-.7 2.5-.4 3.2.7.4.6.5 1.4.2 2.1-.5 1.3-1 2.5-1.5 3.6-1.3 3-7.2 6.4-10.5 6.7.6 1.5-3.7 4.7-5.2 4.4-2.3-.3-3-1.6-4.3-3.5-.7-1-1.1-2.2-1.1-3.4-.2-1.8.3-4 2-4.2z"/><path class="mdst3" d="m137.6 204.7 2.1 6.3.7 2 1.1 3.2.7 2.2 15.5 46.5 1.2 3.7c-.4 2.4-2.7 4.1-5.1 3.7h-.2l-.9-.2-.5-.5c-11.1-11.4-19.6-25-25.2-39.9-.2-.5-.4-.9-.5-1.4l-1.2-3.3c-.2-.6-.4-1.1-.5-1.6-.9-2.7-1.6-5.3-2.2-7.6 7.8-1.1 12.2-6.5 15-13.1z"/><path class="mdst0" d="m139.7 211 .7 2c-2.5 3.2-5.2 6.2-8.3 8.8-2.2 1.9-4.5 3.6-6.9 5.2-.2-.6-.4-1.1-.5-1.6 4.9-3.3 9.4-7.4 13.1-12 .7-.8 1.3-1.6 1.9-2.4z"/><path d="m120.7 204.8-3.3-3.5c-2.3-2.4-4.5-4.9-6.9-7.2-.2-.1-.4-.1-.5.1-.1.1-.1.3 0 .5 2.2 2.5 4.5 4.9 6.8 7.3l3.3 3.5c1.1 1.3 2.3 2.5 3.6 3.7.2.2.5.2.6 0 .1-.2.2-.4 0-.6-1.2-1.3-2.4-2.6-3.6-3.8z" style="fill:#bd6722"/><path class="mdst3" d="M113.8 41.7c-8.1-3-16.6-4.8-25.1-6.6L87 55.8c7.6 1 15.2 1.8 22.8 2.2 3.4-4.3 4.5-10.6 4-16.3z"/><path class="mdst0" d="M106.1 39.2c-1.1-.3-2.3-.6-3.4-.9-.1 6.5-.8 13.3-3.5 18.9l2.7.3c3.2-5.6 4.7-12 4.2-18.3zm7.7 2.5c-.9-.3-1.9-.7-2.8-1 1.8 6-.3 12-3.8 17.2l2.5.2c3.4-4.4 4.6-10.7 4.1-16.4z"/><path class="mdst4" d="M123.3 46.5c-1.6-1.4-3.4-2.5-5.4-3.2-1.3-.6-2.7-1.1-4.1-1.6.4 5.7-.7 12.1-4.1 16.4l3.3.2c2.6.3 5.2.1 7.6-.7 2.4-.9 4.6-2.9 4.9-5.4.3-2.2-.6-4.3-2.2-5.7z"/><path class="mdst3" d="M97.8 114.9c-5.3-22.2-1.2-48.5-3.9-70.4-.4-3.2-1.2-6.6-3.5-8.8-2.7-2.6-6.9-3-10.6-2.2s-7 2.6-10.4 4.1c-7.2 3.1-15 4.6-22.8 4.5-3 0-6-.3-8.9.2-8.4 1.5-7.2 7.5-6.3 14.2 1.2 8.4 3.1 16.8 5.8 24.8 5.3 16.2 11.3 42.5 21.9 55.8 12.2-3 30.2-12.9 38.7-22.2z"/><path d="M24.1 11.4C25.1 6.8 33.3 3 37.6 1 46.2-2.9 59 5.1 58.3 14.1c-.4 4.5-.3 8.5-4.9 10.2-2.5.9-5.2.5-7.8-.1-3.6-.8-7.1-2-10.5-3.5-.7-.3-1.4-.6-2.1-.8-.5-.1-1-.2-1.4-.4-1.2-.3-2.3-.8-3.3-1.5-3.3-3.1-4.7-4.7-4.2-6.6z" style="fill:#594542"/><path class="mdst1" d="M25.1 12.4c1-4.4 8.2-8 12.3-9.8 8.2-3.9 18 2.4 20.1 10.8 1 4.3 0 10.6-4.4 12.2-2.4.8-5.6-.6-8.1-1.1-3.4-.8-6.8-1.9-10-3.3-.6-.3-1.3-.5-2-.7-.5-.1-.9-.2-1.4-.3-1.1-.5-7-6.1-6.5-7.8z"/><path class="mdst4" d="M60.2 31c-1.6 4.6-4.4 8.7-8.1 11.8.3 1 .5 2 .9 3.1 7.3 2.5 10.9 3.2 12.4-2.4C64 40.9 62.1 36 60.2 31z"/><path class="mdst6" d="m54.8 18-7.7 12.4c2.1 3.9 3.8 8 4.9 12.3 3.7-3.1 6.5-7.2 8.1-11.8-1.9-5-3.9-10.2-5.3-12.9z"/><path class="mdst4" d="M31.5 20.8c2.5 5 5.5 10 9.7 13.7 2.8 2.4 7 2.2 9.6-.4 1.2-1.3 2.3-2.7 3.1-4.3 1.7-3.1 1.8-6.7.3-9.9 1.5.7 3.3-1.5 3.4-2.9 0-1.4-.8-2.7-2.1-3.3-1.3-.5-2.3.8-3.2 1.9-2.2-1-3.5-2.3-5.4-2.9-.4-1-.9-2-1.5-2.9-.6-1-1.8-1.5-3-1.3-4.5 1.2-8.5 3.6-11.8 6.9-.7.7-.8 1.8-.4 2.6.3 1 .9 2.1 1.3 2.8z"/><path class="mdst6" d="M53.5 15.6c.1-.3.4-.6.7-.9.3-.3.7-.4 1.1-.3.1 0 .1.1.1.2v.1c-.1.1-.3.2-.4.2-.1.1-.2.2-.3.2-.4.4-.6.9-.5 1.4 0 .3.1.6.3.8.1.1 0 .3-.1.4-.1.1-.3 0-.4-.1-.7-.4-.9-1.3-.5-2z"/><path class="mdst4" d="M6.6 82.5c-1.1 1.4-2.2 2.8-3.2 4.2C1.9 88.6.9 90.7.2 93c-.6 2.3 0 4.8 1.7 6.6 3 2.8 7.8 1.1 11.4-.9 2.8-1.6 5.6-3.2 8.2-5-6.4-1.2-12-5.3-14.9-11.2z"/><path class="mdst3" d="M41.8 42.8c-3.8-1.2-7.9-.5-11 2-3 2.5-5.2 5.8-6.2 9.6l-.3 1.2c-1.9 7.5-5.9 14.4-11.4 19.9-2.2 2.3-4.3 4.6-6.3 7 2.9 5.9 8.5 10 15 11.1 4.2-2.8 8.2-6 12-9.4 4.6-4.2 9-9 10.9-15 2.3-7.9-.3-18.5-2.7-26.4z"/><path class="mdst0" d="M10.1 78.4c-1.2 1.3-2.4 2.7-3.5 4.1 2.9 5.9 8.5 10 15 11.1.8-.5 1.6-1.1 2.3-1.7-5.3-3.7-9.9-8.3-13.8-13.5zm19.6 9.1c.9-.8 1.8-1.5 2.7-2.3-5.8-4.6-10-10.4-14-16.5-.8 1.2-1.8 2.4-2.7 3.6 4.1 5.3 8.8 11.2 14 15.2z"/><path class="mdst4" d="M48.2 101.9v-4.1c-7.6-3.2-17.1-4.3-24.6-7.8-5.8-2.7-9.9-.7-15.3-.2-4.2.3-8.3 2.5-8.3 6.7v.2c.1 4.3 3.7 7 7.9 7.8 8 1.6 27.7 2.3 40.3-2.6z"/><path class="mdst4" d="M42.7 102.9c2.8.7 5.8.7 8.6-.1 1.3-.4 2.5-1 3.5-1.9 1-.9 1.6-2.2 1.6-3.6 1.4-1.3 3-2.4 4.3-3.8 1.9-.1 3.9.3 5.6 1.2.7.2.8-.4.6-.7-.2-.3-.4-.6-.8-.8-1.4-1-3-1.7-4.7-2.1-5.4 1.9-11.1 4-16.6 5.9-.5.1-1.1.4-1.5.8-.6.6-.8 1.4-.7 2.2.1.8-.2 2.2.1 2.9z"/><path class="mdst4" d="M53.4 95.5c1.3-1.2 2.5-2.5 3.4-4 1-1.5 2.4-2.6 4.2-3 1.8-.3 3.4.3 5.4.1.2.4.1.8-.2 1.1-.3.2-.6.3-1 .3l-3.8.5c-1.8 1.4-3.7 3-4.5 5.1-.1.3-.3.7-.5.9-.5.4-1.2.4-1.8.1-.6-.2-.9-.6-1.2-1.1z"/><path class="mdst4" d="M52.4 97.5c1.7-.5 3.3-1.2 4.8-2.2 1.6-.8 3.4-1.4 5-.9s3 1.7 4.9 2.4c0 .4-.3.8-.7.9-.3 0-.7 0-1-.2l-3.7-1.2c-2.2.6-4.6 1.1-6.3 2.7-.2.3-.5.5-.8.6-.6.1-1.3-.1-1.6-.7-.4-.4-.6-.9-.6-1.4z"/><path class="mdst4" d="M51.1 99c1.7-.2 3.4-.6 5.1-1.3 1.6-.7 3.5-.7 5.1 0 1.6.8 2.6 2.2 4.4 3.2-.1.4-.4.7-.8.8-.4 0-.7-.1-1-.3l-3.4-1.8c-2.3.2-4.7.3-6.7 1.6-.3.2-.6.4-1 .5-.7 0-1.3-.3-1.5-.9-.3-.7-.3-1.2-.2-1.8z"/><path class="mdst6" d="M25.8 90.5c-3.1-1.5-6.5-2.2-10-2.1-2.6.2-5.6 1.2-7.1 3.5 2.1-1.9 4.7-2.9 7.5-3 3.2-.1 6.5.9 9.6 1.8.5.1.3-.1 0-.2z"/><path class="mdst10" d="M63.9 48c-1.2-.3-2.4-.4-3.5-.6s-2.3-.5-3.4-.8c-2.3-.6-4.4-1.6-6.7-2.2-.2 0-.2.2-.1.3 2 1.3 4.2 2.3 6.6 2.8 1.2.3 2.3.6 3.5.8 1.2.2 2.4.3 3.6.2.1 0 .3-.1.3-.3-.1-.1-.2-.2-.3-.2z"/><path class="mdst10" d="M66.1 41.3c0-.2-.4-.2-.4 0 0 2.7-1.7 5.2-4.3 6.2-.5.2-.3.9.2.7 2.9-.9 4.8-3.8 4.5-6.9zM42.4 74c-1.3 1.3-2.3 2.8-3.5 4.2s-2.4 2.7-3.7 4-2.6 2.4-4 3.6c-.7.6-1.4 1.2-2.2 1.8-.7.5-1.4 1-1.9 1.7.8-.3 1.6-.7 2.3-1.2.7-.5 1.4-1 2.1-1.6 1.5-1.2 2.9-2.4 4.2-3.7 1.3-1.3 2.6-2.7 3.8-4.1 1.2-1.3 2.3-2.8 3.2-4.4.1-.3-.1-.5-.3-.3zm52.5 10c-.2-5-.2-9.9-.1-14.8s.3-9.7.2-14.6c0-5.4-.7-10.7-2.1-15.9 0-.1-.1-.1-.2-.1s-.1.1-.1.2c1.9 9.6 2 19.4 1.8 29.1-.2 10 0 19.9.8 29.8.4 5.6 1.1 11.1 1.9 16.6.1.4.6.2.6-.2-1.5-10-2.4-20-2.8-30.1z"/><path class="mdst4" d="M91 49.9c.6 1-.2 2.5-.7 3.5-2.2 4.1-6.8 6.1-11.3 5.1-1.4.1-3.4.4-4.8.5-.3 0-.5 0-.8-.1-.3-.1-.4-.4-.4-.6.1-.3.5-.5.8-.5l6.9-1.5c-3.2-3.7-6.8-6.8-10.9-9.4-.3-.1-.5-.4-.7-.6-.2-.3-.1-.6.1-.8.3-.2.7 0 1 .1l8.4 4.5c1.9-1.6 4.2-2.7 6.7-3.1.7-.2 1.3-.2 2 0 1.5.5 2.8 1.5 3.7 2.9z"/><path class="mdst4" d="M71.7 43.1c-.4-.2-.8-.3-1.2-.1-.3.2-.3.6-.1.8.2.3.5.5.8.6 2.9 1.6 5.7 3.5 8.4 5.5l2.6-1.3c-3.2-1.5-7.3-4-10.5-5.5zm4.1-.4c-.4-.2-.8-.3-1.2-.1-.3.2-.3.6-.1.8.2.3.5.5.8.6 2.9 1.6 5.7 3.4 8.4 5.5l2.6-1.3c-3.2-1.5-7.2-4-10.5-5.5z"/><path class="mdst4" d="M80.1 43c-.4-.2-.8-.3-1.2-.1-.3.2-.3.6-.1.8.2.3.5.5.8.6 2.9 1.6 5.8 3.4 8.4 5.5v-2.5c-3.2-1.5-4.7-2.8-7.9-4.3z"/><path class="mdst4" d="M84.3 51.5c.2 1.7.2 1.8.4 3.5 7.1 2 14.3 3.5 21.6 4.4 4.6.7 9.4.6 14-.2 3.5-.7 5.8-3.9 5.4-7.4v-.1c-.4-3.7-3.7-6.3-7.4-5.9-11.7 1.1-23.8.4-34 5.7z"/><path class="mdst6" d="M87.9 52.9c-1.2-.6-2.6-.8-3.9-.4-.7.1-1.3.4-1.9.7-.6.3-1.1.7-1.4 1.3 0 .1 0 .1.1.2h.1c.5-.2 1.1-.5 1.6-.8.6-.3 1.1-.5 1.8-.6 1.2-.2 2.5-.2 3.7 0 .1 0 .1 0 .1-.1-.1-.2-.1-.3-.2-.3z"/><path class="mdst6" d="M88.8 53c-.4-.3-.7-.5-1.1-.7-.4-.2-.8-.5-1.1-.7-.7-.5-1.4-1.1-2-1.7-.1-.1-.3.1-.2.2.6.7 1.3 1.4 2 1.9.4.3.7.5 1.1.8.4.3.8.5 1.2.6.2.1.3-.2.1-.4z"/><path class="mdst10" d="M82.7 115.1c-1.1.2-2.2.7-3.4 1s-2.3.5-3.4.7c-7 1.1-14.2.1-20.7-2.9-2.4-1.1-4.7-2.4-6.8-4-.1-.1-.2.1-.1.2 7.6 6 17.4 8.7 27 7.4 1.3-.2 2.6-.4 3.9-.7 1.3-.3 2.6-.7 3.8-1.3.2 0 0-.4-.3-.4zm2.1 2.1c-1.8 1.1-3.7 2.1-5.6 3-2 .8-4 1.5-6.1 1.9-4.1.9-8.4 1.1-12.6.5-2.4-.3-4.7-.9-7-1.6-.1 0-.1.1 0 .1 7.8 3.6 17.5 3.2 25.4 0 2.2-.9 4.4-2 6.3-3.5.2-.1-.1-.5-.4-.4zM43.7 77.4c-1.1.4-2.2 1-3.2 1.5s-2.2 1.1-3.2 1.7c-.1.1 0 .3.1.2 1.1-.4 2.2-1 3.2-1.5s2.2-1 3.3-1.7c.1 0 0-.3-.2-.2zm13.5-26.9c-.9-.5-1.8-1-2.8-1.4-.9-.5-1.8-1-2.8-1.5S49.8 46.5 49 46s-1.7-1.2-2.6-1.7c-.1 0-.2.1-.1.2.7.7 1.5 1.4 2.4 1.9l2.7 1.8c.9.6 1.8 1 2.7 1.5.9.5 1.9 1 2.9 1.3.1 0 .2 0 .3-.1 0-.2 0-.3-.1-.4zm40 63.6c-2.1 1.8-4.1 3.7-6.3 5.3-2.1 1.6-4.3 3-6.7 4.2-4.7 2.5-9.8 4.3-15.1 5.3-1.5.3-3 .5-4.5.7s-3.1.2-4.7.3c-.1 0-.2.1-.2.3 0 .1.1.2.2.2 1.4.1 2.8.1 4.2-.1 1.3-.1 2.6-.2 3.9-.4 2.7-.5 5.4-1.1 8-2 5.2-1.7 10-4.2 14.4-7.4 2.5-1.7 4.8-3.8 6.8-6.2.1 0 .2-.1.1-.2 0-.1-.1-.2-.2-.1.2-.1.2 0 .1.1z"/></g></g></svg>