<svg xmlns="http://www.w3.org/2000/svg" viewBox="0 0 175.87 290.82"><defs><style>.mdcls-3{fill:#e2d9d2}.mdcls-4{fill:#3e2723}.mdcls-6{fill:#477980}.mdcls-7{fill:#b37536}.mdcls-9{fill:#7d491e}.mdcls-13{fill:#2f5054}</style></defs><g style="isolation:isolate"><g id="Layer_2" data-name="Layer 2"><g id="OBJECTS"><path d="M109.73 269.57c-20.59 0-39 1.52-51.11 3.89-3.72-1.32-10.39-2.2-18-2.2-11.68 0-21.15 2.05-21.15 4.59s9.47 4.59 21.15 4.59c1 0 2 0 3-.05.63 5.78 30 10.43 66.1 10.43 36.53 0 66.14-4.76 66.14-10.62s-29.6-10.63-66.13-10.63Z" fill="#5f3324" opacity=".17"/><path class="mdcls-3" d="M40.13 134.83a17.43 17.43 0 0 0-9.24-7.49 18.34 18.34 0 0 0-4-.88 18 18 0 0 0-3.95.06 4.87 4.87 0 0 1 .77.22 4.18 4.18 0 0 0-.77-.21 17 17 0 0 0-5.77 1.83 17.67 17.67 0 0 0-3.53 2.43 1.29 1.29 0 0 0 0 .28 1.22 1.22 0 0 1 0-.27 17.55 17.55 0 0 0-5.75 11.62l.2.28H8l-.2-.28v.45a17.28 17.28 0 0 0 1.35 7.7l.24.57c.11.24.23.48.35.72a17.36 17.36 0 0 0 8.87 8l.55.22.64.22a17.59 17.59 0 0 0 7.74.7H28a17.65 17.65 0 0 0 5.25-1.75 17.33 17.33 0 0 0 6-5.14c.1-.12.18-.25.27-.38a4 4 0 0 0 .23-.34 17.65 17.65 0 0 0 2.84-8.55 17.26 17.26 0 0 0-2-9.1c-.12-.33-.29-.62-.46-.91Z"/><path class="mdcls-4" d="M40.13 134.84a17.44 17.44 0 0 0-9.24-7.5 17.79 17.79 0 0 0-4-.88s0 0-.06 0a2.41 2.41 0 0 0-.38 0 12.06 12.06 0 0 0-2.73.28 2.65 2.65 0 0 0-.37-.12l-.38-.1a17.16 17.16 0 0 0-5.78 1.83 17.53 17.53 0 0 0-3.51 2.43.61.61 0 0 0 0 .14 2.67 2.67 0 0 0 .3 1.09 4.08 4.08 0 0 0-.31.39c-.18.23-.35.48-.53.72a14.49 14.49 0 0 0-1.15 2.07 13.29 13.29 0 0 0-1.05 3.59 10 10 0 0 0-1.44 1.39 6 6 0 0 0-1.36 2.53c-.08-.1-.14-.19-.21-.29v.45l.15.19v.11A9.56 9.56 0 0 0 8 146a10.31 10.31 0 0 0 1.31 3.62 6.3 6.3 0 0 0-.15.71.93.93 0 0 1 0 .14v.12c.08.18.16.37.25.56a.56.56 0 0 1 0-.13 5.23 5.23 0 0 1 .16-1.15l.57.17a7.07 7.07 0 0 0 2.9.12A21.07 21.07 0 0 0 15.5 153c.37.36.77.71 1.17 1a19.45 19.45 0 0 0 2 1.46 10.25 10.25 0 0 0 1.24 4.09l-.29.1a4 4 0 0 1-1 .2l.55.22a4.31 4.31 0 0 0 .59-.16 1.63 1.63 0 0 0 .34-.14 3.92 3.92 0 0 0 .94.49 11.1 11.1 0 0 0 6 .31 2.32 2.32 0 0 0 .47.42c.16 0 .31 0 .46-.06a2.22 2.22 0 0 1-.61-.42l-.05-.06a6.75 6.75 0 0 0 2.79-3l.15-.34a2.92 2.92 0 0 0 .14-.38 4 4 0 0 0 .48-.07 10.83 10.83 0 0 0 2.71-1l.78-.46a16.35 16.35 0 0 0 2.69-2.06 5 5 0 0 0 2.11.56 2.41 2.41 0 0 1 0 .38c.1-.12.18-.25.27-.37a.65.65 0 0 1 0-.14l.23-.2a17.68 17.68 0 0 0 2.84-8.56 5.34 5.34 0 0 0-.72-1.82v-1.33a12.91 12.91 0 0 0-.3-2.62 13.69 13.69 0 0 0-1.53-3.87 1.14 1.14 0 0 0 .18-.33Zm-19.19-5.4a7.32 7.32 0 0 1 2.54-2.37 12.64 12.64 0 0 1 3-.33 11.28 11.28 0 0 1 1.16.07c.41 0 .81.11 1.22.19a17.2 17.2 0 0 1 2.53.77c.36.14.74.29 1.11.46a6.35 6.35 0 0 1 2.5 3.31 2.61 2.61 0 0 1 .06.27c-.79.75-1.61 1.48-2.43 2.22l-1.29 1.13-.43-.14a15.05 15.05 0 0 0-6.45-.61 26.9 26.9 0 0 0-1.9-2.59c-.26-.3-.51-.58-.77-.85a11.41 11.41 0 0 0-1-.95 2 2 0 0 1 .15-.58Zm-8.77 5.88a14 14 0 0 1 1-1.9c.16-.25.34-.49.51-.73l.61-.74a16.12 16.12 0 0 1 2-1 9.2 9.2 0 0 1 4.16-.8 13.37 13.37 0 0 1 1.82 1.8 22.9 22.9 0 0 1 1.87 2.55l-.31.45a22.14 22.14 0 0 0-2.57 5.5l-.08.24c-1 .19-1.92.44-2.88.73l-.57.18-.2.06c-1.06.34-2.11.74-3.15 1.18a13.22 13.22 0 0 1-3.27-4.09 13 13 0 0 1 1.06-3.43Zm4.15 18.06q-.33-.27-.63-.57a21.68 21.68 0 0 1-2.34-2.71 13.94 13.94 0 0 1 0-2.49 11.61 11.61 0 0 1 1.17-4.44c1.06-.44 2.13-.84 3.22-1.19h.15l.62-.19c.9-.27 1.79-.49 2.69-.69l.82.79c1.44 1.37 2.93 2.7 4.46 4a34.65 34.65 0 0 1-.4 3.61v.08c-.19 1.2-.44 2.42-.71 3.64l-.67.35-.72.34a16.56 16.56 0 0 1-5.2 1.3 18 18 0 0 1-2.46-1.83Zm21.92-4.26a9.9 9.9 0 0 1-1 3.44 15.46 15.46 0 0 1-3 2.39c-.26.16-.54.3-.79.45a10.94 10.94 0 0 1-2 .85 4.56 4.56 0 0 1-1.12.23c-.32-.14-.65-.3-1-.46a13.45 13.45 0 0 1-3.81-2.79c.25-1.1.46-2.17.64-3.25 0-.15.05-.3.08-.45a33.35 33.35 0 0 0 .4-3.54c.78-.34 1.56-.69 2.32-1.09a44.1 44.1 0 0 0 3.9-2.27 16.69 16.69 0 0 1 2.69 1.37l.24.15a16.31 16.31 0 0 1 2.09 1.62l.34.3a12.13 12.13 0 0 1 .02 3.05Zm3.08-10a14.38 14.38 0 0 1 .28 2 14.79 14.79 0 0 1 0 1.88 8.33 8.33 0 0 1-2.84 2.8l-.25.14a5.66 5.66 0 0 0-.52-.47 15.58 15.58 0 0 0-2-1.54 6.31 6.31 0 0 0-.65-.4 13.42 13.42 0 0 0-2.14-1.08 20.65 20.65 0 0 0-.63-4.22 18.65 18.65 0 0 0-1-2.86c.4-.34.8-.69 1.18-1 .84-.74 1.67-1.48 2.46-2.24h.14a5.9 5.9 0 0 1 2 .9 11.23 11.23 0 0 1 2.26 2 13.88 13.88 0 0 1 1.71 4.08Z"/><path d="M40.62 135.71a17.26 17.26 0 0 1 2 9.1 17.65 17.65 0 0 1-2.84 8.55 4 4 0 0 1-.23.34c-.09.13-.17.26-.27.38a17.33 17.33 0 0 1-6 5.14A17.65 17.65 0 0 1 28 161l-.46.07a17.59 17.59 0 0 1-7.74-.7h1.23a18.28 18.28 0 0 0 7.39-2.06 20.29 20.29 0 0 0 1.86-1.11l.63-.45.54-.43a18.24 18.24 0 0 0 6.4-10.51c0-.11 0-.22.07-.33a18.3 18.3 0 0 0-1.77-11.87 16.25 16.25 0 0 0-.87-1.47 5.07 5.07 0 0 0-.36-.54 18.09 18.09 0 0 0-3.52-3.77l-.54-.43a17.43 17.43 0 0 1 9.24 7.49c.2.23.37.52.52.82Z" style="mix-blend-mode:multiply" fill="#dadada" fill-rule="evenodd"/><path class="mdcls-4" d="M31 173.61a37.35 37.35 0 0 0-15.19 7.51 2.1 2.1 0 0 1-3.35-2.19c.32-1.21.7-2.39 1-3.46.92-2.92 6-6.55 9-7.15-.71-1.27 2.92-4.64 4.38-4.58 2.1.09 2.92 1.18 4.32 2.83a5.74 5.74 0 0 1 1.36 3c.22 1.57-.06 3.72-1.52 4.04Z"/><path class="mdcls-6" d="M68.23 177.47c-.08 7.07 1.15 16.21 5.17 22a187.34 187.34 0 0 1-7.84-3.73c-1-.49-2-1-2.92-1.48-12.53-6.45-24.64-13.77-37.45-19.33.21-.36.44-.78.69-1.24a7.75 7.75 0 0 1 7.67-4 154.5 154.5 0 0 1 25.72 4.84q1.08.3 2.13.63c2.3.67 4.6 1.45 6.83 2.31Z"/><path class="mdcls-7" d="M101.15 177.24c-9.21 2-19.33.46-28-3.8.22 2.11.43 4.23.61 6.34-1.81-.83-3.65-1.6-5.5-2.31-.08 7.08 1.15 16.2 5.18 22 4 1.79 8.07 3.95 12.07 5.71s9.93-3.27 11.15-7.51a168.82 168.82 0 0 0 4.49-20.43Z"/><path d="M71.93 125.26c.69 17-.07 36.14 1.19 48.18 8.7 4.26 18.82 5.85 28 3.8a157.91 157.91 0 0 0-1.78-59.08c-3.24-12.75-28.21-12.42-27.41 7.1Z" fill="#dacdc5"/><path class="mdcls-9" d="M73.32 176a3.31 3.31 0 0 0-.07 1.4c0 .54.09 1.08.17 1.62a20.94 20.94 0 0 0 .7 3 18.37 18.37 0 0 0 1.17 2.87 7.58 7.58 0 0 0 1.71 2.57.11.11 0 0 0 .17-.13 8.29 8.29 0 0 0-.63-1.31c-.22-.43-.44-.87-.65-1.32a23.36 23.36 0 0 1-1.07-2.82 19.79 19.79 0 0 1-.65-2.94c-.07-.48-.12-1-.16-1.46a5.07 5.07 0 0 0-.15-1.46.3.3 0 0 0-.54-.02ZM87.88 194.83a4.15 4.15 0 0 0-1.6 1.09c-.49.44-1 .9-1.45 1.35s-1 .89-1.45 1.35c-.24.24-.49.46-.72.7a2.44 2.44 0 0 0-.59.74.31.31 0 0 0 .4.41 2.53 2.53 0 0 0 .8-.51c.27-.21.53-.44.79-.66.49-.4 1-.82 1.44-1.24l1.44-1.25a7.05 7.05 0 0 0 .75-.69 3.11 3.11 0 0 0 .57-.79c.08-.23-.09-.58-.38-.5Z"/><path class="mdcls-3" d="M61.4 175.12a43.39 43.39 0 0 0 4.16 20.61c-1-.49-2-1-2.92-1.48a44.4 44.4 0 0 1-3.25-12.84 41 41 0 0 1-.12-6.92q1.08.3 2.13.63Z"/><path class="mdcls-7" d="M137.63 204.68 125 168.39 99.51 183.7l15.55 16.05a22.86 22.86 0 0 1 6 11.57c.36 1.86.84 4.06 1.47 6.54 7.92-1.2 12.23-6.52 15.1-13.18Z"/><path class="mdcls-3" d="M59.84 135.83c4.81 21.42 26.66 31.29 38.45 48.1 10.65-1.69 19.4-7.71 26.69-15.54C116.65 148 103.92 132 92.41 113.2Z"/><path class="mdcls-6" d="M105 182.21c.76-.27 1.5-.56 2.24-.87-16-14.3-31.33-30.87-40.5-50.33l-1.5 1.05A136.73 136.73 0 0 0 105 182.21Z"/><path d="m92.41 113.2-32.57 22.63a38.69 38.69 0 0 0 1.67 5.44c13.92-1.2 28.39-6.31 38.86-15.63-2.67-4.06-5.37-8.18-7.96-12.44Z" style="mix-blend-mode:multiply" opacity=".41" fill="#dacdc5"/><path class="mdcls-4" d="M154.55 269.08a40.42 40.42 0 0 0 17.22-6.38 2.28 2.28 0 0 1 3.36 2.75c-.48 1.27-1 2.49-1.51 3.61-1.33 3-7.19 6.37-10.49 6.68.63 1.45-3.67 4.67-5.23 4.44-2.26-.33-3-1.6-4.34-3.54a6.17 6.17 0 0 1-1.12-3.42c-.05-1.68.49-3.96 2.11-4.14Z"/><path class="mdcls-6" d="m137.63 204.68 2.1 6.32.68 2 1.08 3.25.73 2.23L157.7 265l1.22 3.68a4.46 4.46 0 0 1-5.36 3.64l-.95-.22-.48-.49a114.65 114.65 0 0 1-25.19-39.88c-.18-.47-.36-.93-.52-1.39-.41-1.11-.79-2.2-1.16-3.26-.18-.55-.36-1.07-.52-1.6-.89-2.74-1.61-5.29-2.2-7.58 7.9-1.23 12.22-6.56 15.09-13.22Z"/><path class="mdcls-3" d="m139.73 211 .68 2a61.08 61.08 0 0 1-8.27 8.83 57.48 57.48 0 0 1-6.88 5.2c-.18-.55-.36-1.07-.52-1.6a58.5 58.5 0 0 0 13.09-12c.65-.78 1.29-1.6 1.9-2.43Z"/><path d="m120.7 204.82-3.33-3.5c-2.29-2.4-4.52-4.88-6.92-7.18a.39.39 0 0 0-.56.53c2.15 2.53 4.5 4.91 6.76 7.33l3.3 3.53a46.34 46.34 0 0 0 3.59 3.69.44.44 0 0 0 .64-.6 50.06 50.06 0 0 0-3.48-3.8Z" fill="#bd6722"/><path class="mdcls-6" d="M113.84 41.65c-8.11-3-16.63-4.78-25.1-6.57L87 55.78c7.56 1 15.16 1.78 22.78 2.24 3.37-4.3 4.49-10.65 4.06-16.37Z"/><path class="mdcls-3" d="M106.05 39.16c-1.14-.32-2.28-.62-3.42-.91-.12 6.46-.81 13.32-3.54 18.91.9.09 1.81.19 2.72.27a30.15 30.15 0 0 0 4.24-18.27ZM113.84 41.65c-.93-.34-1.86-.66-2.8-1 1.84 6-.35 12-3.84 17.16l2.53.18c3.42-4.27 4.54-10.62 4.11-16.34Z"/><path class="mdcls-7" d="M123.33 46.48a17.74 17.74 0 0 0-5.43-3.23 79.57 79.57 0 0 0-4.06-1.6c.43 5.72-.69 12.07-4.11 16.37l3.34.2a20.21 20.21 0 0 0 7.64-.65c2.42-.86 4.62-2.86 4.93-5.42a7 7 0 0 0-2.31-5.67Z"/><path class="mdcls-6" d="M97.83 114.9c-5.29-22.2-1.2-48.46-3.93-70.43-.4-3.21-1.18-6.6-3.52-8.85-2.7-2.6-6.89-3-10.55-2.25s-7 2.64-10.43 4.11A55.8 55.8 0 0 1 46.57 42c-3-.05-6-.34-8.91.17-8.41 1.48-7.25 7.55-6.33 14.21a144 144 0 0 0 5.75 24.85C42.37 97.4 48.39 123.75 59 137.06c12.33-2.92 30.27-12.82 38.83-22.16Z"/><path d="M24.06 11.45C25.14 6.84 33.31 3 37.56 1 46.25-2.93 59 5.1 58.28 14.15c-.36 4.53-.28 8.51-4.92 10.18-2.48.89-5.22.46-7.78-.14a60.89 60.89 0 0 1-10.52-3.48 15.76 15.76 0 0 0-2.06-.77c-.47-.13-1-.21-1.42-.37a8.34 8.34 0 0 1-3.3-1.52c-3.28-3.19-4.65-4.75-4.22-6.6Z" fill="#594542"/><path class="mdcls-4" d="M25.07 12.35c1-4.38 8.23-8 12.27-9.84C45.62-1.26 55.42 5 57.45 13.41c1 4.26 0 10.62-4.43 12.21-2.36.84-5.63-.57-8.06-1.14a58.63 58.63 0 0 1-10-3.29 13.85 13.85 0 0 0-2-.74c-.45-.12-.91-.19-1.35-.34-1.09-.38-6.96-6.01-6.54-7.76Z"/><path class="mdcls-7" d="M60.21 31a26.85 26.85 0 0 1-8.11 11.79c.27 1 .55 2 .86 3.07 7.27 2.45 10.92 3.19 12.45-2.36C64 40.9 62.13 36 60.21 31Z"/><path class="mdcls-9" d="m54.82 18.05-7.66 12.42a58.59 58.59 0 0 1 4.94 12.32A26.85 26.85 0 0 0 60.21 31c-1.98-5.11-3.98-10.27-5.39-12.95Z"/><path class="mdcls-7" d="M31.47 20.75c2.49 5 5.54 10 9.72 13.69a7 7 0 0 0 9.57-.44 17.32 17.32 0 0 0 3.07-4.29 11 11 0 0 0 .3-9.91c1.52.69 3.28-1.48 3.36-2.87a3.46 3.46 0 0 0-2.1-3.3c-1.29-.52-2.27.84-3.18 1.89-2.2-1-3.49-2.31-5.43-2.85a18.28 18.28 0 0 0-1.52-2.88 2.83 2.83 0 0 0-3-1.26 25.28 25.28 0 0 0-11.76 6.9 2.31 2.31 0 0 0-.41 2.63c.45.94 1.03 1.99 1.38 2.69Z"/><path class="mdcls-9" d="M53.47 15.62a2.22 2.22 0 0 1 .68-.87 1.36 1.36 0 0 1 1.07-.32.16.16 0 0 1 .06.27 3.3 3.3 0 0 1-.41.23 1.66 1.66 0 0 0-.34.25 1.62 1.62 0 0 0-.53 1.44 3.06 3.06 0 0 0 .26.81.29.29 0 0 1-.48.32 2 2 0 0 1-.31-2.13Z"/><path class="mdcls-7" d="M6.6 82.48c-1.11 1.37-2.19 2.76-3.18 4.18A18.19 18.19 0 0 0 .24 93a6.9 6.9 0 0 0 1.69 6.56c3 2.75 7.82 1.1 11.39-.87 2.82-1.55 5.56-3.24 8.23-5A20.69 20.69 0 0 1 6.6 82.48Z"/><path class="mdcls-6" d="M41.75 42.8a11.7 11.7 0 0 0-11 2 18.35 18.35 0 0 0-6.16 9.63c-.12.39-.22.78-.32 1.17a43.07 43.07 0 0 1-11.42 19.9c-2.21 2.26-4.32 4.6-6.28 7a20.69 20.69 0 0 0 15 11.13 106.07 106.07 0 0 0 12-9.38c4.64-4.2 9-9 10.86-15 2.32-7.98-.18-18.55-2.68-26.45Z"/><path class="mdcls-3" d="M10.11 78.4q-1.83 2-3.51 4.08a20.69 20.69 0 0 0 15 11.13c.79-.54 1.56-1.11 2.34-1.67A59.85 59.85 0 0 1 10.11 78.4ZM29.68 87.51c.92-.75 1.82-1.52 2.71-2.3-5.76-4.56-10-10.4-14-16.49-.84 1.24-1.75 2.44-2.71 3.6 4.14 5.29 8.77 11.15 14 15.19Z"/><path class="mdcls-7" d="M48.17 101.86v-4.08c-7.63-3.17-17.11-4.33-24.59-7.8-5.82-2.71-9.91-.65-15.32-.19C4.13 90.14 0 92.33 0 96.48v.15c.07 4.34 3.67 7 7.92 7.83 7.94 1.62 27.72 2.33 40.25-2.6Z"/><path class="mdcls-7" d="M42.7 102.93a15.66 15.66 0 0 0 8.56-.14 8.72 8.72 0 0 0 3.53-1.9 4.81 4.81 0 0 0 1.63-3.57c1.37-1.35 3-2.45 4.34-3.79a11 11 0 0 1 5.63 1.17c.7.22.77-.36.62-.7a2.26 2.26 0 0 0-.75-.82 11.58 11.58 0 0 0-4.65-2.08C56 93 50.34 95.09 44.76 97a4 4 0 0 0-1.49.75 2.66 2.66 0 0 0-.69 2.22c.08.79-.2 2.22.12 2.96Z"/><path class="mdcls-7" d="M53.37 95.51a19 19 0 0 0 3.4-4 6.88 6.88 0 0 1 4.17-3c1.81-.26 3.42.27 5.43.13a1 1 0 0 1-.21 1.09 2.19 2.19 0 0 1-1 .29l-3.85.49c-1.77 1.44-3.7 3-4.53 5.1a2.66 2.66 0 0 1-.5.94 1.5 1.5 0 0 1-1.77.09 3.34 3.34 0 0 1-1.14-1.13Z"/><path class="mdcls-7" d="M52.38 97.47a18.9 18.9 0 0 0 4.76-2.17c1.56-.8 3.37-1.43 5-.91s3 1.69 4.86 2.42a1 1 0 0 1-.65.9 2.42 2.42 0 0 1-1-.16l-3.7-1.2c-2.22.55-4.61 1.11-6.27 2.69a2.65 2.65 0 0 1-.85.64A1.51 1.51 0 0 1 52.9 99a3.36 3.36 0 0 1-.52-1.53Z"/><path class="mdcls-7" d="M51.06 99a19.41 19.41 0 0 0 5.07-1.3 6.82 6.82 0 0 1 5.12 0c1.62.82 2.64 2.19 4.36 3.23a1 1 0 0 1-.8.77 2.13 2.13 0 0 1-1-.34l-3.41-1.8c-2.29.15-4.74.29-6.65 1.55a2.75 2.75 0 0 1-1 .48 1.5 1.5 0 0 1-1.5-.94 3.27 3.27 0 0 1-.19-1.65Z"/><path class="mdcls-9" d="M25.82 90.46a21.56 21.56 0 0 0-10-2.07c-2.58.18-5.64 1.16-7.07 3.49a11.55 11.55 0 0 1 7.52-3c3.25-.06 6.53.93 9.6 1.81.39.12.24-.1-.05-.23Z"/><path class="mdcls-13" d="M63.87 48c-1.15-.29-2.36-.4-3.53-.61s-2.28-.46-3.41-.77c-2.28-.61-4.43-1.6-6.69-2.25-.18 0-.25.18-.12.28a19.57 19.57 0 0 0 6.57 2.85 30.25 30.25 0 0 0 3.52.77 13.55 13.55 0 0 0 3.59.24.26.26 0 0 0 .07-.51Z"/><path class="mdcls-13" d="M66.06 41.35c0-.22-.37-.16-.37 0a6.71 6.71 0 0 1-4.31 6.16c-.46.16-.27.88.2.74a6.53 6.53 0 0 0 4.48-6.9ZM42.39 74c-1.27 1.29-2.3 2.82-3.48 4.21s-2.43 2.73-3.73 4-2.61 2.45-4 3.6c-.71.59-1.43 1.18-2.16 1.75a8.92 8.92 0 0 0-1.92 1.69A6.92 6.92 0 0 0 29.37 88c.73-.5 1.44-1 2.13-1.59a54.55 54.55 0 0 0 4.18-3.71C37 81.38 38.3 80 39.5 78.6a22.31 22.31 0 0 0 3.21-4.41c.09-.19-.15-.41-.32-.19ZM94.93 84c-.18-5-.21-9.89-.13-14.83s.29-9.72.17-14.58a60.59 60.59 0 0 0-2.14-15.91.15.15 0 0 0-.29.07c1.9 9.59 2 19.37 1.79 29.1-.19 10 0 19.89.83 29.82.44 5.56 1.08 11.1 1.87 16.62.06.38.64.22.58-.16A286.67 286.67 0 0 1 94.93 84Z"/><path class="mdcls-7" d="M91 49.86c.59 1-.16 2.48-.73 3.52A10.18 10.18 0 0 1 79 58.49c-1.43.08-3.36.41-4.78.49a1.8 1.8 0 0 1-.8-.08.6.6 0 0 1-.39-.64c.07-.33.46-.46.79-.53l6.9-1.47a48.24 48.24 0 0 0-10.94-9.41 2 2 0 0 1-.71-.62.65.65 0 0 1 .1-.85c.29-.22.69-.05 1 .12l8.39 4.5a14.4 14.4 0 0 1 6.69-3.1 4.41 4.41 0 0 1 2 0A7.59 7.59 0 0 1 91 49.86Z"/><path class="mdcls-7" d="M71.71 43.12c-.37-.17-.85-.35-1.19-.14a.6.6 0 0 0-.11.86 2.52 2.52 0 0 0 .84.62A59.17 59.17 0 0 1 79.62 50l2.56-1.35c-3.18-1.56-7.24-4.01-10.47-5.53ZM75.85 42.7a1.36 1.36 0 0 0-1.18-.14.6.6 0 0 0-.11.86 2.33 2.33 0 0 0 .84.62 59.07 59.07 0 0 1 8.36 5.5l2.57-1.35c-3.23-1.51-7.25-3.97-10.48-5.49Z"/><path class="mdcls-7" d="M80.06 43a1.36 1.36 0 0 0-1.18-.14.6.6 0 0 0-.11.86 2.33 2.33 0 0 0 .84.62A59.07 59.07 0 0 1 88 49.85v-2.49c-3.2-1.51-4.71-2.83-7.94-4.36Z"/><path class="mdcls-7" d="M84.3 51.55c.17 1.67.19 1.8.36 3.47a145.64 145.64 0 0 0 21.56 4.41 43.21 43.21 0 0 0 14-.22 6.77 6.77 0 0 0 5.45-7.41v-.13a6.78 6.78 0 0 0-7.42-5.93c-11.64 1.16-23.76.51-33.95 5.81Z"/><path class="mdcls-9" d="M87.91 52.87a5.62 5.62 0 0 0-3.91-.42 6.92 6.92 0 0 0-1.87.7 3.05 3.05 0 0 0-1.43 1.27.13.13 0 0 0 .16.16 11.79 11.79 0 0 0 1.56-.85 7.4 7.4 0 0 1 1.76-.63 10.52 10.52 0 0 1 3.67 0 .11.11 0 0 0 .06-.23Z"/><path class="mdcls-9" d="M88.84 53.05a8.11 8.11 0 0 0-1.14-.67c-.39-.22-.77-.47-1.14-.73a17 17 0 0 1-2-1.73c-.11-.11-.29.07-.2.19a12.46 12.46 0 0 0 2 1.93c.36.28.74.54 1.13.79a4.48 4.48 0 0 0 1.25.59c.15.05.26-.25.1-.37Z"/><path class="mdcls-13" d="M82.71 115.13c-1.14.24-2.25.68-3.38 1s-2.29.54-3.45.73A37 37 0 0 1 55.17 114a38.25 38.25 0 0 1-6.85-4c-.1-.08-.24.1-.14.18a36 36 0 0 0 27 7.41 37.94 37.94 0 0 0 3.94-.74 15.58 15.58 0 0 0 3.78-1.27c.33-.09.1-.52-.19-.45ZM84.79 117.22a54 54 0 0 1-5.64 3 34.74 34.74 0 0 1-6.06 1.93 36.44 36.44 0 0 1-12.58.52 42.44 42.44 0 0 1-7-1.64c-.07 0-.12.09-.05.12 7.85 3.61 17.52 3.19 25.43 0a25.54 25.54 0 0 0 6.29-3.46c.2-.23-.12-.62-.39-.47ZM43.74 77.43c-1.1.43-2.16 1-3.22 1.54s-2.18 1.08-3.23 1.7c-.11.06 0 .27.09.21 1.1-.44 2.17-1 3.24-1.48s2.22-1 3.26-1.65c.12-.1.06-.4-.14-.32ZM57.17 50.51a26 26 0 0 0-2.78-1.42c-.94-.47-1.85-1-2.76-1.49S49.84 46.53 49 46s-1.71-1.23-2.62-1.7c-.1 0-.21.08-.12.16a14.36 14.36 0 0 0 2.41 1.91c.89.61 1.79 1.2 2.72 1.75s1.8 1.05 2.73 1.54A13.85 13.85 0 0 0 57 50.92a.22.22 0 0 0 .17-.41ZM97.24 114.05c-2.1 1.77-4.07 3.65-6.27 5.29a51.86 51.86 0 0 1-6.66 4.21 52.74 52.74 0 0 1-15.12 5.3c-1.49.28-3 .51-4.5.67s-3.11.17-4.65.33a.22.22 0 0 0 0 .43 25 25 0 0 0 4.24-.06c1.31-.1 2.62-.23 3.91-.44a51.67 51.67 0 0 0 8-2 52.66 52.66 0 0 0 14.43-7.38 33.16 33.16 0 0 0 6.79-6.16.16.16 0 1 0-.17-.19Z"/></g></g></g></svg>