<svg xmlns="http://www.w3.org/2000/svg" viewBox="0 0 264.63 257.75"><defs><style>.cls-1{isolation:isolate;}.cls-2{fill:#5f3324;opacity:0.17;}.cls-3{fill:#5e5a5a;}.cls-4{fill:#272525;}.cls-5{fill:#e4b689;}.cls-6{fill:#e2d9d2;}.cls-7{fill:#dacdc5;}.cls-8{fill:#3e2723;}.cls-9{fill:#fdd835;}.cls-10{fill:#e08236;}.cls-11{fill:#2e7d32;}.cls-12{fill:#f9a825;}.cls-13{fill:#dadada;fill-rule:evenodd;mix-blend-mode:multiply;}</style></defs><g class="cls-1"><g id="Layer_2" data-name="Layer 2"><g id="OBJECTS"><path class="cls-2" d="M123.42,235.78c-39.24,0-72.34,3.33-82.85,7.89-2.23-3-10.31-5.18-20-5.18-11.38,0-20.6,3.06-20.6,6.83s9.22,6.83,20.6,6.83c7.64,0,14.3-1.38,17.85-3.43,7.25,5.13,42.52,9,85,9,47.7,0,86.36-4.92,86.36-11S171.12,235.78,123.42,235.78Z"/><path class="cls-3" d="M113.25,56a17.73,17.73,0,0,1-2.06-9.83,13.93,13.93,0,0,1,2.25-7.79c1.64-2.2,4.62-3.58,7.21-2.67,1.51.54,3,1.79,4.48,1.32a4.44,4.44,0,0,0,2.25-2.39,23.42,23.42,0,0,1,4.69-6.5,8.55,8.55,0,0,1,7.42-2.25c2.61.63,4.74,3.37,4.1,6a19.58,19.58,0,0,1-1.62,3.4c-.51,1.15-.66,2.65.23,3.54,1.05,1.05,2.8.62,4.29.68a5.79,5.79,0,0,1,5.33,4.69c.49,3.09-1.67,5.89-3.55,8.39s-3.69,5.72-2.46,8.59a9.93,9.93,0,0,0-1.8-.12L142.1,61c-1.23-.07-2.47-.13-3.71-.18-2.51-.09-5-.16-7.53-.18s-5,0-7.53,0c-.85,0-1.67.31-2.51.29a7.65,7.65,0,0,1-2.78-.66A10.46,10.46,0,0,1,113.25,56Z"/><path class="cls-4" d="M114.21,56.29a16.88,16.88,0,0,1-2-9.31,13.14,13.14,0,0,1,2.14-7.39c1.55-2.09,4.38-3.39,6.83-2.52,1.43.5,2.8,1.69,4.25,1.24a4.18,4.18,0,0,0,2.13-2.26A22.37,22.37,0,0,1,132,29.88a8.1,8.1,0,0,1,7-2.12c2.48.59,4.49,3.19,3.89,5.67a19.28,19.28,0,0,1-1.54,3.21c-.48,1.09-.63,2.52.22,3.36,1,1,2.65.59,4.06.65a5.48,5.48,0,0,1,5.06,4.44c.46,2.92-1.59,5.58-3.37,7.95s-3.49,5.42-2.33,8.14a8.24,8.24,0,0,0-1.71-.11l-1.8-.1c-1.17-.07-2.35-.12-3.52-.17-2.38-.09-4.75-.15-7.13-.17s-4.76,0-7.14,0c-.8,0-1.58.29-2.37.27a7.24,7.24,0,0,1-2.64-.62A9.87,9.87,0,0,1,114.21,56.29Z"/><path class="cls-5" d="M105.17,134.62,143,119.2l5.7,31.05L125,149.13a24.3,24.3,0,0,0-13.44,3.35c-1.73,1-3.83,2.18-6.25,3.42C100.67,148.76,101.88,141.58,105.17,134.62Z"/><path class="cls-6" d="M177.36,149.07q-14,.77-28,2.31c-6.13-9.67-7.49-20.88-6.37-32.18a434.63,434.63,0,0,1,67.9-17.66l.69,8.46A36.22,36.22,0,0,1,177.36,149.07Z"/><path class="cls-7" d="M149.34,151.38q14-1.56,28-2.31A36.22,36.22,0,0,0,211.56,110l-.69-8.46c-4.94.86-9.86,1.83-14.76,2.87-16.62,10.65-35.62,18.29-53.27,26.87A44,44,0,0,0,149.34,151.38Z"/><path class="cls-8" d="M41.08,163.18A43,43,0,0,1,24.75,152.5a2.43,2.43,0,0,0-4.13,2.05c.21,1.43.48,2.83.72,4.1.65,3.45,5.94,8.3,9.28,9.4-1,1.35,2.7,5.71,4.37,5.84,2.41.19,3.5-.95,5.32-2.65a6.61,6.61,0,0,0,2-3.27C42.74,166.24,42.72,163.74,41.08,163.18Z"/><path class="cls-9" d="M105.18,134.62l-12,5.07-2.29,1L39.25,162.61a4.72,4.72,0,0,0,.87,6.81L41,170a121.91,121.91,0,0,0,50.2-7.92l1.47-.56a135.1,135.1,0,0,0,12.64-5.66C100.67,148.76,101.88,141.57,105.18,134.62Z"/><path class="cls-6" d="M93.23,139.69l-2.29,1A33.46,33.46,0,0,0,90.17,159a29.68,29.68,0,0,0,1,3.12l1.47-.56a32,32,0,0,1-.84-3.09,32.94,32.94,0,0,1,1.44-18.78Z"/><path class="cls-10" d="M117,148.21l5.12.19c3.52.13,7.07.17,10.59.47a.41.41,0,0,1,0,.81c-3.53.06-7.07-.13-10.6-.23l-5.12-.15c-1.82-.06-3.67,0-5.47-.26a.47.47,0,0,1,0-.94A52.62,52.62,0,0,1,117,148.21Z"/><path class="cls-8" d="M119.33,233.86a39.21,39.21,0,0,1-15.41,8.95,2.22,2.22,0,0,0,0,4.21c1.25.42,2.51.78,3.64,1.1,3.09.88,9.22-1.44,11.48-3.72.7,1.36,5.77.13,6.56-1.17,1.14-1.9.66-3.25,0-5.44a6,6,0,0,0-1.86-2.95C122.51,233.76,120.47,232.76,119.33,233.86Z"/><path class="cls-9" d="M138.25,160.74c-.82,2.58-1.55,5.18-2.24,7.77l-.6,2.32-.18.73c-1.8,7.14-13.33,52.31-16.25,64.57,0,.07,1.73,5.32,5.46,3,15.19-15.2,25.91-35.11,31-56.17.19-.78.36-1.57.54-2.35.63-2.86,1.15-5.75,1.58-8.63C150,171.29,142.84,166.83,138.25,160.74Z"/><path class="cls-5" d="M155.41,132.69q3.28-2.62,6.62-5.17c2.26,10.13,6.63,19.47,14.71,26.11q-9.21,4.2-18.19,8.87c-.19,3.15-.54,6.31-1,9.45-7.6-.66-14.71-5.12-19.3-11.22C141.64,150.07,146.53,139.79,155.41,132.69Z"/><path class="cls-6" d="M206.89,141.15q-15.28,5.73-30.15,12.48c-8.08-6.64-12.45-16-14.71-26.11a396.54,396.54,0,0,1,53.89-34.7l5.83,13.83A26,26,0,0,1,206.89,141.15Z"/><path class="cls-7" d="M221.75,106.65l-5.83-13.83q-13.56,7.25-26.52,15.55c7,3.9,14.36,8.12,23.08,8.12a54.29,54.29,0,0,1-11.81,27c2.07-.8,4.14-1.6,6.22-2.38A26,26,0,0,0,221.75,106.65Z"/><path class="cls-10" d="M156.59,163.37c1-.71,2-1.38,3.1-2a29,29,0,0,1,6.48-2.85s0,0,0,0c-2.14,1.1-4.26,2.27-6.29,3.55q-1.47.91-2.85,1.95a15.65,15.65,0,0,1-2.76,2c-.26.12-.41-.22-.29-.41A9.79,9.79,0,0,1,156.59,163.37Z"/><path class="cls-10" d="M149.39,155.3c.3-.23.59-.48.9-.71l1.72-1.25c.57-.41,1.14-.84,1.72-1.24.31-.22.62-.44.94-.65a3.48,3.48,0,0,1,.93-.54.34.34,0,0,1,.37.53,4.62,4.62,0,0,1-.79.74l-.9.71c-.56.44-1.13.86-1.69,1.29l-1.7,1.29c-.3.23-.62.43-.94.65a4.38,4.38,0,0,1-.93.55.4.4,0,0,1-.44-.63A4.08,4.08,0,0,1,149.39,155.3Z"/><path class="cls-6" d="M136,168.51l-.6,2.32-.18.73a32.48,32.48,0,0,0,11,9.23,20.56,20.56,0,0,0,9.18,2.14c.19-.78.36-1.57.54-2.35a18.11,18.11,0,0,1-3.87-.36,23.87,23.87,0,0,1-11.45-6.39A44.33,44.33,0,0,1,136,168.51Z"/><path class="cls-10" d="M134.8,54.75,154,57.1a31.64,31.64,0,0,1,7.17,17.44c-6.62-2.34-13.09-4.44-20.06-5.31Z"/><path class="cls-5" d="M119.34,58.94c3,5.25,6.53,10.57,11.24,14.28a7.56,7.56,0,0,0,10.33-1,19.07,19.07,0,0,0,3.08-4.8,11.94,11.94,0,0,0-.2-10.74c1.67.67,3.46-1.77,3.47-3.27A3.73,3.73,0,0,0,144.81,50c-1.42-.5-2.4,1-3.34,2.21-2.42-1-3.89-2.31-6-2.78a18.85,18.85,0,0,0-1.8-3,3.06,3.06,0,0,0-3.33-1.21A27.31,27.31,0,0,0,118,53.27a2.5,2.5,0,0,0-.31,2.86C118.24,57.14,118.92,58.21,119.34,58.94Z"/><path class="cls-5" d="M146.84,54.9a3.33,3.33,0,0,0,.42-1.45A3.73,3.73,0,0,0,144.81,50a1.59,1.59,0,0,0-1.18,0A53.72,53.72,0,0,1,146.84,54.9Z"/><path class="cls-4" d="M143.79,56.72a19.13,19.13,0,0,0-2.32-4.52c-.3-.12-.87-.38-1.15-.52A34.28,34.28,0,0,1,143,61.21a11.18,11.18,0,0,1-.39,5.88A11.87,11.87,0,0,1,140.14,71a12.26,12.26,0,0,1-7.27,3.45h0c2.8.93,5.89,1.2,7.93-1.13a29,29,0,0,0,4-5.73A12.27,12.27,0,0,0,143.79,56.72Z"/><path class="cls-10" d="M142.84,52.22a2.27,2.27,0,0,1,.7-1,1.43,1.43,0,0,1,1.13-.41.18.18,0,0,1,.08.29,3.74,3.74,0,0,1-.42.27,2.57,2.57,0,0,0-.37.28,1.93,1.93,0,0,0-.48.75,1.9,1.9,0,0,0-.07.85,2.8,2.8,0,0,0,.34.85.32.32,0,0,1-.51.38A2.22,2.22,0,0,1,142.84,52.22Z"/><path class="cls-9" d="M220,99.08c-4.57-13.71-8.73-25.71-20.95-35.18-11-8.55-25.42-14.44-39.32-13.07A84.55,84.55,0,0,0,138.4,86c19.55-.66,31,8.49,47.95,18.33,6.47,3.76,21.12,3.37,28.61,3.44,4,0,7.31-2.05,5.83-6.45Z"/><path class="cls-9" d="M166.51,87.39a44.58,44.58,0,0,0-17.7-9c-4.92-1.21-10.17,1.1-13.79,4.65s-5.92,8.19-8.16,12.74c-3.74,2.49-7.79,5-11.88,7.62a25.9,25.9,0,0,0,5,14.2,183,183,0,0,0,46.66-24.25,4.24,4.24,0,0,0,2-2.35C168.87,89.58,167.65,88.31,166.51,87.39Z"/><path class="cls-5" d="M99.29,113.42c-.8,3.45.42,7.83,3.65,9.28q8.63-2.15,17-5.08a25.9,25.9,0,0,1-5-14.2C109.62,106.78,104.19,110.15,99.29,113.42Z"/><path class="cls-5" d="M61.62,120.55c0-2.13,0-2.29,0-4.42,8.25-3.43,37.33-9.15,43.19-8.65,4.47.38,9,2.76,8.94,7.24v.17c-.07,4.69-4,7.53-8.57,8.47C96.6,125.11,75.19,125.88,61.62,120.55Z"/><path class="cls-5" d="M67.55,121.71a16.85,16.85,0,0,1-9.26-.16,9.49,9.49,0,0,1-3.83-2,5.24,5.24,0,0,1-1.76-3.87c-1.49-1.45-3.2-2.64-4.69-4.1a11.82,11.82,0,0,0-6.1,1.27c-.76.24-.84-.39-.67-.76a2.28,2.28,0,0,1,.81-.88,12.5,12.5,0,0,1,5-2.26c6,2.06,12.19,4.32,18.23,6.37a4.39,4.39,0,0,1,1.61.82,2.9,2.9,0,0,1,.75,2.4C67.59,119.36,67.89,120.91,67.55,121.71Z"/><path class="cls-5" d="M56,113.67a20.62,20.62,0,0,1-3.68-4.31c-1.15-1.51-2.64-3-4.51-3.22s-3.7.3-5.88.14a1.05,1.05,0,0,0,.23,1.18,2.39,2.39,0,0,0,1.09.32l4.16.52c1.93,1.57,4,3.22,4.91,5.52a2.9,2.9,0,0,0,.54,1,1.62,1.62,0,0,0,1.91.09A3.57,3.57,0,0,0,56,113.67Z"/><path class="cls-5" d="M57.08,115.79a20.3,20.3,0,0,1-5.16-2.34c-1.69-.87-3.64-1.55-5.46-1s-3.22,1.84-5.26,2.62a1.05,1.05,0,0,0,.71,1,2.44,2.44,0,0,0,1.12-.17l4-1.3c2.41.6,5,1.21,6.79,2.91a2.75,2.75,0,0,0,.93.7,1.62,1.62,0,0,0,1.77-.73A3.62,3.62,0,0,0,57.08,115.79Z"/><path class="cls-5" d="M58.51,117.49A20.09,20.09,0,0,1,53,116.08c-1.81-.56-3.86-.88-5.55,0s-2.85,2.37-4.72,3.5a1,1,0,0,0,.87.83,2.35,2.35,0,0,0,1.07-.36l3.71-2c2.47.17,5.12.32,7.19,1.68a2.81,2.81,0,0,0,1,.53,1.63,1.63,0,0,0,1.62-1A3.53,3.53,0,0,0,58.51,117.49Z"/><path class="cls-9" d="M151.34,70a44.67,44.67,0,0,1,7-18.56c2.83-4.2,8.26-6,13.33-5.85s9.89,2.06,14.61,3.91c4.44-.67,9.16-1.51,13.91-2.37A25.82,25.82,0,0,1,206.1,61a182.89,182.89,0,0,1-50.81,13.51,4.28,4.28,0,0,1-3-.42C151.07,73.17,151.11,71.41,151.34,70Z"/><path class="cls-5" d="M218.55,43.92c2.92,2,5,6.06,3.55,9.31q-7.8,4.23-16,7.72a25.82,25.82,0,0,0-5.88-13.86C206.45,46,212.73,44.8,218.55,43.92Z"/><path class="cls-5" d="M251.19,23.81l-3-3.27c-8.41,3-33.75,18.4-37.74,22.71-3.05,3.29-4.79,8.1-1.73,11.38l.11.12c3.21,3.42,8,2.89,12,.48C228.42,50.74,244.76,36.89,251.19,23.81Z"/><path class="cls-5" d="M247.6,28.66a17,17,0,0,0,6.74-6.36,9.61,9.61,0,0,0,1.44-4.09,5.18,5.18,0,0,0-1.31-4c.13-2.08.59-4.12.71-6.2a11.87,11.87,0,0,1,5.36-3.17c.73-.34.36-.85,0-1a2.31,2.31,0,0,0-1.2-.11,12.55,12.55,0,0,0-5.24,1.73c-3.08,5.59-6.1,11.4-9.18,17a4.35,4.35,0,0,0-.64,1.69,2.86,2.86,0,0,0,1.06,2.28C246,27,246.8,28.3,247.6,28.66Z"/><path class="cls-5" d="M250.72,14.94a20.31,20.31,0,0,0-.19-5.66c-.16-1.89,0-4,1.17-5.42s2.93-2.28,4.43-3.86a1,1,0,0,1,.63,1,2.27,2.27,0,0,1-.59,1l-2.72,3.2c-.37,2.45-.8,5.07.09,7.38a2.82,2.82,0,0,1,.29,1.12,1.62,1.62,0,0,1-1.35,1.36A3.52,3.52,0,0,1,250.72,14.94Z"/><path class="cls-5" d="M251.35,17.23A20.28,20.28,0,0,0,253.58,12c.66-1.78,1.66-3.59,3.37-4.4S260.57,6.8,262.6,6a1.05,1.05,0,0,1,.14,1.19,2.47,2.47,0,0,1-.95.63L258,9.56c-1.37,2.06-2.87,4.26-3,6.73a2.71,2.71,0,0,1-.22,1.13,1.6,1.6,0,0,1-1.79.66A3.54,3.54,0,0,1,251.35,17.23Z"/><path class="cls-5" d="M251.44,19.45a20.55,20.55,0,0,0,3.11-4.74c.95-1.64,2.25-3.25,4.08-3.75s3.71-.17,5.84-.6a1.05,1.05,0,0,1-.07,1.2,2.45,2.45,0,0,1-1,.46l-4.07,1c-1.71,1.79-3.58,3.69-4.19,6.09a2.66,2.66,0,0,1-.4,1.08,1.61,1.61,0,0,1-1.89.33A3.49,3.49,0,0,1,251.44,19.45Z"/><path class="cls-11" d="M208.23,89.42c-1.66-2.17-3.46-4.25-5.2-6.35l-5.24-6.34L187.29,64c-2-2.43-4-4.86-6-7.25a.91.91,0,0,0-1.42.18c-1.23,2.62-2.46,5.23-3.71,7.83s-2.63,5.09-3.63,7.74c-.25.67.76,1,1.11.47,1.49-2.39,2.64-5,3.91-7.55,1.07-2.14,2.17-4.27,3.27-6.39,3.16,4,6.42,7.83,9.64,11.73l10.39,12.59c1.5,1.82,5.68,7,6.14,7.31C207.7,91.11,208.83,90.21,208.23,89.42Z"/><path class="cls-12" d="M176.65,84.24a27.05,27.05,0,0,0-3.28,2.88c-1.11,1-2.25,2-3.4,3q-3.42,2.86-7.06,5.44a117.29,117.29,0,0,1-15.29,9.12c-1.51.75-3.05,1.47-4.6,2.17a17.46,17.46,0,0,0-4.29,2.22s0,0,0,0a12,12,0,0,0,4.06-1.25c1.35-.58,2.69-1.18,4-1.81,2.75-1.32,5.45-2.73,8.07-4.28a116.36,116.36,0,0,0,14.78-10.32q1.94-1.58,3.78-3.23A21.16,21.16,0,0,0,177,84.63.29.29,0,0,0,176.65,84.24Z"/><path class="cls-12" d="M179.62,89.69a16.3,16.3,0,0,0-2.92.61l-3.19.78-3.06.79a24.58,24.58,0,0,0-3.14.93c-.13.06-.14.29,0,.28a23.82,23.82,0,0,0,3.14-.6l3.09-.71,3.07-.74a18.53,18.53,0,0,0,3.1-.87C180,90.06,179.86,89.68,179.62,89.69Z"/><path class="cls-12" d="M131.14,87.78a9.06,9.06,0,0,0-1.54,2c-.48.76-.92,1.54-1.33,2.35a29,29,0,0,0-2,5,25.37,25.37,0,0,0-.89,10.5c0,.18.31.13.31,0A33.88,33.88,0,0,1,127,97.35a29.65,29.65,0,0,1,1.9-4.84c.37-.74.77-1.46,1.2-2.17a20.86,20.86,0,0,0,1.43-2.29A.23.23,0,0,0,131.14,87.78Z"/><path class="cls-12" d="M213.48,81.54c-.79-1.6-1.67-3.16-2.61-4.68a61.36,61.36,0,0,0-6.3-8.4,59.85,59.85,0,0,0-16.56-13,45.51,45.51,0,0,0-11-4.25.07.07,0,0,0,0,.13A70.05,70.05,0,0,1,195.3,61,62,62,0,0,1,209.6,76.2c1.05,1.61,2,3.26,2.92,5s1.59,3.6,2.62,5.24a.14.14,0,0,0,.26-.11A19.16,19.16,0,0,0,213.48,81.54Z"/><path class="cls-12" d="M213.05,102.36c-2.29,0-4.58.33-6.87.39a54.84,54.84,0,0,1-6.9-.28,56.42,56.42,0,0,1-13.63-3.18c-2.51-.92-4.94-2-7.36-3.15-.08,0-.13.07-.07.11a42.48,42.48,0,0,0,12.88,5.69,53.56,53.56,0,0,0,14,1.86,27.32,27.32,0,0,0,8-.86A.3.3,0,0,0,213.05,102.36Z"/><path class="cls-6" d="M42.5,144.94A18.79,18.79,0,0,0,37,133.28a19.08,19.08,0,0,0-3.5-2.76l0,0a19.12,19.12,0,0,0-3.86-1.8,5,5,0,0,1,.64.57h0a4.5,4.5,0,0,0-.65-.57,18.82,18.82,0,0,0-6.48-.95,19.13,19.13,0,0,0-4.58.71.84.84,0,0,0-.13.27,1.59,1.59,0,0,1,.12-.27,18.94,18.94,0,0,0-11.09,8.6c0,.12,0,.24.06.36h0c0-.12,0-.25-.06-.38l-.24.43h0a18.62,18.62,0,0,0-2.34,8.14c.2-.32.19-.32,0,0,0,.22,0,.44,0,.66l0,0,0,0c0,.29,0,.59,0,.88a18.8,18.8,0,0,0,4.83,12h0l.43.47c.17.17.34.35.52.51a19.06,19.06,0,0,0,7.21,4.35l.48.14a18.75,18.75,0,0,0,14.17-1.4c.15-.07.29-.16.44-.24l.39-.22a19.15,19.15,0,0,0,6.81-7,18.76,18.76,0,0,0,2.4-9.78C42.55,145.66,42.53,145.3,42.5,144.94Z"/><path class="cls-8" d="M42.49,145A18.73,18.73,0,0,0,37,133.28a18.35,18.35,0,0,0-3.5-2.76s0,0,0,0l-.06,0c-.13-.06-.24-.14-.37-.19a13.06,13.06,0,0,0-2.79-1A2.87,2.87,0,0,0,30,129c-.09-.09-.2-.18-.32-.28h0a18.63,18.63,0,0,0-6.49-.94,19,19,0,0,0-4.57.7s0,.08-.07.13a3.06,3.06,0,0,0-.23,1.2l-.49.23c-.28.14-.56.31-.85.46a16.36,16.36,0,0,0-2.1,1.46,14.81,14.81,0,0,0-2.72,3,11.85,11.85,0,0,0-2.06.68,6.36,6.36,0,0,0-2.52,1.81c0-.13,0-.25-.06-.38l-.24.43h0c0,.09,0,.17,0,.26l-.06.1A10.08,10.08,0,0,0,6,140.62a11,11,0,0,0-.43,4.14,4.42,4.42,0,0,0-.48.62l-.09.13s0,.07-.06.11c0,.22,0,.44,0,.66,0,0,0-.07.06-.11a5.9,5.9,0,0,1,.7-1.06c.15.15.31.31.47.44A7.83,7.83,0,0,0,8.88,147a21.75,21.75,0,0,0,1,3.94c.19.53.41,1.06.65,1.58a24.46,24.46,0,0,0,1.26,2.37,11.11,11.11,0,0,0-.72,4.56l-.33,0a4.38,4.38,0,0,1-1.07-.29c.14.17.29.32.43.48a4.94,4.94,0,0,0,.65.12,2.63,2.63,0,0,0,.41,0,3.93,3.93,0,0,0,.68.92h0a12.12,12.12,0,0,0,5.72,3.15,2.53,2.53,0,0,0,.26.63l.48.16a2.66,2.66,0,0,1-.4-.7s0-.05,0-.08h0a7.79,7.79,0,0,0,.86-.1,7.92,7.92,0,0,0,3.27-1.51l.31-.26a3,3,0,0,0,.32-.3l.5.16a11.13,11.13,0,0,0,3.12.27l1-.07a18,18,0,0,0,3.58-.73,5.64,5.64,0,0,0,1.8,1.54c0,.13-.11.25-.17.37A3.75,3.75,0,0,0,33,163a.49.49,0,0,1,.06-.13l.32-.09a19,19,0,0,0,6.81-7,5.45,5.45,0,0,0,.16-2.11c.25-.41.47-.84.68-1.26a13.28,13.28,0,0,0,.94-2.7,14.69,14.69,0,0,0,.35-4.49A1.27,1.27,0,0,0,42.49,145ZM26.36,130.62a8.09,8.09,0,0,1,3.6-1.11,14.28,14.28,0,0,1,3.12,1.11c.37.19.73.4,1.09.62s.74.49,1.1.77a17.8,17.8,0,0,1,2.1,1.94c.28.3.58.63.86,1a6.86,6.86,0,0,1,.79,4.35c0,.11-.05.2-.07.29-1.13.36-2.27.69-3.42,1l-1.79.49-.35-.35a16.26,16.26,0,0,0-6-3.63,27.48,27.48,0,0,0-.62-3.42c-.11-.42-.22-.81-.35-1.2a11.36,11.36,0,0,0-.57-1.42A2.22,2.22,0,0,1,26.36,130.62Zm-11.31,1.57a16.85,16.85,0,0,1,1.9-1.36l.85-.47.94-.43a18.76,18.76,0,0,1,2.37,0,10.07,10.07,0,0,1,4.43,1.19,15.13,15.13,0,0,1,.91,2.62l0,0a26.68,26.68,0,0,1,.61,3.37l-.51.29a24.51,24.51,0,0,0-5.11,4.14l-.19.2c-1-.27-2.08-.48-3.14-.65l-.65-.1-.22,0c-1.2-.17-2.4-.28-3.62-.35a14,14,0,0,1-1.25-5.52A13.54,13.54,0,0,1,15.05,132.19Zm-4.5,19.55c-.13-.29-.24-.57-.34-.86a22.65,22.65,0,0,1-1-3.74,14,14,0,0,1,1.13-2.44,12.5,12.5,0,0,1,3.23-3.78c1.24.07,2.48.19,3.7.36l.17,0,.69.11c1,.17,2,.38,2.95.61.14.39.29.78.43,1.15.75,2,1.57,4,2.43,6a34.88,34.88,0,0,1-2.1,3.33l-.05.07c-.75,1.08-1.57,2.15-2.41,3.21l-.81,0-.87,0A17.56,17.56,0,0,1,12,154.63,19.64,19.64,0,0,1,10.55,151.74ZM33.9,158a10.64,10.64,0,0,1-2.56,2.9,16.42,16.42,0,0,1-4,.91l-1,.07A12.74,12.74,0,0,1,24,161.7a5.39,5.39,0,0,1-1.2-.3c-.24-.3-.49-.6-.72-.91A14.7,14.7,0,0,1,19.64,156c.76-.95,1.48-1.9,2.17-2.86l.29-.4c.75-1.07,1.43-2.15,2.06-3.25.91,0,1.84.06,2.77,0a44,44,0,0,0,4.88-.37,17.7,17.7,0,0,1,1.9,2.56c.06.08.11.17.17.26a18.49,18.49,0,0,1,1.27,2.56,4.69,4.69,0,0,0,.18.45A13.13,13.13,0,0,1,33.9,158Zm7.73-8.29a13.24,13.24,0,0,1-.66,2.05,14.79,14.79,0,0,1-.92,1.82A9.17,9.17,0,0,1,36,154.91l-.32,0a6.15,6.15,0,0,0-.28-.71,17.48,17.48,0,0,0-1.22-2.45c-.14-.24-.29-.47-.44-.69A17.12,17.12,0,0,0,32.12,149a22.15,22.15,0,0,0,1.38-4.4,20.33,20.33,0,0,0,.39-3.25c.56-.15,1.1-.29,1.65-.46,1.16-.32,2.32-.65,3.44-1,.06,0,.08.06.14.08a6.49,6.49,0,0,1,1.55,1.84,12.23,12.23,0,0,1,1.27,3A14.94,14.94,0,0,1,41.63,149.66Z"/><path class="cls-13" d="M42.56,146a18.76,18.76,0,0,1-2.4,9.78,19.15,19.15,0,0,1-6.81,7L33,163c-.15.08-.29.17-.44.24a18.75,18.75,0,0,1-14.17,1.4l-.48-.14a19.06,19.06,0,0,1-7.21-4.35c.4.2.8.39,1.22.56h0A20.09,20.09,0,0,0,22.38,162l.83-.14.74-.16a19.82,19.82,0,0,0,11.2-7.2l.21-.3a19.68,19.68,0,0,0,3.9-12.39c0-.62-.07-1.24-.15-1.84q0-.34-.09-.69a20.05,20.05,0,0,0-1.65-5.35l-.33-.66a18.79,18.79,0,0,1,5.46,11.66C42.53,145.3,42.55,145.66,42.56,146Z"/></g></g></g></svg>