<svg version="1.1" id="Layer_1" xmlns="http://www.w3.org/2000/svg" x="0" y="0" viewBox="0 0 264.6 257.8" style="enable-background:new 0 0 264.6 257.8" xml:space="preserve"><style>.st1{fill:#272525}.st2{fill:#e4b689}.st3{fill:#e2d9d2}.st4{fill:#dacdc5}.st5{fill:#3e2723}.st6{fill:#fdd835}.st7{fill:#e08236}.st9{fill:#f9a825}</style><g id="Layer_2_00000044897077585772549810000000132329298742328505_"><g id="OBJECTS"><path d="M113.2 56c-1.6-3-2.3-6.4-2.1-9.8 0-2.8.7-5.5 2.2-7.8 1.6-2.2 4.6-3.6 7.2-2.7 1.5.5 3 1.8 4.5 1.3 1-.5 1.8-1.3 2.2-2.4 1.2-2.4 2.8-4.6 4.7-6.5 2-1.9 4.7-2.7 7.4-2.2 2.6.6 4.7 3.4 4.1 6-.4 1.2-1 2.3-1.6 3.4-.5 1.2-.7 2.7.2 3.5 1.1 1 2.8.6 4.3.7 2.6.2 4.8 2.1 5.3 4.7.5 3.1-1.7 5.9-3.6 8.4s-3.7 5.7-2.5 8.6c-.6-.1-1.2-.1-1.8-.1l-1.9-.1c-1.2-.1-2.5-.1-3.7-.2-2.5-.1-5-.2-7.5-.2h-7.5c-.8 0-1.7.3-2.5.3-1 0-1.9-.3-2.8-.7-1.8-.8-3.4-2.3-4.6-4.2z" style="fill:#5e5a5a"/><path class="st1" d="M114.2 56.3c-1.5-2.8-2.2-6.1-2-9.3 0-2.6.7-5.2 2.1-7.4 1.6-2.1 4.4-3.4 6.8-2.5 1.4.5 2.8 1.7 4.2 1.2 1-.5 1.7-1.3 2.1-2.3 1.1-2.3 2.6-4.4 4.4-6.2 1.9-1.8 4.5-2.6 7-2.1 2.5.6 4.5 3.2 3.9 5.7-.4 1.1-.9 2.2-1.5 3.2-.5 1.1-.6 2.5.2 3.4 1 1 2.6.6 4.1.7 2.5.1 4.6 2 5.1 4.4.5 2.9-1.6 5.6-3.4 8s-3.5 5.4-2.3 8.1c-.6-.1-1.1-.1-1.7-.1l-1.8-.1c-1.2-.1-2.4-.1-3.5-.2-2.4-.1-4.8-.2-7.1-.2h-7.1c-.8 0-1.6.3-2.4.3-.9 0-1.8-.2-2.6-.6-1.9-.9-3.4-2.2-4.5-4z"/><path class="st2" d="m105.2 134.6 37.8-15.4 5.7 31.1-23.7-1.1c-4.7-.2-9.4 1-13.4 3.4-1.7 1-3.8 2.2-6.2 3.4-4.7-7.2-3.5-14.4-.2-21.4z"/><path class="st3" d="M177.4 149.1c-9.3.5-18.7 1.3-28 2.3-6.1-9.7-7.5-20.9-6.4-32.2 22.1-7.7 44.8-13.6 67.9-17.7l.7 8.5c1.6 19.9-13.3 37.4-33.2 39-.4 0-.7.1-1 .1z"/><path class="st4" d="M149.3 151.4c9.3-1 18.7-1.8 28-2.3 20-1 35.3-18.1 34.3-38.1 0-.3 0-.7-.1-1l-.7-8.5c-4.9.9-9.9 1.8-14.8 2.9-16.6 10.7-35.6 18.3-53.3 26.9.6 7.1 2.9 14 6.6 20.1z"/><path class="st5" d="M41.1 163.2c-6.2-2.3-11.8-5.9-16.3-10.7-.9-1-2.5-1-3.4 0-.5.5-.8 1.3-.7 2.1.2 1.4.5 2.8.7 4.1.6 3.4 5.9 8.3 9.3 9.4-1 1.4 2.7 5.7 4.4 5.8 2.4.2 3.5-.9 5.3-2.6 1-.9 1.7-2 2-3.3.3-1.8.3-4.3-1.3-4.8z"/><path class="st6" d="m105.2 134.6-12 5.1-2.3 1-51.6 21.9c-1.7 2-1.4 5 .7 6.6l.2.2.8.6c17.1.9 34.2-1.8 50.2-7.9l1.5-.6c4.3-1.7 8.5-3.6 12.6-5.7-4.6-7-3.4-14.2-.1-21.2z"/><path class="st3" d="m93.2 139.7-2.3 1c-2 5.9-2.2 12.3-.8 18.3.3 1.1.6 2.1 1 3.1l1.5-.6c-.3-1-.6-2-.8-3.1-1.4-6.2-.9-12.7 1.4-18.7z"/><path class="st7" d="m117 148.2 5.1.2c3.5.1 7.1.2 10.6.5.2 0 .4.2.3.5 0 .2-.2.3-.3.3-3.5.1-7.1-.1-10.6-.2l-5.1-.1c-1.8-.1-3.7 0-5.5-.3-.3 0-.5-.2-.5-.5s.2-.5.5-.5c1.8-.1 3.7 0 5.5.1z"/><path class="st5" d="M119.3 233.9c-4.4 4.1-9.7 7.2-15.4 8.9-1.2.4-1.8 1.6-1.4 2.8.2.7.7 1.2 1.4 1.4 1.2.4 2.5.8 3.6 1.1 3.1.9 9.2-1.4 11.5-3.7.7 1.4 5.8.1 6.6-1.2 1.1-1.9.7-3.2 0-5.4-.3-1.1-1-2.2-1.9-2.9-1.2-1.1-3.2-2.1-4.4-1z"/><path class="st6" d="M138.2 160.7c-.8 2.6-1.6 5.2-2.2 7.8l-.6 2.3-.2.7c-1.8 7.1-13.3 52.3-16.2 64.6 0 .1 1.7 5.3 5.5 3 15.2-15.2 25.9-35.1 31-56.2.2-.8.4-1.6.5-2.4.6-2.9 1.1-5.8 1.6-8.6-7.6-.6-14.8-5.1-19.4-11.2z"/><path class="st2" d="M155.4 132.7c2.2-1.7 4.4-3.5 6.6-5.2 2.3 10.1 6.6 19.5 14.7 26.1-6.1 2.8-12.2 5.8-18.2 8.9-.2 3.1-.5 6.3-1 9.4-7.6-.7-14.7-5.1-19.3-11.2 3.4-10.6 8.3-20.9 17.2-28z"/><path class="st3" d="M206.9 141.1c-10.2 3.8-20.2 8-30.1 12.5-8.1-6.6-12.4-16-14.7-26.1 17-13 35-24.6 53.9-34.7l5.8 13.8c5.6 13.2-.6 28.5-13.8 34.1-.4.2-.8.3-1.1.4z"/><path class="st4" d="M221.8 106.7 216 92.9c-9 4.8-17.9 10-26.5 15.6 7 3.9 14.4 8.1 23.1 8.1-1.4 9.9-5.5 19.3-11.8 27 2.1-.8 4.1-1.6 6.2-2.4 13.5-5 20.3-20 15.3-33.5-.3-.4-.4-.7-.5-1z"/><path class="st7" d="M156.6 163.4c1-.7 2-1.4 3.1-2 2-1.2 4.2-2.2 6.5-2.9-2.1 1.1-4.3 2.3-6.3 3.6-1 .6-1.9 1.3-2.9 1.9-.8.8-1.8 1.4-2.8 2-.3.1-.4-.2-.3-.4.8-.9 1.7-1.6 2.7-2.2zM149.4 155.3c.3-.2.6-.5.9-.7l1.7-1.2c.6-.4 1.1-.8 1.7-1.2l.9-.6c.3-.2.6-.4.9-.5.2-.1.4 0 .4.2 0 .1 0 .2-.1.3-.2.3-.5.5-.8.7l-.9.7c-.6.4-1.1.9-1.7 1.3l-1.7 1.3-.9.6-.9.6c-.2.1-.4 0-.5-.2 0-.1 0-.3.1-.4.3-.4.6-.7.9-.9z"/><path class="st3" d="m136 168.5-.6 2.3-.2.7c2.9 3.9 6.7 7 11 9.2 2.9 1.4 6 2.1 9.2 2.1.2-.8.4-1.6.5-2.4-1.3 0-2.6-.1-3.9-.4-4.3-1-8.3-3.2-11.4-6.4-1.7-1.4-3.2-3.2-4.6-5.1z"/><path class="st7" d="m134.8 54.8 19.2 2.3c4.1 4.9 6.6 11 7.2 17.4-6.6-2.3-13.1-4.4-20.1-5.3l-6.3-14.4z"/><path class="st2" d="M119.3 58.9c3 5.3 6.5 10.6 11.2 14.3 3.2 2.5 7.7 2 10.3-1 1.3-1.4 2.3-3.1 3.1-4.8 1.6-3.4 1.6-7.4-.2-10.7 1.7.7 3.5-1.8 3.5-3.3 0-1.5-1-2.9-2.5-3.4-1.4-.5-2.4 1-3.3 2.2-2.4-1-3.9-2.3-6-2.8-.5-1.1-1.1-2.1-1.8-3-.7-1.1-2.1-1.6-3.3-1.2-4.8 1.5-9 4.3-12.3 8-.7.8-.8 1.9-.3 2.9s1.2 2.1 1.6 2.8z"/><path class="st2" d="M146.8 54.9c.2-.4.4-.9.4-1.5 0-1.5-1-2.9-2.4-3.5-.4-.2-.8-.2-1.2 0 1.2 1.7 2.3 3.3 3.2 5z"/><path class="st1" d="M143.8 56.7c-.6-1.6-1.3-3.1-2.3-4.5-.3-.1-.9-.4-1.1-.5 1.3 3 2.3 6.2 2.7 9.5.4 2 .3 4-.4 5.9-.6 1.5-1.4 2.8-2.5 3.9-2 1.9-4.5 3.2-7.3 3.4 2.8.9 5.9 1.2 7.9-1.1 1.6-1.7 2.9-3.7 4-5.7 1.4-3.6 1-7.6-1-10.9z"/><path class="st7" d="M142.8 52.2c.1-.4.4-.7.7-1 .3-.3.7-.4 1.1-.4.1 0 .1.1.1.2v.1c-.1.1-.3.2-.4.3-.1.1-.3.2-.4.3-.2.2-.4.5-.5.8-.1.3-.1.6-.1.8.1.3.2.6.3.8.1.2 0 .3-.1.4-.1.1-.3.1-.4-.1-.4-.5-.6-1.4-.3-2.2z"/><path class="st6" d="M220 99.1c-4.6-13.7-8.7-25.7-20.9-35.2-11-8.5-25.4-14.4-39.3-13.1-9.9 9.8-17.2 21.9-21.3 35.2 19.6-.7 31 8.5 47.9 18.3 6.5 3.8 21.1 3.4 28.6 3.4 4 0 7.3-2.1 5.8-6.4l-.8-2.2z"/><path class="st6" d="M166.5 87.4c-5.1-4.3-11.2-7.4-17.7-9-4.9-1.2-10.2 1.1-13.8 4.7s-5.9 8.2-8.2 12.7c-3.7 2.5-7.8 5-11.9 7.6.2 5.1 2 10.1 5 14.2 16.6-5.8 32.4-14 46.7-24.2.9-.5 1.7-1.3 2-2.3.3-1.5-1-2.8-2.1-3.7z"/><path class="st2" d="M99.3 113.4c-.8 3.4.4 7.8 3.7 9.3 5.8-1.4 11.4-3.1 17-5.1-3-4.1-4.8-9.1-5-14.2-5.4 3.4-10.8 6.8-15.7 10z"/><path class="st2" d="M61.6 120.6v-4.4c8.2-3.4 37.3-9.2 43.2-8.7 4.5.4 9 2.8 8.9 7.2v.2c-.1 4.7-4 7.5-8.6 8.5-8.5 1.7-29.9 2.5-43.5-2.8z"/><path class="st2" d="M67.6 121.7c-3 .8-6.2.8-9.3-.2-1.4-.4-2.7-1-3.8-2-1.1-1-1.7-2.4-1.8-3.9-1.5-1.4-3.2-2.6-4.7-4.1-2.1-.1-4.2.3-6.1 1.3-.8.2-.8-.4-.7-.8.2-.4.5-.7.8-.9 1.5-1.1 3.2-1.9 5-2.3 6 2.1 12.2 4.3 18.2 6.4.6.2 1.1.4 1.6.8.6.6.9 1.5.8 2.4 0 1 .3 2.5 0 3.3z"/><path class="st2" d="M56 113.7c-1.4-1.3-2.7-2.7-3.7-4.3-1.2-1.5-2.6-3-4.5-3.2s-3.7.3-5.9.1c-.2.4-.1.9.2 1.2.3.2.7.3 1.1.3l4.2.5c1.9 1.6 4 3.2 4.9 5.5.1.4.3.7.5 1 .5.4 1.3.5 1.9.1.6-.3 1-.7 1.3-1.2z"/><path class="st2" d="M57.1 115.8c-1.8-.5-3.6-1.3-5.2-2.3-1.7-.9-3.6-1.6-5.5-1s-3.2 1.8-5.3 2.6c0 .5.3.9.7 1 .4 0 .8 0 1.1-.2l4-1.3c2.4.6 5 1.2 6.8 2.9.3.3.6.5.9.7.7.2 1.4-.1 1.8-.7.4-.5.6-1.1.7-1.7z"/><path class="st2" d="M58.5 117.5c-1.9-.2-3.7-.7-5.5-1.4-1.8-.6-3.9-.9-5.5 0s-2.8 2.4-4.7 3.5c.1.4.4.8.9.8.4 0 .7-.2 1.1-.4l3.7-2c2.5.2 5.1.3 7.2 1.7.3.2.6.4 1 .5.7 0 1.4-.4 1.6-1 .1-.5.3-1.1.2-1.7z"/><path class="st6" d="M151.3 70c.9-6.6 3.3-13 7-18.6 2.8-4.2 8.3-6 13.3-5.8s9.9 2.1 14.6 3.9c4.4-.7 9.2-1.5 13.9-2.4 3.3 3.9 5.4 8.8 5.9 13.9-16.2 6.9-33.3 11.5-50.8 13.5-1 .2-2.1.1-3-.4-1.1-.9-1.1-2.7-.9-4.1z"/><path class="st2" d="M218.6 43.9c2.9 2 5 6.1 3.6 9.3-5.2 2.8-10.5 5.4-16 7.7-.5-5.1-2.6-9.9-5.9-13.9 6.1-1 12.4-2.2 18.3-3.1z"/><path class="st2" d="m251.2 23.8-3-3.3c-8.4 3-33.8 18.4-37.7 22.7-3.1 3.3-4.8 8.1-1.7 11.4l.1.1c3.2 3.4 8 2.9 12 .5 7.5-4.5 23.9-18.3 30.3-31.4z"/><path class="st2" d="M247.6 28.7c2.8-1.5 5.1-3.7 6.7-6.4.8-1.2 1.3-2.6 1.4-4.1.1-1.5-.3-2.9-1.3-4 .1-2.1.6-4.1.7-6.2 1.5-1.5 3.3-2.6 5.4-3.2.7-.3.4-.8 0-1-.4-.1-.8-.2-1.2-.1-1.9.2-3.6.8-5.2 1.7-3.1 5.6-6.1 11.4-9.2 17-.3.5-.5 1.1-.6 1.7 0 .9.4 1.7 1.1 2.3.6.6 1.4 1.9 2.2 2.3z"/><path class="st2" d="M250.7 14.9c.2-1.9.1-3.8-.2-5.7-.2-1.9 0-4 1.2-5.4s2.9-2.3 4.4-3.9c.4.2.7.6.6 1-.1.4-.3.7-.6 1l-2.7 3.2c-.4 2.4-.8 5.1.1 7.4.2.3.3.7.3 1.1-.1.7-.7 1.2-1.4 1.4-.5.2-1.1.1-1.7-.1z"/><path class="st2" d="M251.4 17.2c1-1.6 1.7-3.4 2.2-5.2.7-1.8 1.7-3.6 3.4-4.4 1.7-.8 3.6-.8 5.6-1.6.3.3.3.8.1 1.2-.3.3-.6.5-1 .6L258 9.6c-1.4 2.1-2.9 4.3-3 6.7 0 .4-.1.8-.2 1.1-.4.6-1.1.9-1.8.7-.6-.2-1.2-.4-1.6-.9z"/><path class="st2" d="M251.4 19.5c1.3-1.4 2.3-3 3.1-4.7.9-1.6 2.2-3.2 4.1-3.8s3.7-.2 5.8-.6c.2.4.2.9-.1 1.2-.3.2-.6.4-1 .5l-4.1 1c-1.7 1.8-3.6 3.7-4.2 6.1-.1.4-.2.8-.4 1.1-.5.5-1.3.6-1.9.3-.4-.3-.9-.7-1.3-1.1z"/><path d="M208.2 89.4c-1.7-2.2-3.5-4.2-5.2-6.3l-5.2-6.3L187.3 64c-2-2.4-4-4.9-6-7.2-.4-.4-.9-.3-1.3 0-.1.1-.1.1-.1.2-1.2 2.6-2.5 5.2-3.7 7.8-1.2 2.6-2.6 5.1-3.6 7.7-.2.7.8 1 1.1.5 1.5-2.4 2.6-5 3.9-7.6 1.1-2.1 2.2-4.3 3.3-6.4 3.2 4 6.4 7.8 9.6 11.7l10.4 12.6c1.5 1.8 5.7 7 6.1 7.3.7.5 1.8-.4 1.2-1.2z" style="fill:#2e7d32"/><path class="st9" d="M176.6 84.2c-1.2.9-2.3 1.8-3.3 2.9-1.1 1-2.2 2-3.4 3-2.3 1.9-4.6 3.7-7.1 5.4-4.9 3.4-10 6.5-15.3 9.1-1.5.8-3.1 1.5-4.6 2.2-1.5.5-3 1.3-4.3 2.2 1.4-.2 2.8-.6 4.1-1.2 1.4-.6 2.7-1.2 4-1.8 2.8-1.3 5.4-2.7 8.1-4.3 5.2-3.1 10.1-6.5 14.8-10.3 1.3-1.1 2.6-2.1 3.8-3.2 1.3-1 2.5-2.2 3.6-3.6.1-.1 0-.3-.2-.4h-.2z"/><path class="st9" d="M179.6 89.7c-1 .1-2 .3-2.9.6l-3.2.8-3.1.8c-1.1.2-2.1.6-3.1.9-.1.1-.1.3 0 .3 1.1-.1 2.1-.3 3.1-.6l3.1-.7 3.1-.7c1.1-.2 2.1-.5 3.1-.9.3-.1.2-.5-.1-.5zM131.1 87.8c-.6.6-1.1 1.3-1.5 2-.5.8-.9 1.5-1.3 2.3-.8 1.6-1.5 3.3-2 5-1 3.4-1.3 7-.9 10.5 0 .2.3.1.3 0-.1-3.5.3-6.9 1.3-10.3.5-1.7 1.1-3.3 1.9-4.8.4-.7.8-1.5 1.2-2.2.5-.7 1-1.5 1.4-2.3.1-.1 0-.3-.1-.3 0-.1-.2 0-.3.1zM213.5 81.5c-.8-1.6-1.7-3.2-2.6-4.7-1.9-3-4-5.8-6.3-8.4-4.7-5.3-10.3-9.7-16.6-13-3.5-1.9-7.2-3.3-11-4.2 0 0-.1.1 0 .1 6.5 2.3 12.7 5.6 18.3 9.7 5.6 4.2 10.4 9.4 14.3 15.2 1.1 1.6 2 3.3 2.9 5s1.6 3.6 2.6 5.2c0 .1.1.1.2.1s.1-.1.1-.2c-.4-1.6-1.1-3.3-1.9-4.8zM213.1 102.4c-2.3 0-4.6.3-6.9.4-2.3.1-4.6 0-6.9-.3-4.7-.5-9.2-1.6-13.6-3.2-2.5-.9-4.9-2-7.4-3.2-.1 0-.1.1-.1.1 3.9 2.6 8.3 4.5 12.9 5.7 4.6 1.2 9.3 1.9 14 1.9 2.7.1 5.4-.2 8-.9.2-.1.2-.2.2-.4 0 0-.1-.1-.2-.1z"/><path class="st3" d="M42.5 144.9c-.4-4.4-2.3-8.5-5.5-11.7-1.1-1.1-2.2-2-3.5-2.8-1.2-.7-2.5-1.3-3.9-1.8l.6.6-.6-.6c-2.1-.7-4.3-1-6.5-.9-1.5.1-3.1.3-4.6.7-.1.1-.1.2-.1.3 0-.1.1-.2.1-.3-4.7 1.3-8.6 4.4-11.1 8.6 0 .1 0 .2.1.4 0-.1 0-.2-.1-.4l-.2.4c-1.4 2.5-2.2 5.3-2.3 8.1.2-.3.2-.3 0 0v1.6c.1 4.4 1.9 8.7 4.8 12l.4.5c.2.2.3.4.5.5 2 2 4.5 3.5 7.2 4.4l.5.1c4.7 1.4 9.8.9 14.2-1.4.2-.1.3-.2.4-.2l.4-.2c2.8-1.7 5.2-4.1 6.8-7 1.7-3 2.5-6.4 2.4-9.8v-1.1z"/><path class="st5" d="M42.5 145c-.4-4.4-2.3-8.6-5.5-11.7-1.1-1.1-2.2-2-3.5-2.8h-.1c-.1-.1-.2-.1-.4-.2-.9-.4-1.8-.8-2.8-1l-.3-.3-.3-.3c-2.1-.7-4.3-1-6.5-.9-1.5 0-3.1.3-4.6.7 0 0 0 .1-.1.1-.2.4-.2.8-.2 1.2l-.5.2c-.3.1-.6.3-.9.5-.7.4-1.4.9-2.1 1.5-1 .9-2 1.9-2.7 3-.7.2-1.4.4-2.1.7-1 .4-1.8 1-2.5 1.8 0-.1 0-.2-.1-.4l-.2.4v.3l-.1.1c-.5.9-1 1.8-1.2 2.8-.4 1.3-.6 2.7-.4 4.1-.2.2-.3.4-.5.6l.1.1s0 .1-.1.1v.7s0-.1.1-.1c.2-.4.4-.7.7-1.1.2.1.3.3.5.4.8.7 1.7 1.2 2.7 1.4.2 1.3.5 2.7 1 3.9.2.5.4 1.1.6 1.6.4.8.8 1.6 1.3 2.4-.6 1.5-.8 3-.7 4.6h-.3c-.4-.1-.7-.1-1.1-.3.1.2.3.3.4.5.2.1.4.1.6.1h.4c.2.3.4.6.7.9 1.6 1.6 3.6 2.6 5.7 3.1.1.2.1.4.3.6l.5.2c-.2-.2-.3-.4-.4-.7v-.1c.3 0 .6-.1.9-.1 1.2-.2 2.3-.8 3.3-1.5l.3-.3.3-.3.5.2c1 .2 2.1.3 3.1.3l1-.1c1.2-.1 2.4-.4 3.6-.7.5.6 1.1 1.2 1.8 1.5 0 .1-.1.2-.2.4.2-.1.3-.1.5-.2 0 0 0-.1.1-.1l.3-.1c2.8-1.7 5.2-4.1 6.8-7 .2-.7.2-1.4.2-2.1.2-.4.5-.8.7-1.3.4-.9.7-1.8.9-2.7.3-1.5.5-3 .3-4.5.1.1.1 0 .2-.1zm-16.1-14.4c1.1-.6 2.3-1 3.6-1.1 1.1.2 2.1.6 3.1 1.1.4.2.7.4 1.1.6s.7.5 1.1.8c.8.6 1.5 1.2 2.1 1.9.3.3.6.6.9 1 .7 1.3 1 2.9.8 4.4 0 .1 0 .2-.1.3-1.1.4-2.3.7-3.4 1l-1.8.5-.3-.4c-1.7-1.6-3.8-2.9-6-3.6-.1-1.2-.3-2.3-.6-3.4-.1-.4-.2-.8-.4-1.2-.2-.5-.3-1-.6-1.4.1-.2.3-.4.5-.5zm-11.3 1.6c.6-.5 1.2-1 1.9-1.4l.9-.5.9-.4h2.4c1.5.1 3.1.5 4.4 1.2.4.8.7 1.7.9 2.6.3 1.1.5 2.2.6 3.4l-.5.3c-1.9 1.1-3.6 2.5-5.1 4.1l-.2.2c-1-.3-2.1-.5-3.1-.6l-.6-.1h-.2c-1.2-.2-2.4-.3-3.6-.4-.8-1.7-1.2-3.6-1.2-5.5.5-1.1 1.4-2.1 2.5-2.9zm-4.5 19.5-.3-.9c-.4-1.2-.8-2.5-1-3.7.3-.8.7-1.7 1.1-2.4.8-1.5 1.9-2.7 3.2-3.8 1.2.1 2.5.2 3.7.4h.2l.7.1 3 .6c.1.4.3.8.4 1.1l2.4 6c-.6 1.1-1.3 2.3-2.1 3.3v.1c-.8 1.1-1.6 2.1-2.4 3.2H17.8c-1.9-.1-3.9-.4-5.7-1.1-.7-.9-1.1-1.9-1.5-2.9zm23.3 6.3c-.7 1.1-1.5 2.1-2.6 2.9-1.3.5-2.6.8-4 .9l-1 .1c-.8 0-1.6 0-2.3-.2l-1.2-.3c-.2-.3-.5-.6-.7-.9-1.1-1.3-1.9-2.9-2.4-4.5.8-.9 1.5-1.9 2.2-2.9l.3-.4c.8-1.1 1.4-2.1 2.1-3.2.9 0 1.8.1 2.8 0 1.6 0 3.3-.2 4.9-.4.7.8 1.3 1.7 1.9 2.6.1.1.1.2.2.3.5.8.9 1.7 1.3 2.6.1.2.1.3.2.4-.6 1-1.1 2-1.7 3zm7.7-8.3c-.2.7-.4 1.4-.7 2.1l-.9 1.8c-1.2.8-2.6 1.2-4.1 1.3h-.3c-.1-.2-.2-.5-.3-.7-.3-.8-.7-1.7-1.2-2.4-.1-.2-.3-.5-.4-.7-.5-.7-1-1.4-1.6-2.1.6-1.4 1.1-2.9 1.4-4.4.2-1.1.3-2.2.4-3.2.6-.1 1.1-.3 1.7-.5 1.2-.3 2.3-.6 3.4-1 .1 0 .1.1.1.1.6.5 1.2 1.1 1.5 1.8.6.9 1 1.9 1.3 3 .2 1.6.1 3.3-.3 4.9z"/><path d="M42.6 146c.1 3.4-.7 6.8-2.4 9.8-1.6 2.9-4 5.3-6.8 7l-.4.2c-.2.1-.3.2-.4.2-4.4 2.3-9.4 2.8-14.2 1.4l-.5-.1c-2.7-.9-5.2-2.4-7.2-4.4l1.2.6c3.3 1.4 6.9 1.8 10.5 1.3l.8-.1.7-.2c4.5-1 8.4-3.6 11.2-7.2l.2-.3c2.7-3.6 4-7.9 3.9-12.4 0-.6-.1-1.2-.2-1.8 0-.2 0-.5-.1-.7-.3-1.9-.9-3.7-1.7-5.4l-.3-.7c3.1 3.1 5.1 7.3 5.5 11.7.1.4.1.8.2 1.1z" style="fill-rule:evenodd;clip-rule:evenodd;fill:#dadada"/></g></g></svg>